<mxfile host="app.diagrams.net" agent="Mozilla/5.0 (Windows NT 10.0; Win64; x64) AppleWebKit/537.36 (KHTML, like Gecko) Chrome/133.0.0.0 Safari/537.36" version="26.0.12">
  <diagram name="第 1 页" id="958igTL7F055lHUttih2">
    <mxGraphModel dx="4521" dy="1156" grid="1" gridSize="10" guides="1" tooltips="1" connect="1" arrows="1" fold="1" page="1" pageScale="1" pageWidth="1169" pageHeight="827" math="0" shadow="0">
      <root>
        <mxCell id="0" />
        <mxCell id="1" parent="0" />
        <mxCell id="GITuXRqMa1vAHD-pB2xv-1" value="" style="rounded=0;whiteSpace=wrap;html=1;dashed=1;fillColor=none;strokeColor=#FF0000;strokeWidth=2;" parent="1" vertex="1">
          <mxGeometry x="-2030" y="950" width="180" height="150" as="geometry" />
        </mxCell>
        <mxCell id="749JlQ45wNmBAUl5USfy-4" style="edgeStyle=orthogonalEdgeStyle;rounded=0;orthogonalLoop=1;jettySize=auto;html=1;exitX=1;exitY=0.5;exitDx=0;exitDy=0;entryX=-0.053;entryY=0.49;entryDx=0;entryDy=0;strokeColor=#0000CC;endArrow=none;endFill=0;entryPerimeter=0;" parent="1" source="_-Z4865ZqMRXmuTOCmLD-2" target="bHxsROqGJ9d036n8B6Q5-21" edge="1">
          <mxGeometry relative="1" as="geometry">
            <mxPoint x="-1417" y="488" as="targetPoint" />
          </mxGeometry>
        </mxCell>
        <mxCell id="_-Z4865ZqMRXmuTOCmLD-2" value="20口发送卡" style="shape=image;verticalLabelPosition=bottom;labelBackgroundColor=default;verticalAlign=top;aspect=fixed;imageAspect=0;image=data:image/png,iVBORw0KGgoAAAANSUhEUgAAASwAAAEsCAYAAAB5fY51AAAS/ElEQVR4nO3dX25Ux7bH8aoOhhuEhXmxAV8pjQxS3jAjAEYQZwSYEcQZQZwRQEYQMwKcEcRnBHTejgSWG+kYcF5wBBfCn/S+a/ukT0iObdJVq/Zea/f3IzkuR4rZ7bh+rPrbMQCAEwQWADcILABuEFgA3CCwALhBYAFwg8AC4AaBBcANAguAGwQWADcILABuEFgA3CCwALhBYAFwg8AC4AaBBcANAguAGwQWADcILABuEFgA3CCwALhBYAFwg8AC4AaBBcANAguAGwQWADcILABuEFgA3CCwALhBYAFwg8AC4AaBBcANAguAGwQWADcILABuEFgA3CCwALjR6cBa7vfnXr7/9ao0Q/ytWq5iNSdNoJt6va0gTpwIj/85fDYMHdS5wLqyuLgcRu+vSzitVlVYln8FTKE4lM69GT6Jm4/+9ewf8i86IcpHJ1z+3/M3wm/VN1WobgQAH4jD0Ivr27vP7skXrkX5cK2uqKrR+zsEFfAx/oMryodbVy4sfDUK1V1pAvi7YtycPfnp7cFwuC9fueIysOrJ9BdvX38fqmpFvgQwsTjs9U58+XB3dyBfuOEusOqwevn21Y8VE+pAnhj2e3HmpqfQchdYSxfnpbIKqwFAPmeh5SqwCCtAX4xhcObk6Zse5rTcBFa9baH6bfSjNAFoi+He9pOfV4NxLgKrnrd68eb1gxCqfgBQRPykd/PRv55tBcNcBNbli/PrMsn+jTQBFBOH20/3LknDrCgfph1UV29f7cjc1Zx8CaCgXq93++Hus41glPnAurJ4fnU0Gn0vTQCFxRC3Hj3duylNk6J8mCbDwQcyHFyWJoAGzJzqXbJ624PpwPq8f77/7s1oR5oAGhJj+PbRk5/Xg0GmA2vp4vxKqMJ9aQJoiuEtDqYDS4aDKquDMcYfYjyx7mU3LzCpejTy/u1oVae/hIFUWNekaU6UD7MuX1jYqkJ1XZrpevG77d29NWkBnac1Ktl++rPJbDD5UGNLFxZ2sjaLxvDL7MnTfQ9HDgAtElobElq3pJms15u5ZnFEYjyw5iv5lKweCj56srciTWBqqGwFiuFLmcfalJYpZgNL4+ygjMXNrnYApXS575gNLClrs8fiHs5GASXkjk4kGUyuFJoNLI0VQqvjcKA0mf8dhlB9FhLFEP/x6OnejWCM4cBa2Kyq6gtpJrO60gGUlr3CHsO+VFjnpGWK2Q6d+wOXMfhPMgZfliYwdZYWF+6GUfWVNJPNnjp9ztoKu9nAyh2DWy1pgSZoTKlYnAM2GVj1rt3cM4RSYZlc5QCaoLFSaPGqGZOB1dUfNtCUrv6lbzOwLiysyfzVHWkms1jOAk3KnlYxuPHaZGB1dcIQaJLMYw2qKlyVZhKpsMwdgjYZWFJhZa0Qyqv6RZZk56QFTK3sfiSsbQ0y9TBjSxcWdkLGoWdWCAEJLIWVQmu3jxoNrPlKPqUzeqwAaJLGIWhrc8HmAktjhVDG3uZWN4CmdbEvmQssDj0DOg7eIu/Nq+fSTGfsAkxzgdXFcTfQFikA9kMVzkozibX5YIOBxaFnQEv+SqGtd4OO8mGKVFhZ70MoY+6fZMyd/N8DXSIV1kbIvC7ZUgFg5kHGclcILe7OBdoiBUD2FIulOWFTgdXV809AW6TCWpEK67400xm6391UYGksw3LoGfjDlcXF5dHo3QNpJrNUBNgKrI6Vr4AFudMskhJmNmKbCiyNQ8+WJggBC5Y6dL+7qc6dvQTLoWfgv2T3K2GlEDDxEGMyQfg8VCE5cCz9TQBYoTFysXJdk63Ayh1rGztGAFggFVZnLsQ0E1gaK4SWVjMAK1T6Vohfy+jlrjRbZSawungVBmBBl/Y3mgksjS0NHHoGDpc73SIVlon5YUOBxaFnoBSZx9qSeazr0kwiFZaJ+93NdHCpsDj0DBTSlYKg9QcYyy5ZOfQMHEkKguwpl15v5trD3d2BNFtjIrC6NCkIWNSVRS0TgaWx7MqhZ+BoGn3MQlFgI7AUylUL6Q9YljvtYmFjtonA0jg6YGFCELBsqQP3u5vo5LlLrvIqOPQMfIRCP9uXfnZOWq0xEViS/Bx6BgqTfrYh/eyWNJO1PZJp9Q8f68LYGrCuC3PFrQdWV1YvAOs0+lrbq/GtB1ZX9ocA1nXhfvfWA0ujTOXQM/D35E6/tH2ixEBgdeOME+CBFAgDKRCuSjNJ2wtcrXd0+QFy6BloSPbWBtFmgdDaHzzmvUQFPJECwfUUTKuBxaFnoFlSYbm+373VwOrCMivgiUafk3ms1u53bzewFMrTNtMe8Ga535978ebVc2kma3NU02pgcegZaF72vHGLK4WtdnYZT2/JePq6NNNw6BmYWHa/C3G4/XTvkjQaF+WjNUscegYa53nvYyt/aE1jLM2hZ2ByGnPHbd3v3lpgqaxWtDj5B3glI5sVGdncl2a6GL6U6ZhNaTWqtcDi0DPQDs/FQmuBpVGWtrnjFvAsd6VQkuOeVFiroWHtBVb2SkV7E3+Ad0sXFoYhVJ+FRG0teLXW4aXC4tAz0JLsgqGl+91bC6zckpRDz0A6jU3bs6dOnxsMh/vSbEwrgdWFmw8Bz2SEkz2H3MaiVyuBpbFKwaFnIJ3XPthOYDlNd6ArvF7t1EpgLXXg/dEA7zzOI7fS6bNXKEJ8vP10rx8AJJORzqDKud89hoFUWNek2ZhWAksqLA49Ay3LLxyaH+k0+ofVOPQM2CAVVvZcctOnTRoPLI3VCamwWruiFegKj+d5Gw8sjz8koItUioeGVwobDyyPZSjQRR6nZ5oPLIcTfUBXyQLYfqjCWWkmkemZRhfAGu/4UmHlHXpu+AcEdFl+AdHs/e5RPhrlcbMa0FVSYbnaxN3YH1Tj0DNgi4x4sueUm1wEazSwNFYl5IlbuUsa6CKpsFakwrovzXQN9slmA8tZmgNd523U02hgSZq7Gi8D0yB3XllSpLH73Rvt/AorEhx6BpR5ut+90cCSCotDz4Ax+YVEcyOfRv6QmsddtcA08HS/e2OBpbFCKBUWh54BZVJhrUmFdUeayZpaDGsssDj0DNjkqZhoLLA0tjRw6BnQ5+l+9+YCy9HEHjBtcrc2SIXVyIJYYwEgS6c7snTaD4ma+oEA0yi3oJAKq5H73RsMrPlKPiXj0DNQzuWLC5tVVX0hzWRNjICK/wE1b9v/gWmjMcfc681ce7i7O5BmMY0E1pKzA5bAtPGyit9IYGmkdxM/DGBaqWxtaGAU1EhgSYW1IRXWLWkma2J8DEyz3HlmSZPih6AbCYHcFQh5TA49A4VJYbEfjN/v3khg5SZ3Ez8IYNplFxYx7EuFdU5axRQPLA49Az5IhWV+6qboN6+pTOY1dE4JmGYeFsfKB5ajk+DANNMoLnq93u2Hu882QiHlA0shtTn0DJTnYYN3+cDKncgTpcfFAP4te4Gs8BG64kHAoWfADxkRDWREdFWaSUr31wYCa76ST8lKJzaAP1gfERX7xjUPY2IAf5AKy/Scc9HAWuLQM+CKVFimV/WLBpZGWpd88QD+TGNrg8xjFds3WTSwpMLakArrljSTlRwPA/gz6ydTioaBlJdbUl5el2YiDj0DTcteKCu4Ulg0sCy/cACHUyg0hlJoXJKGuigfRVgvLQEczvL97kW+ac365B2Aw2kslpW6371cYBlfHgVwOFksM7sdqVxgKaR0yQ1oAA6nMjoqtOG7XGBlT9yVGwcDOF7ugpkkS5H73YsFAoeeAb+k/w6l/34WEpXqvwUDa76ST+kKJTSAj8seIRW6371IYHHoGfBtaXHhbhhVX0kz2eyp0+cGw+G+NNUUCSzLqwwAPk5j0azEKn+RwNJ4saX2cQD4OI2VwhL3uxcKLLs7ZQF83Of98/13b0Y70kxWYlqnSChkT9hx6BloXe7CWYmVwiKBZfGFApiMTO0Mqpz73WMYSIV1TZpq1APLaikJYDL5IyX9qR3Vb1bTmKyTCotDz0DLpMLKXjzTPl6nH1gcegY64cri+dXRaPS9NJNp92X1wLK64QzAZFRGS8rTO+qBJRXWllRY16WZTF7kegDQrirOSV9ek1Y65Us41QNr6cLCjrzSfgAw9WQ+WnXFv0BgzVfyCQCE7v3uUT7UaIx5AXSL5tYGtW9UUzn0DKBTNFcKVQNLY98GgI5RvHlFObDyDz0D6BZZ9Vfb2qAbWApbGgB0S4zxh0dP9lakmU01sFghBPBXmlsb1AJL49AzgG7SWilU+SY1tjQAOIrWcTsCC0BxWlsbCCwAxck8lsqVUQQWgOK0tjYQWACKI7AAuEFgAXDDXGAt9/tzL968ei7NZForCQB05W4KNxdYtewXpbSSAEBXdt/uZGApvSgAuqz0bQILwEdZ6dsEFoCPyu3bkjQqd2IRWACOdWVxcXk0evdAmsm0FtQILADH0tiyRGABaASBdQQCC7CHwDoCgQXYQ2AdgcAC7CGwjkBgAfZ0NrCy3zWnF7/b3t1bkxYAIwisI0TFd9cAoIPAOgKBBdhDYB2BwOom+YW/XlWhH6tRP/xJHMR44vHD3d2BfFFU/Qzxt2q5itWcfPmBZp6hvn7p5ftfrx7+DLpiFferT+LgzIn/+UnjnWrkZ0dgHSYSWJ1x0EHfvP5GOudqqMKc/KtjxKHMX65v7z67J1+oqZ/hxdtXd6S58rFnkAWfQRXCtxrn3T40yTMUEcPGzMnet/8cPhuGRBqBNXOqdynnGcaifKghsFA7OHtWvfsxTNpBY9ycPfnpbY2qIP0ZwsbsydNfazzDQUcfje5P/AzaYtiXf95ODeMri+dXR6PR99JMZu6NVGsEFpKD4nfyO7AlvwM3pZks9xnq4Nx+sveltJIdPEPmgWFtqcOyyxfn16sqfCPNZAQWTJJf7gfyy70szWQyPMvaj7d0YWEnhKofMuQ8w+/DwJ2QGpilSKUl1eOlSatH+X9KYB2GwPJNY+hwILFj1Sw8g0YHLyUliDVeD4EFcy5fXNisquoLaWbr9Xq3H+4+2wgTks6VXeH9R+Klc6rPoC4Ot5/uXZLG3yavh8A6DIHlW+7RrD9JPPWg+Qwp1UhN8xlKmD11+twklWN3Ayvzb1gCyzfNjpryu/B5/3z/3ZvRjjRVxBh/ePRkb0Waf9vBymDmFoDSJp1873BgZb4wmTeQEvyctOBQ24FV03wGeYh78vu4GiagHZolEFi/s/TC0Lyli/P7oQpnpZkteThm4Rk0Q7OASfuYpX6t8k3GLL0wNE/CYkPC4pY0s01aBYzlTkt8qNebuZZyZEfzGbSlVK6W+rXKNxmz9MLQPK35G6lsfpLKZlmaE1N7hoSOPab1DCWkrL5a6tcq32TM0gtDO5YWF+6GUfWVNJOlVldjGpVeanU1ZrHKSg3h7H4dwy8yFzgnrWyq4ZD9wgSB5Z/8Hgzk9+CqNCeWUgH8Vb3T/OXbV1uen0FbXbWeOXn6xiTbGcZy/xJKDcrDqIaD/KKuy/8gAguT/5LL38Lyz1X5m3hTPmerA+PFu9frEz1DiI9DrNY0n+Hl29cbbVda9faMMyc/XU0Jq5ql/ZWq4UBg4UMHS/xvR+uhijdCqD4Lh6h/meXT5plTn26kdqjjHMwnjUar1p9B30H4bsVebyNneF0jsI5BYAG2EFjHILAAWwisYxBYgC2dDSxZTl4JVbgvzWSTHswEUFZnA+tgcjFzw1zuHhwAugisYxBYgC0E1jFi4oFTAPp+35ryIGRc99zpwKr1Qlx7+HTvO2kCaEndn8NodEcW0pbly2SdD6wDMezHKg6kBaBpsZrLDaoxs4FVH0V48ebVc2kCwAEJrK8lsO5KM5tqYNUsnlIH0B6td32uqQeWxl4sAN0g1ZXacLCmHlg1Ca19Ca2z0gQwxTSu6vlQkcDSOKIDwLv4ePvpXj8oKhJYtaULC8PmrtIAYE7iG9Eep1xgMZcFTC3tuauxYoFVk9DakNC6JU0A0yKGX2ZPnu6XuMSgaGDVZD5rIPNZV6UJYArkvoHHcYoHVr2Z1NJl/ADK0V4V/KvigVUjtICOk2Gg/FPtTUSO0khg1erQevH21V3mtICuiY97vRMrpYaBH2ossMZkIn5FPtWT8WflMwDPevG72ZlP10tMsB+m8cCq1dWWDBHXqhDWCC7An/q9DiWs7jZ92WYrgTVWB9f/vft1papGa8xvAdb9+70OZ0721rUOM0+q1cD6UB1eMsd1Qx5oWSqvfqxiPwBolwRUjL3hJzNhq62Q+pDkAwD4QGABcIPAAuAGgQXADQILgBsEFgA3CCwAbhBYANwgsAC4QWABcIPAAuAGgQXADQILgBsEFgA3CCwAbhBYANwgsAC4QWABcIPAAuAGgQXADQILgBsEFgA3CCwAbhBYANwgsAC4QWABcIPAAuAGgQXADQILgBsEFgA3CCwAbhBYANwgsAC4QWABcIPAAuAGgQXADQILgBsEFgA3CCwAbhBYANwgsAC4QWABcIPAAuAGgQXADQILgBsEFgA3CCwAbhBYANz4f9RnBeGlLiLkAAAAAElFTkSuQmCC;" parent="1" vertex="1">
          <mxGeometry x="-1537" y="450" width="75.5" height="75.5" as="geometry" />
        </mxCell>
        <mxCell id="749JlQ45wNmBAUl5USfy-8" style="edgeStyle=orthogonalEdgeStyle;rounded=0;orthogonalLoop=1;jettySize=auto;html=1;exitX=1;exitY=0.5;exitDx=0;exitDy=0;entryX=0;entryY=0.5;entryDx=0;entryDy=0;strokeWidth=2;" parent="1" source="_-Z4865ZqMRXmuTOCmLD-3" target="_-Z4865ZqMRXmuTOCmLD-2" edge="1">
          <mxGeometry relative="1" as="geometry" />
        </mxCell>
        <mxCell id="h75pCEdkkC_XDxHb6yKX-113" style="edgeStyle=orthogonalEdgeStyle;shape=connector;rounded=0;orthogonalLoop=1;jettySize=auto;html=1;exitX=1;exitY=0.5;exitDx=0;exitDy=0;entryX=0;entryY=0.5;entryDx=0;entryDy=0;labelBackgroundColor=default;strokeColor=default;strokeWidth=2;align=center;verticalAlign=middle;fontFamily=Helvetica;fontSize=11;fontColor=default;endArrow=classic;" parent="1" source="_-Z4865ZqMRXmuTOCmLD-3" target="h75pCEdkkC_XDxHb6yKX-110" edge="1">
          <mxGeometry relative="1" as="geometry">
            <Array as="points">
              <mxPoint x="-1630" y="671" />
              <mxPoint x="-1630" y="322" />
            </Array>
          </mxGeometry>
        </mxCell>
        <mxCell id="_-Z4865ZqMRXmuTOCmLD-3" value="HDMI输入源" style="shape=image;verticalLabelPosition=bottom;labelBackgroundColor=default;verticalAlign=top;aspect=fixed;imageAspect=0;image=data:image/png,iVBORw0KGgoAAAANSUhEUgAAASwAAAEsCAYAAAB5fY51AAATpUlEQVR4nO3d4XGcx5WF4XMj0DgCQxEYimB7IhAVgegITEbgUQTiRrBkBKIj0O0IBEVgKAJBEfS+qLGqtF5Zpo0LuufOeare4g/+4FRjcPgBNfNNyH7NgT6nF3T4W7dk9lzu6OFvvae/0APZL3iw/q8v6RXdktl/2h29oXdkCLLzUJ0k3chsP/eSXtN7umpB1+xA39CQ2f5S0hf0QFfpmgfrlh7H6kZml+Ne59G6o6sTdI1u6Vs6kNmleaAj3dFVCbo2t+Sxskv3QEe6o6sRdE0O9DhWt2R26e7oSA90FYKuyePvrF6QWRfv6KWuRNC1GDpfXZl1c6TUFQi6Fo9jNWTWT+o8Wu0FXYOh82CZdXWkVHNB1+Ctzq9mN+vqHb1Uc0HX4Ec6kFlX95I+pdaCurul78isu8/ojtq6hsE6SfozmXX3FZ3UWFB3J3mw7Dp8RSc1FtTdW/kX7nYd3tFLNRbUXUr6L/oYJpn9vY/5/BtqLKi71PM+Yd7RW53/HbN/ZOh89fMlPZdJQ40FdZd6nsH6nl7Qvcw+3I3Odw79A1WbNNRYUHep+sF6HKuhK3qXvJU6UKp+tCYNNRbUXap2sDxWVuFAqdrRmjTUWFB3qdrBOlLK7OmGat/jOmmosaDuUnWDNWnIrE7Kz88PFtRdqu4J8Ud6K7M6r+hrqjBpqLGg7lJ1g/UZ3ZFZlaG6HwsnDTUW1F2qbrCu4bzs41tUYdJQY0HdpTxYtrdFFSYNNRbUXcqDZXtbVGHSUGNB3aU8WLa3RRUmDTUW1F3Kg2V7W1Rh0lBjQd2lPFi2t0UVJg01FtRdyoNle1tUYdJQY0HdpTxYtrdFFSYNNRbUXcqDZXtbVGHSUGNB3aU8WLa3RRUmDTUW1F1q78E60Od0I9vZvc6DcK96iyo8Pr6hxoK6S+07WC91fuPr42jZ/h7oNb1VrUUVJg01FtRdas/BekHfkF2eL+g9VVlUYdJQY0HdpfYcrL/SjewSPdDvqMqiCpOGGgvqLrXfYN3oPFh2uT6jO6qwqMKkocaCukvtN1hDdfdAsv+MI6VqLKowaaixoO5SHiyrd6RUjUUVJg01FtRdyoNl9Y6UqrGowqShxoK6S3mwrN6RUjUWVZg01FhQdykPltU7UqrGogqThhoL6i7lwbJ6R0rVWFRh0lBjQd2lPFhW70ipGosqTBpqLKi7lAfL6h0pVWNRhUlDjQV1l/JgWb0jpWosqjBpqLGg7lIeLKt3pFSNRRUmDTUW1F1qv8E60I9kl+tTuleNRRUmDTUW1F1qv8F6lKp7XPZxfU+3VGVRhUlDjQV1l6obhsrzenzCp6RPyC7HTzRU98bnR4sqTBpqLKi71J6D9eiW3lDV47Pn9T29VO1YPVpUYdJQY0HdpeoG4bnO60bnbF/3OvccFlWYNNRYUHep/QfLrtuiCpOGGgvqLuXBsr0tqjBpqLGg7lIeLNvbogqThhoL6i7lwbK9LaowaaixoO5SHizb26IKk4YaC+ou5cGyvS2qMGmosaDuUh4s29uiCpOGGgvqLuXBsr0tqjBpqLGg7lIeLNvbogqThhoL6i7lwbK9LaowaaixoO5SHizb26IKk4YaC+ou5cGyvS2qMGmosaDuUh4s29uiCpOGGgvqLuXBsr0tqjBpqLGg7lIeLNvbogqThhoL6i7lwbK9LaowaaixoO5SHizb26IKk4YaC+ou5cGyvS2qMGmosaDuUvsO1oG+phd0INvXvaS3kv6bHqjSogqThhoL6i6152DdSPqODmSX446O9EBVFlWYNNRYUHepPQfrWxqyS/R4lfWKqiyqMGmosaDuUvsN1o2kv5Jdpgf6HVVZVGHSUGNB3aX2G6yh8xWWXa7HwXocrgqLKkwaaiyou5QHy+odKVVjUYVJQ40FdZfyYFm9I6VqLKowaaixoO5SHiyrd6RUjUUVJg01FtRdyoNl9Y6UqrGowqShxoK6S3mwrN6RUjUWVZg01FhQdykPltU7UqrGogqThhoL6i7lwbJ6R0rVWFRh0lBjQd2lPFhW70ipGosqTBpqLKi7lAfL6h0pVWNRhUlDjQV1l/JgWT2/0v0/IKi71H6DdaAfyS7TD3SjOosqTBpqLKi71H6D9egN/Yns8rymx69flUUVJg01FtRdas/BOtB7qnps9nG8o5eqtajCpKHGgrpL1Y3Cc5zXS/mOo5fgXuc7jqbqLaowaaixoO5Sew+W2aIKk4YaC+ou5cGyvS2qMGmosaDuUh4s29uiCpOGGgvqLuXBsr0tqjBpqLGg7lIeLNvbogqThhoL6i7lwbK9LaowaaixoO5SHizb26IKk4YaC+ou5cGyvS2qMGmosaDuUh4s29uiCpOGGgvqLuXBsr0tqjBpqLGg7lIeLNvbogqThhoL6i7lwbK9LaowaaixoO5SHizb26IKk4YaC+ou5cGyvS2qMGmosaDuUh4s29uiCpOGGgvqLuXBsr0tqjBpqLGg7lIeLNvbogqThhoL6i7lwbK9LaowaaixoO5Sew/WjaTPybdI3tu9pL/QA1VbVGHSUGNB3aX2Haw/00l2KR7H6jW9Va1FFSYNNRbUXWrPwXpFX5NdniOl6iyqMGmosaDuUnsO1o90ILs8d/QZVVlUYdJQY0HdpfYbrCF/VP2lq3ouPFpUYdJQY0HdpTxYVu/xCuvxSqvCogqThhoL6i7lwbJ6R0rVWFRh0lBjQd2lPFhW70ipGosqTBpqLKi7lAfL6h0pVWNRhUlDjQV1l/JgWb0jpWosqjBpqLGg7lIeLKt3pFSNRRUmDTUW1F3Kg2X1jpSqsajCpKHGgrpLebCs3pFSNRZVmDTUWFB3KQ+W1TtSqsaiCpOGGgvqLuXBsnpHStVYVGHSUGNB3aU8WFbvSKkaiypMGmosqLuUB8vqHSlVY1GFSUONBXWX8mBZvSOlaiyqMGmosaDuUh4sq3ekVI1FFSYNNRbUXar3YH1Pr8h+24HeSvqEKhwpVWNRhUlDjQV1l+o9WF/RSfYh3kr6kiocKVVjUYVJQ40FdZfyYNnZSef76Fc4UqrGogqThhoL6i7lwbKzkzxYFy2ou5QHy85O8mBdtKDuUh4sOzvJg3XRgrpLebDs7CQP1kUL6i7lwbKzkzxYFy2ou5QHy85O8mBdtKDuUh4sOzvJg3XRgrpLebDs7CQP1kUL6i7lwbKzkzxYFy2ou5QHy85O8mBdtKDuUh4sOzvJg3XRgrpLebDs7CQP1kUL6i7lwbKzkzxYFy2ou5QHy85O8mBdtKDuUh4sO3tDf6IKR0rVWFRh0lBjQd2leg/We/qC7Lcd6Du6UY0jpWosqjBpqLGg7lK9B8v+M46UqrGowqShxoK6S3mwrN6RUjUWVZg01FhQdykPltU7UqrGogqThhoL6i7lwbJ6R0rVWFRh0lBjQd2lPFhW70ipGosqTBpqLKi7lAfL6h0pVWNRhUlDjQV1l/JgWb0jpWosqjBpqLGg7lIeLKt3pFSNRRUmDTUW1F3Kg2X1jpSqsajCpKHGgrpLebCs3pFSNRZVmDTUWFB3KQ+W1TtSqsaiCpOGGgvqLuXBsnpHStVYVGHSUGNB3aU8WFbvSKkaiypMGmosqLuUB8vqHSlVY1GFSUONBXWX8mBZvd/RA1VYVGHSUGNB3aX2G6wD/Uh2mX6gG9VZVGHSUGNB3aX2G6xHb+hPZJfnNT1+/aosqjBpqLGg7lJ7DtaB3lPVY7OP4x29VK1FFSYNNRbUXapuFJ7jvF5KekEHsn3dS3qr8/Op2qIKk4YaC+outfdgmS2qMGmosaDuUh4s29uiCpOGGgvqLuXBsr0tqjBpqLGg7lIeLNvbogqThhoL6i7lwbK9LaowaaixoO5SHizb26IKk4YaC+ou5cGyvS2qMGmosaDuUh4s29uiCpOGGgvqLuXBsr0tqjBpqLGg7lIeLNvbogqThhoL6i7lwbK9LaowaaixoO5SHizb26IKk4YaC+ou5cGyvS2qMGmosaDuUh4s29uiCpOGGgvqLuXBsr0tqjBpqLGg7lIeLNvbogqThhoL6i7lwbK9LaowaaixoO5SHizb26IKk4YaC+ou5cH6WG7pD3Sjs3tJ39Md2T+2qMKkocaCukt5sJ7bl3SSdKNfd6/z378j+/8WVZg01FhQdykP1nO5kfQN3dKHuKMv6F72S4sqTBpqLKi7lAfrOdxI+o4O9K94oM/oXvazRRUmDTUW1F3Kg/UcHsfqlv4dd/Q4Wna2qMKkocaCukt5sKqdJP2ZnuIrOskeLaowaaixoO5SHqxqP9KBnuKBfkfmwfpgQd2lPFiVhqRvqcJndEfXblGFSUONBXWX8mBVOunpPw7+7Cs6yRZVmDTUWFB3KQ9WpZM8WNUWVZg01FhQdykPVqWTPFjVFlWYNNRYUHcpD1alV/Q1VXhNb+jaLaowaaixoO5SHqxKt/QdVfiU7mWLKkwaaiyou5QHq9q9pN/TU/xAN7JHiypMGmosqLuUB6vaC/qGnuILek/mwfpgQd2lPFjP4a3Od2n4d7yjl7KfLaowaaixoO5SHqzncKDU+f5X/4rvaej8Snc7W1Rh0lBjQd2lPFjP6Q39iT7Ef9Mrsv9rUYVJQ40FdZfyYD23G51fT/WCPqFf+one00nnX9bb/7eowqShxoK6S3mwPqYbnXt0r3P22xZVmDTUWFB3KQ+W7W1RhUlDjQV1l/Jg2d4WVZg01FhQdykPlu1tUYVJQ40FdZfyYNneFlWYNNRYUHcpD5btbVGFSUONBXWX8mDZ3hZVmDTUWFB3KQ+W7W1RhUlDjQV1l/Jg2d4WVZg01FhQdykPlu1tUYVJQ40FdZfyYNneFlWYNNRYUHcpD5btbVGFSUONBXWX8mDZ3hZVmDTUWFB3KQ+W7W1RhUlDjQV1l/JgfQyf0y09GjpLnd3RX8h+3aIKk4YaC+ou5cF6Ljc6f0bhCzrQb3mg9/QV3ct+aVGFSUONBXWX8mBVO9DX9FL/nrc6fybhA5kH64MFdZfyYFW60fkTc27pKe7oj/T457VbVGHSUGNB3aU8WFVu6Vs6UIUHOtIdXbNFFSYNNRbUXcqDVeFA39ItVbqX9Bk90LVaVGHSUGNB3aU8WBW+paHnkTpfaV2rRRUmDTUW1F3Kg/VUQ+fBek5HSl2nRRUmDTUW1F3Kg/VU39LQ87qjxx8Nr9GiCpOGGgvqLuXBeoobSX+lj+FTutf1WVRh0lBjQd2lPFhP8Yq+po/hNb2ha7OowqShxoK6S3mwniJVd37/zKSh67OoQvvzC+ouVfcNdw3n9fdSdef3z0wauj6LKrQ/v6DuUnXfcNdwXn/vRzrQx3KNZ7yowqShxoK6S3mwnuKBPqGP4Sc60LVZVGHSUGNB3aU8WE+Rqju/f2bS0PVZVKH9+QV1l6r7hruG8/p77+lz+hgmDV2fRRXan19QdykP1lO8oq/pY3hNb+jaLKowaaixoO5SHqynuJFfOPrcFlWYNNRYUHcpD9ZTperO8B+ZNHSdFlVof4ZB3aXqvtmu4bx+zdD5/YTP6Uip67SowqShxoK6S3mwKryV9CU9h3f0UtdrUYVJQ40FdZfyYFU4UEr6A1X6nobOr/e6VosqTBpqLKi7lAeryo3Ot4H5hCr8RLd0r+u2qMKkocaCukt5sCodKPX0K63vaei6r6x+tqjCpKHGgrpLebCew0nn12h9Qv+Kn+jN33og82B9sKDuUh6s53Kgk84fpPp7+i0/0Ht6Q/eyX1pUYdJQY0HdpTxYH8MtDZ1H7JceKHX+3Zf9ukUVJg01FtRdyoNle1tUYdJQY0HdpTxYtrdFFSYNNRbUXcqDZXtbVGHSUGNB3aU8WLa3RRUmDTUW1F3Kg2V7W1Rh0lBjQd2lPFi2t0UVJg01FtRdyoNle1tUYdJQY0HdpTxYtrdFFSYNNRbUXcqDZXtbVGHSUGNB3aU8WLa3RRUmDTUW1F3Kg2V7W1Rh0lBjQd2lPFi2t0UVJg01FtRdyoNle1tUYdJQY0HdpTxYtrdFFSYNNRbUXcqDZXtbVGHSUGNB3aU8WLa3RRUmDTUW1F3Kg2V7W1Rh0lBjQd2lPFi2t0UVJg01FtRdyoNle1tUYdJQY0HdpTxYtrdFFSYNNRbUXcqDZXtbVGHSUGNB3aU8WLa3RRUmDTUW1F3Kg2V7W1Rh0lBjQd2lPFi2t0UVJg01FtRdyoNle1tUYdJQY0HdpTxYtrdFFSYNNRbUXcqDZXtbVGHSUGNB3aU8WLa3RRUmDTUW1F3Kg2V7W1Rh0lBjQd2l6gbrU7qXWZ0bSX+lCpOGGgvqLlU3WK/pDZlVeUVfU4VJQ40FdZeqG6wHOtIdmT3VLX1LB6owaaixoO5SdYP16IH+SO/J7N/1gv6HDlRl0lBjQd2lagfrZw90R2b/qls6ULVJQ40FdZd6nsEy282kocaCukt5sOw6TBpqLKi7lAfLrsOkocaCukt5sOw6TBpqLKi7lAfLrsOkocaCukt5sOw6TBpqLKi7lAfLrsOkocaCukt5sOw6TBpqLKi7lAfLrsOkocaCukt5sOw6/IVeUFvXMFgnSX8ms+6+opMaC+ru8X+cb8isuyOlGgu6BveSfk9mXf1AN2ou6Bq81PlWHmZd/ZHeqrmga/FW0pdk1s07eqkrEHRN3sqjZb28o5e6EkHX5qTzfbQ/IbNL9RO9oZOuyDUO1qMDvdT5RXa39Hsy290PdEep808LD3RV/hfihehpXRTfFQAAAABJRU5ErkJggg==;" parent="1" vertex="1">
          <mxGeometry x="-1802" y="631" width="80" height="80" as="geometry" />
        </mxCell>
        <mxCell id="_-Z4865ZqMRXmuTOCmLD-11" value="屏幕1" style="shape=image;verticalLabelPosition=bottom;labelBackgroundColor=default;verticalAlign=top;aspect=fixed;imageAspect=0;image=data:image/png,iVBORw0KGgoAAAANSUhEUgAAASwAAAEsCAYAAAB5fY51AAAXfklEQVR4nO3c4XXcxtnF8bsVCKnASAVCKuBMBfFbQZQKIleQ2QqiVGC5grgDP6wgcAUGO4AqwHsnw41IRpZ2BiAHA97fOX8tyQ/JDLy8R6KVnCAi0ggNlog0Q4MlIs3QYIlIMzRYItIMDZaINEODJSLN0GCJSDM0WCLSDA2WiDRDgyUizdBgiUgzNFgi0gwNlog0Q4MlIs3QYIlIMzRYItIMDZaINEODJSLN0GCJSDM0WCLSDA2WiDRDgyUizdBgiUgzNFgi0gwNlog0Q4MlIs3QYIlIMzRYItIMDZaINEODJSLN0GCJSDM0WCLSDA2WiDRDgyUizdBgiUgzNFgi0gwNlog0Q4MlIs3QYIlIM740WD2Av7Dv2cCimRlSt2xkIiJrDOyGOaSPeyQG4Gf2E5vZf53YQ39nAd8W/0MMqVs2MhGRrxnYDXNIdexrZhYA/JP9x4ld/MjeoZwhNbJbNjMReZ069pY5pAbWsRIfAfyV/XewAtLvrrY04fOAxW6ZiBzTDRuetKUf2IcTf+kB/MZewvikWyYibblhw5Oe28z+dOIvH5F+yF7LyCak19ivbIKI1NYD+I45pFHqkV5r+enEXxa2R4Y0XBPSx3dsgohsrcfnYeqRctif+cRfFtaSkU34/Doh/a5sZiLyZR2LPwSPr8N9PdJrM06stcH6GkMarpFNSN2xCSLH1yP9TqlHamAdcziIE1vYazDhy92xCSL71+PxIPV43OGd2MIkMSQjm9mEVHTLRJ7LDYt6pDo2sMhB/uPEFibXm9nIogmpKH5tZpF+piYdiz8ziuLHA4t6pKL4tY7JlU5Mg/W8JqSimY3sYkLqQkO3Px27DE/UI3UxsI5FPVLyTE5Mg7VfE1IPjWxmD8XPR/bUJ/alrx/ZwN6wp+LXO/ZQ/HxgD/VIyQ6dmAbrdRvZzEqNbGbX6NjASnVsYPJKabBEpBkaLBFphgZLRJqhwRKRZmwxWGf2gQ3MIb3GvmMi8jrdsfE+Q3p9z/7Oip3YwtY4s4D/1bGBOaTX2HdMRI7ljo33GdLrzJ4K2PFgfUnHBuaQXns8/kt5IrJvd2y8z5BeZ3aNgMYG6/cMrEd6jfXQkInU9CubkAYpNjPDOgEHGazfM7Ae6TXWQ0MmsqWnwzQhvT6HgIMP1u8ZWI/02rGB9dDPyES+5I5NSEM0s5FNSK8vKeCVDtbX9HjcwDo2sDdM5Ihu2cxGNrORTUjtRYAGK5tD4pD0SEU3TGRvblk0IRUZEkM7AjRYz6JHKnJIeqSiGyay1i2LJqQiQzIhdSQBGqzqBtaxaGAdi3qkovi1t0yOK/7wembRhFQUvzayC8PrFaDBapLDZx0b2EPx845dxI81eM/rjk14zPDYhNSFQXIEaLBerR6ppwbWsS+JXx/Y19ywPbljE37fhNTvMXyZQV5agAZLRBoRoMESkUYEaLBEpBEBGiwRaUSABktEGhFwwMG6YR3rkf7+yicWX0XkeQ3sDYuvM5vw+S+3biHgIIPVsb+x96xjXzKzkc1sZDMbmQZN5DoDe8Pia8cG1rGBdez3fATwA5vZGgEHGKyB/cI6tsbMRjazkU1I3bEJIsfXI/0/lvRIDaxjA+vYGjP7K/uZlQpofLAG9gvr2HOb8OXu2ASR/evxeJB6PO4leGYoE9D4YP3GeuzDzEYWTUhF8Wszi26ZyNZuWNSxgUU9UlH8Wsf2YGZ/ZPE1V0DDg/We/YO1aGYjiyakovi1mUW3TF6vGxZ1bGBRj1QUv9axFp1ZQL6Ahgfr32xgRzezkUUTUhcTUg/9ymYm9fVIfwR7aGAduxhYxyKH12FC+l1WroCGB2vtf+9rMbORPRQ/n9lDhsfu2ITX6YY91LGBPRQ/79hDDnKtP7IJeQIaHawe6edXsi8zG9ledGxgsj+eGfIENDpYDunfDopImzwz5AnQYIlIBZ4Z8gRosESkAs8MeQI0WCJSgWeGPAEaLBGpwDNDngANlohU4JkhT4AGS0Qq8MyQJ0CDJSIVeGbIE6DBEpEKPDPkCdBgiUgFnhnyBGiwRKQCzwx5AjRYIlKBZ4Y8ARosEanAM0OeAA2WiFTgmSFPgAZLRCrwzJAnQIMlIhV4ZsgToMESkQo8M+QJ0GCJSAWeGfIEaLBEpALPDHkCNFgiUoFnhjwBGiwRqcAzQ54ADZaIVOCZIU+ABktEKvDMkCdAgyUiFXhmyBOgwRKRCjwz5AnQYIlIBZ4Z8gRosESkAs8MeQI0WEU8M+RxqHvmLZXcf+8Wdq093n9gPdL77Hv2Hdszzwx5AjRYRTwz5HGoe+Ytldx/7xZ2rRbu7wC8Z39me1TyDAM0WEU8M+RxqHvmLZXcf+8Wdq2W7u8AfGBv2Z6UPMMADVYRzwx5HOqeeUsl99+7hV2rxfvH0fob24uSZxigwSrimSGPQ90zb6nk/nu3sGu1ev93AH5ke1DyDAM0WEU8M+RxqHvmLZXcf+8Wdq2W7/8O+xitkmcYoMEq4pkhj0PdM2+p5P57t7BrtX7/9+wfrKaSZxigwSrimSGPQ90zb6nk/nu3sGsd4f4/sz+zWkqeYYAGq4hnhjwOdc+8pZL7793CrnWE+3dsAvCG1VDyDAM0WEU8M+RxqHvmLZXcf+8Wdq2j3P8d6v08q+QZBmiwinhmyONQ98xbKrn/3i3sWke6/4Q6fyu+5BkGaLCKeGbI41D3zFsquf/eLexaR7r/O9T5XVbJMwzQYBXxzJDHoe6Zt1Ry/71b2LWOdv+ZvfTPskqeYYAGq4hnhjwOdc+8pZL7Rw7HeAal99+rjwD+wl5SyTMM0GAV8cyQx6HumbdUcv/I4RjPoPT+BuCGrTUBGNnP7Ce21vfsX+wleWbIE6DBKuKZIY9D3TNvqeT+kcMxnkHp/Q3bDNZDE4D/YyMr1QP4jb0kzwx5AjRYRTwz5HGoe+Ytldw/cjjGMyi9v2H7wYpmFs80slIze8NeSjyvIU+ABquIZ4Y8DnXPvKWS+0cOx3gGpfc3PM9gRROAP7E4PCUMz3e2Lyl5hgEarCKeGfI41D3zlkruHzkc4xmU3t/wvKNwZgFlDM97tqc8M+QJ0GAV8cyQx6HumbdUcv/I4RjPoPT+hucdhfi7qz+wEh/xsv+msOQZBmiwinhmyONQ98xbKrl/5HCMZ1B6f8PzDlb0JzayXAErxyBTyTMMWHnGE1vYGmcWkMeh7hvfM0Meh7pn3lLJ/SOHYzyD0vsbnn+w/so+Il/AyjHI5JkhT8DKM57YwtY4s4A8DnXf+J4Z8jjUPfOWSu4fORzjGZTe3/D8g3VmAfkCVo5BJs8MeQJWnvHEFrbGmQXkcaj7xvfMkMeh7pm3VHL/yOEYz6D0/gYN1oVnhjwBK894Ygtb48wC8jjUfeN7ZsjjUPfMWyq5f+RwjGdQen+DBuvCM0OegJVnPLGFrXFmAXkc6r7xPTPkcah75i2V3D9yOMYzKL2/QYN14ZkhT8DKM57YwtY4s4A8DnXf+J4Z8jjUPfOWSu4fORzjGZTe36DBuvDMkCdg5RlPbGFrnFlAHoe6b3zPDHkc6p55SyX3jxyO8QxK72/QYF14ZsgTsPKMJ7awNc4sII9D3Te+Z4Y8DnXPvKWS+0cOx3gGpfc3aLAuPDPkCVh5xhNb2BpnFpDHoe4b3zNDHoe6Z95Syf0jh2M8g9L7GzRYF54Z8gSsPOOJLWyNMwvI41D3je+ZIY9D3TNvqeT+kcMxnkHp/Q0arAvPDHkCVp7xxBa2xpkF5HGo+8b3zJDHoe6Zt1Ry/2hgH9ge3bBrld7fkPffU+LMAvIFrByDTJ4Z8gSsPOOJLWyNMwvI41D3m98zQx6HumfeUsn9925h1yq9v0GDdeGZIU/AyjOe2MLWOLOAPA51v/k9M+RxqHvmLZXcf+8Wdq3S+xs0WBeeGfIErDzjiS1sjTMLyONQ95vfM0Meh7pn3lLJ/fduYdcqvb9Bg3XhmSFPwMozntjC1jizgDwOdb/5PTPkcah75i2V3H/vFnat0vsbNFgXnhnyBKw844ktbI0zC8jjUPeb3zNDHoe6Z95Syf33bmHXKr2/QYN14ZkhT8DKM57YwtY4s4A8DnW/+T0z5HGoe+Ytldx/7xZ2rdL7GzRYF54Z8gSsPOOJLWyNMwvI41D3m98zQx6HumfeUsn9925h1yq9v0GDdeGZIU/AyjOe2MLWOLOAPA51v/k9M+RxqHvmLZXcf+8Wdq3S+xs0WBeeGfIErDzjiS1sjTMLyONQ95vfM0Meh7pn3lLJ/fduYdcqvb9Bg3XhmSFPwMozntjC1jizgDwOdb/5PTPkcah75i2V3H/vFnat0vsbNFgXnhnyBKw844ktbI0zC8jjUPeb3zNDHoe6Z95Syf33bmHXKr2/QYN14ZkhT8DKM57YwtY4s4A8DnW/+T0z5HGoe+Ytldx/7xZ2rdL7GzRYF54Z8gSsPOOJLWyNMwvI41D3m98zQx6HumfeUsn9o469ZXtkuF7p/Q0arAvPDHkCVp7xxBa2xpkF5HGo+83vmSGPQ90zb6nk/pHDMZ5B6f0NGqwLzwx5Alae8cQWtsaZBeRxqPvG98yQx6HumbdUcv/I4RjPoPT+Bg3WhWeGPAErz3hiC1vjzALyONR943tmyONQ98xbKrl/5HCMZ1B6f4MG68IzQ56AlWc8sYWtcWYBeRzqvvE9M+RxqHvmLZXcP3I4xjMovb9Bg3XhmSFPwMozntjC1jizgDwOdd/4nhnyONQ985ZK7h85HOMZlN7foMG68MyQJ2DlGU9sYWucWUAeh7pvfM8MeRzqnnlLJfePHI7xDErvb9BgXXhmyBOw8owntrA1ziwgj0PdN75nhjwOdc+8pZL7Rw7HeAal9zdosC48M+QJWHnGE1vYGmcWkMeh7hvfM0Meh7pn3lLJ/SOHYzyD0vsbNFgXnhnyBKw844ktbI0zC8jjUPeN75khj0PdM2+p5P6RwzGeQen9DRqsC88MeQJWnvHEFrbGmQXkcaj7xvfMkMeh7pm3VHL/yOEYz6D0/gYN1oVnhjwBK894Ygtb48wC8jjUfeN7ZsjjUPfMWyq5f+RwjGdQen/D8w9W6dkCVo5BppJzBqw844ktbI0zC8jjUPeN75khj0PdM2+p5P6RwzGeQen9Dc8/WH9gM8sVsHIMMpU8w4CVZzyxha1xZgF5HOq+8T0z5HGoe+Ytldw/cjjGMyi9v+F5B+uWOZQxPO/ZnvLMkCdAg1XEM0Meh7pn3lLJ/SOHYzyD0vsbnncUSs8VGZ73bE+VnDVAg1XEM0Meh7pn3lLJ/SOHYzyD0vsbnm8U/snes1L/ZgN7KSXPMECDVcQzQx6HumfeUsn9I4djPIPS+xueZ7B+Yu+wzsJekmeGPAEarCKeGfI41D3zlkruHzkc4xmU3t+w7WDdsQDgI9ZxePl/Lp4Z8gRosIp4ZsjjUPfMWyq5f+RwjGdQev93AHqsNwEY79vCe/YP9pI8M+QJ0GAV8cyQZ2Af2N4N7A37mpL7R/E/+wPboxt2rdL779W/2cBeUskzDNBgFfHMcEyGb3/zHvH+C7vWke7fA/iNvTTPDHkCNFhFPDMck0GD9S1Huv9HAH9hL63kGQZosIp4ZjgmgwbrW45y/x7pj4Mde2meGfIEaLCKeGY4JoMG61uOcv+PqPO7q6jkGQZosIp4ZjgmgwbrW45wf4f2vocCNFhFPDMck0GD9S2t3z/+ETD+UbBHPZ4Z8gRosIp4ZjgmgwbrW1q+fxyrX9jAaip5hgEarCKeGY7JoMH6lpbv/wtzqK/kGQZosIp4ZjgmgwbrW1q8f8d+YQPbg5JnGKDBKuKZ4ZgMGqxvae3+DsCPrMd+eGbIE6DBKuKZ4ZgMGqxvaeX+PdI3+Dvsj2eGPAHpPsVObGFrnFlAHgcN1nMxaLC+Ze/3/zN7B+B7tlclzzBAg1XkI9L/Yv6I3gHo8XUfcbz7B1zvI/Z3/44NzKENnhnyBGiwRKQCzwx5AjRYIlKBZ4Y8ARosEanAM0OeAA2WiFTgmSFPgAZLRCrwzJAnQIMlIhV4ZsgToMESkQo8M+QJ0GCJSAWeGfIEaLBEpALPDHkCNFgiUoFnhjwBGiwRqcAzQ54ADZaIVOCZIU+ABktEKvDMkCdAgyUiFXhmyBOgwRKRCjwz5AnQYIlIBZ4Z8gRosESkAs8MeQI0WCJSgWeGPAEaLBGpwDNDngANlohU4JkhT4AGS0Qq8MyQJ0CDJSIVeGbIE6DBEpEKPDPkCdBgiUgFnhnyBGiwRKQCzwx5AjRYIlKBZ4Y8ARosEanAM0OeAA2WiFTgmSFPQKOD1QP4jck+fGIjyzUhlaNHKtfA3jDZB88MeQIaHaxo7X/va3HLHprZyB6Kn8/sIcPr5vBYxwb2UPy8Yw/dMPm2E8sV0PBgjewtO7pf2cyikc3swvDYhJTsR4/UQwPr2IVDEr/2Wt7TA8sV0PBgvQPwI2tR/Ac2s8iQxM9HFk1IyevVIxUNrGORQxI/b3XcfmAfWK6AhgcrGtle/qH9ymYWGZL4+ciiCSmRrfVIRQPrWOSQxM/38n1yxwY2s1wBjQ/WwAwv88PUyyCNbGYjm9nIZibSAoc0YAPr2MA69pY9t0/MIX3PlAhofLCigf3MvmNr3LEJ6WHObGQzG9nMRI6uYwPr2MA6NrCOrR20tWMVBRxgsKKOvb/vDfuSOzbh9xORr+vYwHr8b9+xL4lD9eG+ma0RcJDBemhgHbuYkBKR59UjdTGzkW0l4ICDJSLHFKDBEpFGBGiwRKQRARosEWlEgAZLRBoRoMF6lW7YUz1SXzKwjn2Nw74Zvs3wZRNST90yeTkBGqzm3LCLOCIDu+jYwB5ykJdkeGxkM7sY2cwubplcJ0CDVdXALn/RNX7csWhgHYt6pOT4JqSimY0smtnIovgXMS8fvzYBGqxnccOigXUsckji5wMTWWtCKjIkMxtZdMuOJECDle2GRQPr2MC6+wYmsjcTUjMbWWRIblkrAjRY/+OGRQ6JQ+IgclyGJA7azAzJLduLgFc6WDesYwPrkYofd0xEHpvZyGY23jezW/aSAg48WD3S/4LcIQ3RcF/HRGQbMxvZhJTh8/8zytYCDjBYPT4PU4+Ug4jUZkjDNSF9fMcmlAtobLAG9pbF10sdE5E2zGx80K8svl4jYMeDdcOG+3rod00iRzY+6ZY9FbCTwfqIxwPlICKvnSGNV+yWvcMOBktE5EVosESkGRosEWmGBktEmqHBEpFmaLD2645NeCz+25aZPWSQa3RsYA91bGAPdSz+XUHZoRPTYD2fT2xkF4bPJqQuDLJXA+tYFF8HdhE/7lgUXzV2z0iDle9XNt83smhCKopfm5nIwLr7Bhb1SEXxa2+YXOnENFjJZYgmpOLHI4smpESei0PSI9WxgUU3TOjEFnZ0n9jIIkNiSOLXZyaydwPrWI/Hxa+9ZYd3YkcZrF/ZzAyJIX0+MpHXoGMD69jAeqTix29Y805sZq1cJo7ShDRCEx4nIl83sI45pNfhvla+/z/FwTLs78/Id2xCOtuElEFEnkPHhvt6pNfY3obs9sRf3rN/sFpu2XjfBA2TyF50bGAOn4fsLavlhxN/6diEl1nTWzY+SUTa4pDG69Jb9tw+sf7EX6Lv2b/Ylm7Z+CQROSaHNF6X3rIt/cA+nPjLxTsAP7JSt8zwORF5vTrmkMbLYd3PyX9i70An9tD37CO+/cfDT8zwuZGJiHyNw+cGds3OBPB3Vuw/ng5W1LHv7+uRfmt3yyZ8HqeYiMgaA3NIxY+/Y3GkRvYz+4j0167+68RERJqgwRKRZmiwRKQZGiwRaYYGS0SaocESkWZosESkGRosEWmGBktEmqHBEpFmaLBEpBkaLBFphgZLRJqhwRKRZmiwRKQZGiwRaYYGS0SaocESkWZosESkGRosEWmGBktEmqHBEpFmaLBEpBkaLBFphgZLRJqhwRKRZmiwRKQZGiwRaYYGS0SaocESkWZosESkGRosEWmGBktEmqHBEpFmaLBEpBkaLBFphgZLRJqhwRKRZvw/tft/phtjChgAAAAASUVORK5CYII=;" parent="1" vertex="1">
          <mxGeometry x="-820" y="275.5" width="90" height="90" as="geometry" />
        </mxCell>
        <mxCell id="749JlQ45wNmBAUl5USfy-66" style="edgeStyle=orthogonalEdgeStyle;shape=connector;rounded=0;orthogonalLoop=1;jettySize=auto;html=1;exitX=1;exitY=0.5;exitDx=0;exitDy=0;entryX=0;entryY=0.75;entryDx=0;entryDy=0;labelBackgroundColor=default;strokeColor=#0000CC;align=center;verticalAlign=middle;fontFamily=Helvetica;fontSize=11;fontColor=default;endArrow=none;endFill=0;strokeWidth=2;" parent="1" source="749JlQ45wNmBAUl5USfy-60" target="_-Z4865ZqMRXmuTOCmLD-2" edge="1">
          <mxGeometry relative="1" as="geometry">
            <Array as="points">
              <mxPoint x="-1620" y="1019" />
              <mxPoint x="-1620" y="507" />
            </Array>
          </mxGeometry>
        </mxCell>
        <mxCell id="749JlQ45wNmBAUl5USfy-71" style="edgeStyle=orthogonalEdgeStyle;shape=connector;rounded=0;orthogonalLoop=1;jettySize=auto;html=1;exitX=1;exitY=0.5;exitDx=0;exitDy=0;labelBackgroundColor=default;strokeColor=#0000CC;align=center;verticalAlign=middle;fontFamily=Helvetica;fontSize=11;fontColor=default;endArrow=none;endFill=0;strokeWidth=2;entryX=0.038;entryY=0.5;entryDx=0;entryDy=0;entryPerimeter=0;" parent="1" source="749JlQ45wNmBAUl5USfy-60" target="bHxsROqGJ9d036n8B6Q5-19" edge="1">
          <mxGeometry relative="1" as="geometry">
            <mxPoint x="-1420" y="1019" as="targetPoint" />
          </mxGeometry>
        </mxCell>
        <mxCell id="749JlQ45wNmBAUl5USfy-72" value="6类网线" style="edgeLabel;html=1;align=center;verticalAlign=middle;resizable=0;points=[];fontSize=11;fontFamily=Helvetica;fontColor=default;" parent="749JlQ45wNmBAUl5USfy-71" vertex="1" connectable="0">
          <mxGeometry x="-0.7636" relative="1" as="geometry">
            <mxPoint x="106" y="-11" as="offset" />
          </mxGeometry>
        </mxCell>
        <mxCell id="h75pCEdkkC_XDxHb6yKX-114" style="edgeStyle=orthogonalEdgeStyle;shape=connector;rounded=0;orthogonalLoop=1;jettySize=auto;html=1;exitX=1;exitY=0.5;exitDx=0;exitDy=0;entryX=0;entryY=0.75;entryDx=0;entryDy=0;labelBackgroundColor=default;strokeColor=#0000CC;strokeWidth=2;align=center;verticalAlign=middle;fontFamily=Helvetica;fontSize=11;fontColor=default;endArrow=none;endFill=0;" parent="1" source="749JlQ45wNmBAUl5USfy-60" target="h75pCEdkkC_XDxHb6yKX-110" edge="1">
          <mxGeometry relative="1" as="geometry">
            <Array as="points">
              <mxPoint x="-1620" y="1019" />
              <mxPoint x="-1620" y="341" />
            </Array>
          </mxGeometry>
        </mxCell>
        <mxCell id="749JlQ45wNmBAUl5USfy-60" value="核心交换机" style="shape=image;verticalLabelPosition=bottom;labelBackgroundColor=default;verticalAlign=top;aspect=fixed;imageAspect=0;image=data:image/png,iVBORw0KGgoAAAANSUhEUgAAASwAAAEsCAYAAAB5fY51AAAZJUlEQVR4nO3dv24bWX+H8UPt27xAANPpggQwDaQKEJi+AtNtAK9opEhp7RVYrpImsZwLiLk3kFfuUgQwvZvUHl+B6QCpEsA0ErxIkcB0E6TY1eQ5luR3Vqao0fzh8JDPBzg4h7J2OPObOV+eoShtL0hSIgwsSckwsCQlw8CSlAwDS1IyDCxJyTCwJCXDwJKUDANLUjIMLEnJMLAkJcPAkpQMA0tSMgwsSckwsCQlw8CSlAwDS1IyDCxJyTCwJCXDwJKUDANLUjIMLEnJMLAkJcPAkpQMA0tSMgwsSckwsCQlw8CSlAwDS1IyDCxJyTCwJCXDwJKUDANLUjIMLEnJMLAkJcPAkpQMA0tSMgwsSckwsCQlw8CSlAwDS1IyDCxJyTCwJCXDwJKUDANLUjIMLEnJMLAkJcPAkpQMA0tSMgwsSckwsCQlw8CSlAwDS1IyDCxJyTCwJCXDwJKUDANLUjIMLEnJMLAkJcPAkpQMA0tSMgwsSckwsCQlw8CSlAwDS1IyDCxJyTCwJCXDwJKUDANLUjIMLEnJMLAkJcPAkpQMA0tSMgwsScnY6sAaj8f9n3/++Q7D0Ov1hnR9mq6J2g1OTk4GQa2j1jO6Be06Fnmez+jDN9988246nS4YbqUebasQUnFyPYpDTuKQXtopZ6E33dvbe0F4zcMW2ZrAikHFaup5HNIknZqy6nqyLcG1FYH17bffPmc1dchQ0hKsuiasuJ4RXAseJivpwIqrKm7/XhJWQx5KWoHQmhFaDwmteUhUsoFFWA25BXzNsE+TVM6CW8T7hNaMcXKSDCzDSqol2dBKMrB4z+qtt4FSdfH28IcffrjLMCnJBRZhNSGsHjOUVAOh9T2hdcgwGUkFFreC8aML7xlKagC3hre5NZyHRCQVWA8ePPgHur+gSWpAaquspAKL28GfuR3cYyipGYsff/zxJn0Skgms/f39JycnJ3/HUFKDuC2Mn82aMtx4yQQWq6t/ZXX1JwwlNesVq6wx/cZLIrB4s73Pm+0fGUpqAausmyyyFgw3WhKBxZvtf0P3jCapHd+xyjoOG65H23jcDv4Ht4N/xFBSC/hpYRIfJN34wOJ20M9eSWvAbeHGfyZr4wOL1dXfsrr6a4aSWsQq6xmrrKOwwTY+sHj/6j/p/pAmqUUE1pzAus1wY/VoG4vbwSG3g28ZSloDbgvvcls4Y7iRNjqwWF39Pd13tG3yjleyKX3RgNveQTh1j6bN8Ib2eeURQphzjuKfZZnxIjrga0Mej/n6LdrW4Lg2+ld1erSNRWD9D93v07ZF6Q/osbochBAGAScnJ6MAJsiQrn/W7tBUzQfaPIAJmgXs7e3N6BaxTUuuMDhHfcLrI8NtstG/qtOjbSQuhjEXw0uG2yS+QsefxCwYN4IyDen6sRFsQ/pisN2j7RQC6BPHP6OfB0KJcaz5jHE0mzZYe34gdMT2nzLcKtTrIXWaMtw4GxtY+/v7/8gE/HOG2ybjFew+fesIs/iRkCxs2W3LZQipF9zOHIQ1oLZDavuW4dZZZx2vq0fbOFwMfS6G3zL8NW0bPSG0JvStoo4jQv83+e/eH9t2GauD71gczEOLqGtczb7OT1eyW4k63qSOC4YbZSMDi/euDkIIv6FtLS6Iu1wQM4atoIaHdM9pO6ft2nIrOCGsHjPcZhv5qzqbGlj/TPdntK3Fsjv+L5fuM7EWPGwcq4Ahq4BDJtYjHu6KDz1+Aktdj1qs64jV/2uG225tb11cR4+2UbggBlwQ7xluPSZX6z9Cpp7x9nrM8JB2h7aNXrGqOiakpoxbc1bLeG32aVuPmt6mpPOwQTYusFhdHdI9p+0ELoqHXBRThq1jwg3OVl1jHt6ipewd7Zj6xaBaMG4d1+ZLujFtV6zlvdbr2LjA4v2Bf2FC/SnDXRF/7H6XSTcPa0R4jQmvMbV+xMMksCL9RHfMLV8MqRnjtSGsDsKWv696EfXeuL/gsFGBxRzamdvBonhhMAkfMgnnoSDWg1C5x3AQCDbCZcYr3hvGjeE54m3OmOEh7Q5tE7VyyxePnfruMxyEUwvOwxueZsb4C8Iqfs9x2JFbwSLqfvdiPbrUo20MVlcTJuVjhjuJ4Jpz/PNwakjr034hfk8IYcrE+p4LaR4axASOAXnIPox5eIvWpQ+0CROGw2z2OM8C6CBwyLRlFrQZLRqFHcb11vr7rNfRo20MAut9vjufGaqNi2lGNyG8XjGpF4wbQ3iNCa8x5+MRD6/Evnz+hDnDr/BvQ/7tBsOV+L5PdFOOZzJt+FWdwxlyPI/yPD8IS14ItBznZKP+gkOPthG4oEbcmrxmqGqOA5OdW8ZX9I3hvMTJPWKyD+k/I1CycGpOsMzDNbC9QQhhEAiNi9tkW1loEM8Vn+MRwwOC6stz6XpY5T7k3EwZdq5H2wisro65qOLFpRriK2IguAiA77nG5mEHnd3yjWkHQbVxTW3Mr+psTGBxkX2k69PUEC60Gd2E8HpFeC0Yby1WUwNWU4/jkBe+QVCTFqyybm/CNbQRgUVYHYQd+5FxB44DK6+mbxm7REjFW759hoeE1JBe7dmIX9XZlMCa0sULTy1j1TUPhBerru834RWzCoJqwPudT+OQ1qepfa8IrDF9pzoPLC6++Dmgjwy1Xk+4ACf0tXEOh5zDW4ThkIdfYfUz45biAwE542FtvN85YZuPGWqNOIe3OYfz0KHOA4vV1UHwdnDd3nHxjbj4FowrIaSqrHIWtCnP/YznnoeKeO4+z52Fzf2g67Zq7EWuqs4Di1fLt7xaDhlqTQiMuwTGjGElnLPnnLNDhpWxGjviJ0/PGFZCaA0JrbcMtSacs85/VadH6wwXXXyVfs9Q6/OBV8lBqKjhFfF37MtxqIh9mYfuP5G/U3ixu82L3Tx0pNPA4pX6iFfqpwy1Pm8IiVGoiHPW2PtHvGLX+rUPAisLO/h367tU95zV1XVgvc/9zMzaEViVzzur4sZuxXi1rnVrSmDldFojAmtOYN1m2IkerRNNXvi6tlpvnp6du/jf36NV8YGwGk/rhdUh3XOa1oxzd59zl4UOdBZYrK6OWV09YqgONHHRxeA6OTk54DyOwtU/sYv/A9nZ3t4eT1vv99J43hGB+ZqhOsB57OxXdToLLF4hP9L1aerGK1ZZY/rGECSDEMIg/NJiWmMltQwvdo29j6ZKFlw7N+nXrkdbOy7sMa+QLxlq/V7RplxwxyFhXEJxdXcYh4TXDXqt13ddXEOdBBarqyndPk3r8YE24TaQxU53P5JuC9fTQSC4aF5T69P4Cr2MHm2teGXss7r6yFAt4n2GT3RT3jOaTBu+JdtUXFsDrq0xw0PaLZpaxAvgTa6tBcO1WXtgnb0a/oamdryhHXMxcS2t92LaJITXiFvGg8DQW8bWrP22sEdbKwLrNd0oqEkfer1e/AsMx4TUPDSI87VPN2b7Iyb+IJyKQTijxZVc7Be0z/ieGd2C9hn/PgoF/PuQrs/X+2fjcxlfiyvCFxzDgseNILjiin7M8CBU/xiGluB8rf1XddYaWFw8ccn+nqFq4mL5RBcneAypLDQonidWJ48YHhAqg7B+x4Fj49X7FX1jzo4rHtNB8JaxEazkb3P9zcOarDWweLU+pHtO0wUxgJhIGf2Mh9GAx6Pw9cR6Rzt/A33BuDHffvvto/x0Mo/CBqAW80BwEcrfc6zz0CDCaxTDKzDkmG/Qn/vQ6/WyEMI8nOrz76Nw9efMdhK1esYq6yisyVoDiwnxPu/mFXvTXfrnXphYgxDCIJyaTZd8Tx1sf8iq93Ec0vq0jcTEmNFNCK9XLdRgEE5rPJtesm2u3WOu3UcMVcB5Weuv6vRoa8FFESfGW4Yq4IR/YhLGsJrxcC04F31WF3HyHTAJh/QpWdCmBPwLapaFNeIOYUZ3h6YCzsVdzkWsTevWFli8Qk2YHI8Z6pee8F7NhL51TLh9uoNAZtGSR9jPA+93EfgxvOahZQT9kKDPuI5v8FBnOA8vWGUdhDVYW2AxWT7S9Wn6nVeE1Zi+NUyyAZPscRwy0QZhe02ZOFMmzgvGreE6Pgh+LOeiBdfxTfrW9WitY9KMuR18yVBnmFzxVnDAymDBw8ZR8v5ZzUdht8R6PmECHYeWEFpTun2aznBb+JBrOdalVWsJLG4Hj3l1f8RQZzjB9zm/WWjJWWDFC+gebWfEFwKutcM2A+ustjOGt2g69Yqaj+lb1XpgnZ3c9wz7NIFJtba/2shqID7Pc9ouiH9na8QLwTy0jOt6xHX9mqHOUPub1H7BsDWtBxYT5iB4z1/0jleiIX3rmFRDJtXTOKTtBF4MDrnVftH2xIm4czhiNRfrq1Ot/6rOOgJrSrdPE3gVustkmjGshbreo4sTdBBCGAQweUYB8WuMB0FZODWnJvMA6pIFcB4+cB7moSbOQzyXd2ii3gTWffrW9Git4RV+wCv8e4Y6tWCiPGSiZOES1Cyuim4w7DPJhvRxksU+Pu6fjdWsLID6zugWsVHnGX0MtnecrwXDr3Cu+pyrlwxHQZ9Rr9vUax5a0mpg8epzSPecpgImxpwJMQ9neNzn8ZChNteCNqMVjYIuesIqa0LfilYDi3v8t05EaXfw4tvqr+r0aK1guTxkufyWoaQdwm3hXW4LZwwb11pgsbqasLp6zFDSDmGV1drHdtoMrPe5P6mSdtGC97Fa+VWdVgKL28Ext4MvGUraQdwWPuS2cMqwUa0EFqurY1ZXjxhK2kHcFrbyFxxaCawH/mUGadfFzxzGz2QtGDem8cAirA6Cv4ojqYVf1WkjsKZ0+zRJu+0VgTWmb0wbgfWRrk+TtOMIrEYzptGN8cPBIT8dfMtQkuJPC+/zPlYWGlI7sAipESH1lOELdm7O+DVjSfocWHQLcuE54yeE14zHlfVotXx79ol2foz5/d7e3pQdM7AkfUZI3e/1er/3008//firX/3qwcuXL/+JL1dWO7B4zyoG1CiEkLFzDwmsj4wlKZAJN1nQ/NXJyclfMo4rrAlfrqx2YLHC+i079Aek6Off0ibAZnz5Dk3SbvvAm+4DMuLzB8k3JbA+sjN9hv/Hzv2awDoIfg5L0tnnsMiIfyMj/nhTAut/2ZlfM4w+7yChNWW8T5O0m96QBSN+KDfgbaL3PI63h90HFuGU0312flvITvbZySx4ayjtoneEU/y/Fy3Ih9c8HgXwtc0KrDPHJOt39HH1dRRCOGQFdoNe0hZjwfKJbsKi5SiAbDgIhbeHOg+ss5XUR4a/wI7HnX7C8Px7xnFIG9Ju0SRtAeb6JxYkWQhhSiBlBNI84GJYRfx754E1IoxeM1wmHkDcwXmQtBPIhP7JycnTPM8PefgLZ3kwYVhZm4F17jjQuE18Qy9pC5EFQ4Jq/yyo+rSvEFi1f02nR6uMnSwTWEX/RftvlpE/cWALxpLSNwoldB5Y8U11gucpQ0laycCSlAwDS1IyDCxJyTCwJCVjEwJrQmA9ZihJK3UeWA8ePMhCCPdokrSSgSUpGQaWpGSkHFjxz08c0l/bzz//PKR7Tvui1+u92NvbOw4VnJycHPA+3COGRU/Yvxn9tbF/E7o7tC/Y1n26Stjea7qid2zvkP7a2NaQ7jntiy2v3Uu6Pq1TdWrMMQzpntO+qFmTCd0d2mdN79sqcb9TDazPf9wrVLDs14Eo+rMfzv6kxXXxg4MjJt1Thl/UKeyymnCslevM9nK6ImtXEtvL6TpXp8bLzlnNmmShUOOm922VOtfGucoHHl08+Gtw0pXE9nK6ImtXEtvL6TpXp8bLzlnNmmShUOOm922VOtfGucoHHl08+Gtw0pXE9nK6ImtXEtvL6TpXp8bLzlnNmmShUOOm922VOtfGucoHHl08+Gtw0pXE9nK6ImtXEtvL6TpXp8bLzlnNmmShUOOm922VOtfGucoHHnHBvs/zfBCuz0lXEtvL6YqsXUlsL6frXJ0aLztnNWuShUKNm963VepcG+cqH3jEwed0VTjpSmJ7OV2RtSuJ7eV0natT42XnrGZNslCocdP7tkqda+Nc5QOPOPicrgonXUlsL6crsnYlsb2crnN1arzsnNWsSRYKNW5631apc22cq3zgEQef01XhpCuJ7eV0RdauJLaX03WuTo2XnbOaNclCocZN79sqda6Nc5UPPOLgc7oqnHQlsb2crsjalcT2crrO1anxsnNWsyZZKNS46X1bpc5znat84BEHn9PVUvYgyj5XmQlznUKXuTiWTdxLlAobjjULhYvqMjtWu1Lb41izUKJ2XSlzzpqucdmaNL1vF5XZ/lWuPNhVKEROV0vZgyj7XBs+6QysC65Ru1Lb41izUKJ2XSlzzpqucdmaNL1vF5XZ/lWuPNhVKEROV0vZgyj7XBs+6QysC65Ru1Lb41izUKJ2XSlzzpqucdmaNL1vF5XZ/lWuPNhVKEROV0vZgyj7XBs+6QysC65Ru1Lb41izUKJ2XSlzzpqucdmaNL1vF5XZ/lWuPNhVKEROV9dxOG1XyUIJFOWQCTBjeCm+Z8j3TBiWMQpXOwinbSWed8bzHjJcie+b8H1Dhlc5DqftKlkogec95HlnDC/F9wz5ngnDMkbhagfhtJUxCldg/ybs35DhpjoOp+1SHMOQY5gwLGMUrsD2JmxvyPAqx+G0XYptDdnWhOG18d9uRWBJ2gEGlqRkGFiSkmFgSUqGgSUpGQaWpGQYWJKSYWBJSoaBJSkZyQYWO/4pv+IT1Sv0aXdoRR9o81DNIIRwi1b0jragXRvHFj8JfINh0RtaVfdoX7B9a1fSJdvrwgfaPFTTp92hFb2hVbKkJh9o81DNsn27FM+dZmCh1O/ULbPsd5nqFGLZ77KV+Z26y1CTLFwIGY61cp3ZXk5XZO1KYns5Xefq1HjZOatZkywUatz0vq1S57nOVT7wiIPP6apw0pXE9nK6ImtXEtvL6TpXp8bLzlnNmmShUOOm922VOs91rvKBRxx8TleFk64ktpfTFVm7ktheTte5OjVeds5q1iQLhRo3vW+r1Hmuc5UPPOLgc7oqnHQlsb2crsjalcT2crrO1anxsnNWsyZZKNS46X1bpc5znat84BEHn9NV4aQrie3ldEXWriS2l9N1rk6Nl52zmjXJQqHGTe/bKnWe61zlA484+JyuCiddSWwvpyuydiWxvZyuc3VqvOyc1axJFgo1bnrfVqnzXOcqH3jEwed0VTjpSmJ7OV2RtSuJ7eV0natT42XnrGZNslCocdP7tgzP8e9cJ39MX/m5zlU+8IiDz+mqcNKVxPZyuiJrVxLby+k6V6fGy85ZzZpkoVDjpvdtGZ5jxnUypK/8XOcqH3jEwed0VTjpSmJ7OV2RtSuJ7eV0natT42XnrGZNslCocdP7tgzPkXZgsePzcPa3o/f29t6UucCZHE/pAgc+CF//DfCMbWYBbO8F25uHFSj04OTk5BHDuL1R+PrvYh+zvXkABX5GtxLbG7G9ewyjA7Y5CAVs6yiAr3/gYjsOV6CuB/w3txjG/+YoFPD1eWD/AjjWNxxrFq6wDbWLymxvVe06lLFPWQA1fkONs7ACNRlQk0cM4zEMAnUJBWzrKJy5bk1wcLbNcxn/lgU0sW/LsP20A6uo7EGUfa4yr/AUvdQrQ0TAXFkjAuGIE/KU4VXesL1RuALHmoXCq+Bldqx2pbbHsWahRO26UuacNV3jsjVpet/OsV0D6zIbPukMrAuuUbtS2+NYs1Cidl0pc86arnHZmjS9b+fYroF1mQ2fdAbWBdeoXantcaxZKFG7rpQ5Z03XuGxNmt63c2zXwLrMhk86A+uCa9Su1PY41iyUqF1XypyzpmtctiZN71vBe9rtXontX+XKg12FQuR0knQlA0tSMgwsSSkp9ZbIKnUDKwsl7o0lCd0GFm+YHvOG6SOGknSVbgOLnxgM+InBe4aSdJVuAyvitvCQ7jlNki7Fm+4veNP9INRQO7AiQmtKt0+TpGXeffPNN6PpdLpgXFkjgcWtYf/k5GTi+1mSlmgkrKJGAuucb8JLuuANYTWeNhBWUaOBFbHaGrPaisF1g4eSdhDvV32im/Ce1VFoUOOBFZFZfULrkOGhwSXtjrOgmu7t7R2xqpqHhrUSWEWE15jwGhNco/D1/9ZcUuJiSDG/s0BQcftHTjVz+7dM64FVRHb16YY0SdthTkDNw5qsNbAkqQ4DS1IyDCxJyTCwJCXDwJKUDANLUjIMLEnJMLAkJcPAkpQMA0tSMgwsSckwsCQlw8CSlAwDS1IyDCxJyTCwJCXDwJKUDANLUjIMLEnJMLAkJcPAkpQMA0tSMgwsSckwsCQlw8CSlAwDS1IyDCxJyTCwJCXDwJKUDANLUjIMLEnJMLAkJcPAkpQMA0tSMgwsSckwsCQlw8CSlAwDS1IyDCxJyTCwJCXDwJKUDANLUjIMLEnJMLAkJcPAkpQMA0tSMgwsSckwsCQlw8CSlAwDS1IyDCxJyTCwJCXDwJKUDANLUjIMLEnJMLAkJcPAkpQMA0tSMgwsSckwsCQlw8CSlAwDS1IyDCxJyTCwJCXDwJKUDANLUjIMLEnJMLAkJcPAkpQMA0tSMgwsSckwsCQlw8CSlAwDS1IyDCxJyfh//tY0HXUSbJoAAAAASUVORK5CYII=;" parent="1" vertex="1">
          <mxGeometry x="-1810.12" y="969" width="100" height="100" as="geometry" />
        </mxCell>
        <mxCell id="749JlQ45wNmBAUl5USfy-76" style="edgeStyle=orthogonalEdgeStyle;shape=connector;rounded=0;orthogonalLoop=1;jettySize=auto;html=1;exitX=0;exitY=0.5;exitDx=0;exitDy=0;entryX=0;entryY=0.5;entryDx=0;entryDy=0;labelBackgroundColor=default;strokeColor=#006633;align=center;verticalAlign=middle;fontFamily=Helvetica;fontSize=11;fontColor=default;endArrow=none;endFill=0;strokeWidth=2;" parent="1" source="749JlQ45wNmBAUl5USfy-73" target="749JlQ45wNmBAUl5USfy-75" edge="1">
          <mxGeometry relative="1" as="geometry">
            <Array as="points">
              <mxPoint x="-1810" y="801" />
              <mxPoint x="-1810" y="912" />
            </Array>
          </mxGeometry>
        </mxCell>
        <mxCell id="h75pCEdkkC_XDxHb6yKX-10" value="485" style="edgeLabel;html=1;align=center;verticalAlign=middle;resizable=0;points=[];fontSize=11;fontFamily=Helvetica;fontColor=default;" parent="749JlQ45wNmBAUl5USfy-76" vertex="1" connectable="0">
          <mxGeometry x="-0.0634" relative="1" as="geometry">
            <mxPoint as="offset" />
          </mxGeometry>
        </mxCell>
        <mxCell id="bHxsROqGJ9d036n8B6Q5-33" value="" style="edgeStyle=orthogonalEdgeStyle;rounded=0;orthogonalLoop=1;jettySize=auto;html=1;fillColor=#e51400;strokeColor=#B20000;endArrow=none;startFill=0;strokeWidth=2;" edge="1" parent="1" source="749JlQ45wNmBAUl5USfy-73">
          <mxGeometry relative="1" as="geometry">
            <mxPoint x="-1540" y="470" as="targetPoint" />
            <Array as="points">
              <mxPoint x="-1590" y="801" />
              <mxPoint x="-1590" y="470" />
              <mxPoint x="-1560" y="470" />
            </Array>
          </mxGeometry>
        </mxCell>
        <mxCell id="749JlQ45wNmBAUl5USfy-73" value="电源时序器" style="shape=image;verticalLabelPosition=bottom;labelBackgroundColor=default;verticalAlign=top;aspect=fixed;imageAspect=0;image=data:image/png,iVBORw0KGgoAAAANSUhEUgAAASwAAAEsCAYAAAB5fY51AAARaElEQVR4nO3dgW0bRx6F8bcVhFfBMRWEriD/VHBKBVEqiFJBhhXEruDkCuJUEE4FoSuIXMHJFfDeYEHQkknuktrleujvB3wQDicpO9jBi23YTiMAqASDBaAaDBaAajBYAKrBYAGoBoMFoBoMFoBqMFgAqsFgAagGgwWgGgwWgGowWACqwWABqAaDBaAaDBaAajBYAKrBYAGoBoMFoBoMFoBqMFgAqsFgAagGgwWgGgwWgGowWACqwWABqAaDBaAaDBaAajBYAKrBYAGoBoMFoBoMFoBqMFgAqsFgAagGgwWgGgwWgGowWACqwWABqAaDBaAaDBaAajBYAKrBYAGoBoMFoBoMFoBqMFgAqsFgAagGgwWgGgwWgGowWACqwWABqAaDBaAaDBaAajBYAKrBYAGoBoMFoBoMFoBqMFgAqsFgAagGgwWgGgwWgGowWACqwWABqAaDBaAaDBaAajBYAKrBYAGoBoMFoBoMFoBqMFgAqsFgAagGgwWgGgwWgGowWACqwWABqAaDBaAaDBaAajBYAKrBYAGoBoMFoBoMFoBqMFgAqsFgAagGgwWgGgwWgGowWACqwWABqAaDBaAaDBaAajBYAKrBYAGoBoMFoBoMFoBqMFgAqsFgAajGscFauG8cAFzSR7d2nzk2WCtJ3zsAuKTsQns07pCVGCwAl5ddaI/GHbISgwXg8rIL7dG4QxZuJX4dC8DllF+/Cp3xa1jFwq3EaAEY39GxKroGq1i4lRgtAOPpHKuiz2AVSdJvbp8P7lbtqM0l3blfHICv2xuXJD26G/fa/dvtk12oQ+P6SDo8WN+6Bz31zv3HAfg6vXW3emrh/nb7ZBfq0Lg+kvYP1p/uxj0Xkv5yAL5Or9zaPbfS/t99kF2oQ+P6SGKwAPT3yq3dcytNOFiP7ltXPn4qaf/nA/g6LF3SUzP3jysfn8su1KFxfSQdHqB37mf36Iob94cD8PV6dGUX3rli5souhPbLLtShcX0kHR6s4tGt3cLNHAAUa1cs3DHZhTo0ro+k44MFAC+RXahD4/pIYrAAjCe7UIfG9ZHEYAEYT3ahDo3rI4nBAjCe7EIdGtdHEoMFYDzZhTo0ro+kL2Ow/nRrN6aZ+8WN6VrO8d69c2O7c9+4sfzp1m5MM/eLG1PN58gu1KFxfSRNP1hv3a0u41bSf90YruUc712o/S0tY1u4lcYZrWt5H7WfI7tQh8b1kTTtYL11t7qsWw3/Uq7lHJccq62FW2nY0bqW93EN58gu1KFxfSRNN1jZhaZx5353Q/jT3bgp3Gq4y/XBLdyju7SF+9sNIbvQNO7c724I13Kver2PxvWR9HUOVmi4P8S9dEnT2bghZBeazjWcI8S9ei67UIfG9ZFU32DN3N9urvbPNN3rdKHpL9YQ5yg2bgjZhU7HOXZC3Kvnsgt1aFwfSfUNVmh3KYb4Hi+1dEmnC+2eIbvQeTZuCOc+Q4hzbIV23+Olli7pdKHdM2QXOs/GDaHXMzSujyQG66WWLul0od0zZBc6z8YN4dxnCHGOrdDue7zU0iWdLrR7huxC59m4IfR6hsb1kcRgvdTSJZ0utHuG7ELn2bghnPsMIc6xFdp9j5dauqTThXbPkF3oPBs3hF7P0Lg+khisl1q6pNOFds+QXeg8GzeEc58hxDm2Qrvv8VJLl3S60O4ZsgudZ+OG0OsZGtdHEoP1UkuXdLrQ7hmyC51n44Zw7jOEOMdWaPc9Xmrpkk4X2j1DdqHzbNwQej1D4/pIYrBeaumSThfaPUN2ofNs3BDOfYYQ59gK7b7HSy1d0ulCu2fILnSejRtCr2doXB9JDNZLLV3S6UK7Z8gudJ6NG8K5zxDiHFuh3fd4qaVLOl1o9wzZhc6zcUPo9QyN6yOpvsGaq/2DoN+4pUs6XWj3Ul/q3GeY6+XnKDZuCNmFTjcX59gKfVn36o27c+fYuCFkF+rQuD6S6husYq72N8it3TlC01+sYq6XnaPYuCFkFzrPXJyjCH0592qu9s9onmvjhpBdqEPj+kiqc7BeKvRlXKwhbNwQsgtN5xrOEeJePZddqEPj+khisF5q6ZKms3FDyC40nWs4R4h79Vx2oQ6N6yOJwXqppUuazsYNIbvQdK7hHCHu1XPZhTo0ro+kL3OwfnIf3Ernmbnv3Xv3oM+FLnOxfnLlGdbuHDP3vSvf40H7bdwQsgvt95Mrz7B255i57135Hg/ab+OG0HWOD26l85Rz/Mdl96DPhS53rz64lc5TzlG+x5/uQftt3BCyC3VoXB9JX95g3bnfXfGje+dO9Y+bq/27nf7lnguNf7Hu3NjnKDZuCNmFPnfnOEfrHzfX4XOE6rhXf7uFe3T/cvts3BCyC3VoXB9Jpw3Wezdz/3YvlV3oc6/dL654kPTKPbq+kp6eqXHPhca/WK/d2OcoNm4I2YU+99pxjn7nCH359+rO/e62GrfPxg0hu1CHxvWR9PQl7PPeJT1d8pm7ca/dN+4c2YU+N1f7b7KtpUvqZ+bK15aPxRt3554LjX+x5mqfZWvpkvqZufK15WNx6BzFxg0hu9Dn5mqfZWvpkvqZufK15WNx7ecI1XWv3rpb7bdxQ8gu1KFxfSQdH6y37laHlYOvJH3nTpVdaL+k3XM9ulfuQd3u1f7cvPjo5mq//rnQ+BerSBr3HMXGDSG70H5JnOMnV3x0c7Vf/1yIe/VcdqEOjesjaXfw57ILdZu5B53+I61j3//593zrbnXcwv3ttn51r90+octcrJl70HjnKDZuCNmF9pu5B3GO4tg5Qpe7V2v3b1e8cz+6Yxau7zmKjRtCdqEOjesj6fBgvXJrV8zc7+5Wrddu6R5dcefK/3+K7EKH3erpX4T/g1vpsL9cqPXBzXVYqP38ISxd0mG3Gu8cxcYNIbvQYbfiHB/cXIeF2s8fwtIlHXar8c5RbNwQsgt1aFwfSfsH64Oba+cvF3rqjStDVczV/tz4FNmFjlu771yxdEmHbdzWD26lw0LtmYawdEnHjXWO4tPPf4nsQsdxjuPnCF32Xq3U/naRouvzN27rB7fScZ9+/ktkF+rQuD6S9g9WdqHWXPvH6NH9y21t3CmyCx23cCu1btxKh63Uvry37lbHhS57sRZupdaNW+mwlfqfo9i4IWQXOm7hVmrduJUOW+nrO0eIe/VcdqEOjesj6fzBKhq3tXGnyC40jdBlL9aYNm4I2YWmcw3nCHGvnssu1KFxfSTtH6y1e+W2yv/e/hB66627VWvm/udOkV1oGjfuDzeEN+7OTWGuw/8yOdXavXJTmLn/uSFkF5rGjfvDDeGNu3NTmGu4e5VdqEPj+kjaP1jFt+5BrYW71260srtxj6641dNfAOzrZ3evy1q4v9zMDeVaznGv9iyXVJ6/nGPhhlLOcK/LKs9fzjFzQ7mGc2QX6tC4PpIOD9Y796P71FztSJW2Zu5vN9d5fnb3uoyF+8vN3NCu5Rz3as9yCeX5yzkWbmjlDPe6jPL85RwzN7Taz5FdqEPj+kg6PFjFa/erO2Tm/nChl7lzazemmbtX+3Esd27txjRz92o/juVebWN77RZuLHdu7cY0c/dqP47lzq3dmGbuXu3HIWUX6tC4PpKOD1bxzpXRetBTofangXMBwH7ZhTo0ro+k7sHaelBbsXAzBwDHZBfq0Lg+kvoPFgCcKrtQh8b1kcRgARhPdqEOjesjicECMJ7sQh0a10cSgwVgPNmFOjSujyQGC8B4sgt1aFwfSQwWgPFkF+rQuD6SGCwA48ku1KFxfSQxWADGk12oQ+P6SGKwAIwnu1CHxvWRxGABGE92oQ6N6yOJwQIwnuxCHRrXRxKDBWA82YU6NK6PJAYLwHiyC3VoXB9JX+ZgLd0Q5tr9hyOnsHRDmGu6c3xw9xpGqP0PIUxl6YYw13Tvo1i6Icw1/jmyC3VoXB9JX+Zg9X3+LqH2b1CcyjWcI7vQMJKmvW+NG0JouvdR1HSO7EIdGtdH0rQX6JC+z98lNP4LOeYazpFdaBhJ0963xg0hNN37KGo6R3ahDo3rI2naC3TIp89/6vNlt1IrNP4LOaZxW7+5U2S3Uis03TnKc4R2fnOnKF+/Uivp9K8fUuO2Tn2O7FZqhaZ7H0Xjtn5zp8hupVZo/HOUf16oQ+P6SDr9wJfw6fNv3CmWLqkVGv+FHNO4rY07xdIltULTnSO70M7GnWLpklpJ0963xm1t3CmWLqkVmu59FI3b2rhTLF1SKzT+ObILdWhcH0nTXqBDPn3+jTvF0iW1QuO/kGMat7Vxp1i6pFZounNkF9rZuFMsXVIradr71ritjTvF0iW1QtO9j6JxWxt3iqVLaoXGP0d2oQ6N6yNp2gt0yKfPn3SaldqK0Pgv5JhrOEd2oZ2k06zUViRNe98at5V0mpXaitB076Oo6RzZhTo0ro+kaS/QIX2fv0to/BdyzDWcI7vQMJKmvW+NG0JouvdR1HSO7EIdGtdH0rQX6JC+z98lNP4LOeYazpFdaBhJ0963xg0hNN37KGo6R3ahDo3rI2naC3RI3+fvEhr/hRxzDefILjSMpGnvW+OGEJrufRQ1nSO7UIfG9ZE07QU6pO/zdwmN/0KOuYZzZBcaRtK0961xQwhN9z6Kms6RXahD4/pImvYCHdL3+buExn8hx1zDObILDSNp2vvWuCGEpnsfRU3nyC7UoXF9JE17gQ7p+/xdQuO/kGOu4RzZhYaRNO19a9wQQtO9j6Kmc2QX6tC4PpIOX6D37sY9qJV0+HMBfD1+da9dsXD3kr5z+2QX6tC4PpL2j9BHN5f06D51r/H/dDeAL9fSJT01l/SP2ye7UIfG9ZG0f7D+dDfuudD4P4QE8OV65dbuuZX2/9VB2YU6NK6PJAYLQH+v3No9t9KEg/XovnXl46fuxU8Jga/Z0iU9NdfEPyUs1u5H96BW+bwkAF+7O/fGFQv3X1c+7pNdqEPjupR/wB9uLgAYx6P7wa3dQY07ZuH+cjMHAGN6dD+4tdurcYcsHGMF4JIe3Q9u7T7TuENW2v+r+QAwpuxCezTukJUYLACXl11oj8YdshKDBeDysgvt0bhDFm7mhvDafecu7aO7VfvzYuDazdy9pG/cpb13d24Ij27tPnNssIY0cytddrQ+utCBgwNXauFWuuxovXehdmhGdanBKmZupcuM1kcXYqzwdVq4lS4zWu9d6AJjVVxysIqZW2nc0froQowVvm4Lt9K4o/XehS40VsWlB6uYuZXGGa2PLsRYAcXCrTTOaL13oQuOVTHFYBUzt9Kwo/XRhRgr4FMLt9Kwo/XehS48VsVUg1XM3L3aj0O4c2sH4KmFe+2G8Ohu1X68uCkHCwBOwmABqAaDBaAaDBaAajBYAKrBYAGoBoMFoBoMFoBqMFgAqsFgAagGgwWgGgwWgGowWACqwWABqAaDBaAaDBaAajBYAKrBYAGoBoMFoBoMFoBqMFgAqsFgAagGgwWgGgwWgGowWACqwWABqAaDBaAaDBaAajBYAKrBYAGoBoMFoBoMFoBqMFgAqsFgAagGgwWgGgwWgGowWACqwWABqAaDBaAaDBaAajBYAKrBYAGoBoMFoBoMFoBqMFgAqsFgAagGgwWgGgwWgGowWACqwWABqAaDBaAaDBaAajBYAKrBYAGoBoMFoBoMFoBqMFgAqsFgAagGgwWgGgwWgGowWACqwWABqAaDBaAaDBaAajBYAKrBYAGoBoMFoBoMFoBqMFgAqsFgAagGgwWgGgwWgGowWACqwWABqAaDBaAaDBaAajBYAKrBYAGoBoMFoBoMFoBqMFgAqsFgAagGgwWgGgwWgGowWACqwWABqAaDBaAaDBaAajBYAKrBYAGoBoMFoBoMFoBqMFgAqsFgAagGgwWgGgwWgGowWACqwWABqAaDBaAaDBaAajBYAKrBYAGoBoMFoBoMFoBqMFgAqsFgAagGgwWgGgwWgGowWACq8X881SVpLlbYAgAAAABJRU5ErkJggg==;" parent="1" vertex="1">
          <mxGeometry x="-1802" y="762.75" width="76.25" height="76.25" as="geometry" />
        </mxCell>
        <mxCell id="h75pCEdkkC_XDxHb6yKX-1" style="edgeStyle=orthogonalEdgeStyle;shape=connector;rounded=0;orthogonalLoop=1;jettySize=auto;html=1;exitX=0.5;exitY=1;exitDx=0;exitDy=0;labelBackgroundColor=default;strokeColor=#0000CC;strokeWidth=2;align=center;verticalAlign=middle;fontFamily=Helvetica;fontSize=11;fontColor=default;endArrow=none;endFill=0;" parent="1" source="749JlQ45wNmBAUl5USfy-75" target="749JlQ45wNmBAUl5USfy-60" edge="1">
          <mxGeometry relative="1" as="geometry" />
        </mxCell>
        <mxCell id="h75pCEdkkC_XDxHb6yKX-6" value="6类网线" style="edgeLabel;html=1;align=center;verticalAlign=middle;resizable=0;points=[];fontSize=11;fontFamily=Helvetica;fontColor=default;" parent="h75pCEdkkC_XDxHb6yKX-1" vertex="1" connectable="0">
          <mxGeometry x="0.55" relative="1" as="geometry">
            <mxPoint x="23" as="offset" />
          </mxGeometry>
        </mxCell>
        <mxCell id="749JlQ45wNmBAUl5USfy-75" value="串口服务器" style="shape=image;verticalLabelPosition=bottom;labelBackgroundColor=default;verticalAlign=top;aspect=fixed;imageAspect=0;image=data:image/png,iVBORw0KGgoAAAANSUhEUgAAASwAAADhCAYAAAByfIirAAAT/UlEQVR4nO3d8XnbVBuG8UcTYCbAnQB3Ao4nIExQdwLCBBxN0DAB6QSECSpNUDNB0wkwE+i7VTUfoYTWsV7ZR/Hzu6675i+u6OTNW9l13Up2qAV9T6uPJZn904621OsfX1P/aAeqyB5nKelnuqAFmT3GraRGUk23skepyPbTL6d+UV2S2Vg7uqJfaEe2By+s/VzQr7Qgs0g7WtOW7Asqss/baFhWZlN6Sdeyz6rI/tsV/Uhmx/CSrmX/qSJ72Ea+s7Lj+4FuyB7ghfWwFb2hBZkd047WtCX7REX2b+9oKbPTaDQsLftERfZPG/mpoJ2enxo+wAvr397RUmandSvpGdk9FdnfNvLdlZXDd1mf8ML6p344viezErymjez/KrK//UkLMivBrfy08B8qskHS8FYGs5I8py0ZvLD+dkmvyKwka2pkH1Rkg6zh0xjMSvITXZHBC+tv/VD8SGYlqSnLPqjIBo2k78isJDVl2QcV2aCRF5aVp6Ys+6AiGzTywrLy1JRlH1Rkg0ZeWFaemrLsg4ps0MgLy8pTU5Z9UJENGnlhWXlqyrIPKpqrBX1LSw3dWdGCHmtFCzIrya2GTuFWQ3caSX/Rlk6iorno736ShsWS5OVidkpbajTU0o4mV1HJvqeLjy3IzMp087HXNJmKSrOgH2kjaSkzm5MdXdFrulWwikqxoFd0QQsys3m71vCHBrcKUlEJfqZLWpCZPR07uqJfaEejnHphJQ0fSbyUmT1ltxr+odhGI1R0Cgv6mS7JzM5H1vA08SAVHduKfqX+0czOz5bWtKNHqeiYkqTfaEFmdr52tKYt7a2iY9louLMyM+vtaE1b2ktFx7CRl5WZ/duO1rSlL6poaht5WZnZf9vRmrb0WRVNaSMvKzP7sh09p1t9xpQLa0VvycxsH1ta044eVNEUlhqW1YLMzPZ1reENpg+qaAr9slqRmdlj/UA39C9TLKys4V3sZmaH2NEz6h//oaJISdIbMjMb44b6O61/iF5YfipoZlHW1OieiqJc0isyM4vQaFha/1dRhAW9o/7RzCxK/7Twhj6IWlhZfqHdzOI1uneXVdFYC3pH/aOZWbTntKWQhXVJfu3KzKbymjZCRWP1d1dLmZlNY0dfkyoaY0VvycxsSj/QzdiFdS3pBZmZTek1bSp+GeNPWpCZ2ZRuJT0bs7BW9JbMzI7h6zEL65JekZnZMfwwZmE1kr4jM7NjqMcsrD9pQWZmx/D7oQtrqeH9V2Zmx9JW/HKIJH/ulZkd122/sH6mx0oaMjM7mn5hdWRmVjwvLDObDS8sM5sNLywzmw0vLDObDS8sM5sNLywzmw0vLDObDS8sM5sNLywzmw0vLDObDS8sM5sNLywzmw0vLDObDS8sM5uNuS6slpJOo/9Y6BX1FrSiBa1oKekbKklLSU9bRxGmOKuswz5zLtqaGsVJOsGHeFbU0dy0lFSmBSUNCyzp9P9QR8lnFaWjCFOcVZYXVpiKOpqblpLmYUEXH0uSvqJjmtNZHSpqhqc4qywvrDAVdTQ3LSXN00bDv+n4LR3DnM9qX1EzPMVZZXlhhamoo7lpKWneVnRJL2hKT+GsvqSjCFOcVZYXVpiKOpqblpKehqWGoX5BU2gp6WnrKMIUZ5XlhRWmoo7mpqWkpyVpGO7vKNJTPKtPdRRhirPK8sIKU1FHc9NS0tPUP03Mintx/imf1Z2oGZ7irLK8sMJU1NHctJT0dC0lXSvmbqulpKetowhTnFWWF1aYijqam5aSnr7+busVjXEOZxU1w1OcVZYXVpiKOpqblpLOQ5J0Q1/RIc7hrKJmeIqzyvLCClNRR3PTUtL5WNG1Dnvv1jmcVdQMT3FWWV5YYSrqaG5aSjovC2r0+KV1DmcVNcNTnFWWF1aYijqam5aSzs8hS+sczipqhqc4qywvrDAVdTQ3LSWdp8curXM4q6gZnuKssrywwlTU0dy0lHS+HrO0zuGsomZ4irPK8sIKU1FHc9NS0nlbStrSV/Q5LSU9bVEzPMVZZXlhhamoo7lpKcmSvjw053BWHUWY4qyyvLDCVNTR3LSUFGOpx39K6B+0oxJkff4HYkuXFOU93Wqc7yhSoxgtJcXK+vz351jW1ChOkhfW3lpKipF1+EBt6VbDY6Ph6zqFRvFL4L/UlDVORyVqKSlW1uHzFWlNjeIkeWHtraWkGFlxA7WjRsM701/TsSwlvaNjqClrnI5K1FJSrKy4+RpjTY3iJHlh7a2lpBhZ0wzUjq7oF9rR1LKmuY5P1ZQ1TkclaikpVtZxvi9fsqZGcZK8sPbWUlKMrGkHql9WV1TT1G71+NfjHqu/jqxxOipRS0mxsqadr32tqVGcJC+svbWUFCPrOAO1pZfUP05lI+lXmlJNWeN0VKKWkmJlHWe+vmRNjeIkeWHtraWkGFnHHais4Yd+Krea9i6r/9qzxumoRC0lxco67nz9lzU1ipPkhbW3lpJiZB1/oK413G1NYaNp77JqyhqnoxK1lBQr6/jz9ZA1NYqT5IW1t5aSYmSdZqD6p4Zr2lG0W013l1VT1jgdlailpFhZp5mvT62pUZwkL6y9tZQUI+t0A9VoGKRoWdNdU01Z43RUopaSYmVN9714jDU1ipPkhbW3lpJiZJ12oK4V//Rwqenel1VT1jgdlailpFhZp52vO2tqFCfpRAsr6/E2mu4pxz5aSoqRdfqBeknXirWlbylaTVnjdFSilpJiZZ1+vnprahQn6UQL6xCNjvdXQR7SUlKMrNMP1I6e063iXNIrilZT1jgdlailpFhZp5+v3poaxUnywtpbS0kxssoYqBv6gaIsNc3TwpqyxumoRC0lxcoqY77W1ChOkhfW3lpKipFVxkD11tQozq3in7rXlDVORyVqKSlWVhnztaZGcZK8sPbWUlKMrDIGqveaNopzLekFRaopa5yOStRSUqysMuZrTY3iJHlh7a2lpBhZZQzUnWd0qxiXFP06Vk1Z43RUopaSYmWVMV9rahQnyQtrby0lxcgqY6Du/ERXFGFFbylSTVnjdFSilpJiZZUxX2tqFCfJC2tvLSXFyCpjoO5s6TlF6ShSTVnjRH9NUVpKipVVxnytqVGcJC+svbWUFCOrjIG672vaUYRbxb7wXlPWOB2VqKWkWFllzNeaGsVJ8sLaW0tJMbLKGKj71tQoRqPY71VNWeN0VKKWkmJllTFfa2oUJ8kLa28tJcXIKmOg7qspK8YV/UhRIr62jkrUUlKsrDLma02N4iR5Ye2tpaQYWWUM1H2/0wVFyIq9vpqyxumoRC0lxcqKPf9DralRnCQvrL21lBQjq4yBuq/k66spa5yOStRSUqys2PM/1JoaxUnywtpbS0kxssoYqPtuNbwfK0J/p/YbRakpa5yOStRSUqysMuZrTY3iJHlh7a2lpBhZZQzUpyqKkBQ7WDVljdNRiVpKipVVxnytqVGcpNi52ktFh2jkhTW1iiIkxQ5WTVnjdFSilpJiZZUxX2tqFCcpdq72UtEhGnlhTa2iCEmxg1VT1jgdlailpFhZZczXmhrFSYqdq71UdIhGXlhTqyhCUuxg1ZQ1TkclaikpVlYZ87WmRnGSYudqLxUdopEX1tQqipAUO1g1ZY3TUYlaSoqVVcZ8ralRnKTYudpLRYdo5IU1tYoiJMUOVk1Z43RUopaSYmWVMV9rahQnKXau9lLRIRp5YU3pPS0VY6PYf6ewpqxxOipRS0mxssqYrzU1ipPkhbW3lpJiZJUxUPeVfH01ZY3TUYlaSoqVFXv+h1pTozhJXlh7aykpRlYZA3Xfa9ooRlbs9dWUNU5HJWopKVZW7Pkfak2N4iR5Ye2tpaQYWWUM1H01ZcW4VuzHJEd8bR2VqKWkWFllzNeaGsVJ8sLaW0tJMbLKGKj7fqAbitAo9ntVU9Y4HZWopaRYWWXM15oaxUnywtpbS0kxssoYqPu+ph1FeEdLxakpa5yOStRSUqysMuZrTY3iJHlh7a2lpBhZZQzUnfe0VJyOItWUNU701xSlpaRYWWXM1zO6VZwkL6y9tZQUI6uMgbrzC11ShBW9pUg1ZY3TUYlaSoqVVcZ8VRQpyQtrby0lxcgqY6DurKlRjI1i34PVqylrnI5KtKXnFCmrjPmqKFKSF9beWkqKkVXGQPXe01JxrhX7J4S9mrLG6ahUFUVKOsEP9gOexHUdehGNvLCm8BNdUZR3tFSsmrLG6ahUFUVKOsEP9gOiryvrBD83h15EIy+saH/RUnF/OrigPylaTVnjdFSqiiItNfzGcUp/0IoiZZ3g56aiQzTywopWU1acjeJfv+pFfJ0dleoZ3SrWqa/3d7qgSNeKf7nhiyo6RCMvrEjvaalYN/Q9Raspa5yOSrWmRrEanfbnpaasWI1OcE0VHaLRCb7Ye1pKipF1+oW1pkZxFvQnTaGmrHE6KtWaGsW6oh/pVKa4pne01JFVdIhGXlhRasqKtdE0Twd7EV9vR6WKuL5PXdBvdCrP6FZxFvQnHV1Fh2jkhRVhitcWem8oaRo1ZY3TUamm+p7s6Cs6tpaSYiUNM3Z0FR2ikRfWWH9Q0jDIkVb0lqZSU9Y4HZVqS88p2rVO8CI1XtK1Yl3SKzq6ig7RyAtrjD8oKX5Z9a417Q9GTVnjdFSyiqKt6C0d29e0o0jXmnbG/tOh35hGXliHek2XtKNoSw0vhk6ppqxxOirZmhrFu6If6Vhqyor3Jy3o6Co6RCMvrEP8RFc0lazpr6WmrHE6KlnENT5kQVv6hqb2B60oWv//fEsnUVFHc9NSUoys6X/I39MFbWkqS01/d9WrKWucjkrWf5+e0xQu6FrTvgD/FyUN1xHtkl7RSVRU+vA8pKWkGFnTLax+cLKmvau684aSpldT1jgdle5r2tEUVtRomqX1FyVNs6x6b2lFJ1HRHIbnUy0lxciKX1jvKWt4t/mOpnZBv9Ex1JQ1Tkele0nXms6KbugbivKeLmhLU1jqOHfx/6mijuampaQYWTEL6z3d0LWmG5iHLOgtLXUcNWWN01HptvScprbRcJ7f0KHeU9Ywe1O6oh/pZCrqaG5aSoqR9biF9Z5u9XeNhuHe0Sn8ShsdT01Z43Q0B/3C2tIxJA13R0nSt/Qlf1Cjv9vR1P6kBZ1MRXMZnvtaSrKNhoV1TDVljdPRHLymjU5jqaFP7WhLx7bR8WftXyrqaG5aSjpvK3pDCzqmmrLG6WguntGtzls/Y++ofzypijqam5aSzlc/OG9oRcdWU9Y4Hc3Fa9rovGU97mWTyVTU0dy0lHSeFvSGVnQKNWWN09GcPKctnaOlhj/UWdDJVTS34em1lHR++qF5Qys6lZqyxuloThoNf13nHL2hpEJU1NHctJR0fn6jCzqlmrLGmePM/URXdE4uqJ+5YlQ0x+FpKel8LOgNrejUasoap6O52dGatnQOVvSGFlSMijqam5aSzsNSw+9yKypBTVnjzHHmejt6Rv3jU7agd9Q/FqWijuampaSnb0VvaEGlqClrnI7maktr2tFTtKA3tKLiVNTR3LSU9LT9TFnlqSlrnI7mbEtr2tFTsqA3tKIiVdTR3LSU9DQtNbyjOKlMNWWN09HcbWlNO3oKlirrpYcHVTTH4Wkp6el5QVe0oFLVlDVOR0/BraQfaEtzdkG/0oKKVlFHc9NS0tORNAzMUuWrKWucjp6SS/qF5mZBP9MlzUJFHc1NS0nzt6JXlDQfNWWNM8eZ+5JGw3u1tjQHLyhLWmpGKupoblpKmq8XtNE8r6GmrHE6eqquNZzRrcqUNNxVJc1QRR3NTUtJ87KU9D1d0lLzVVPWOHOcuce61vAXpxud3oLuZm9Fs1XRHIenpaTy9cPxgpKG/34Kasoap6NzsaUb+p22dCwL+o4uPrag2auoo7lpKaks/UB8S0lDK1rQU1NT1jhznLkItxruuLYfaynKUsP8rShp6MmpaI7Ds6VLOrYFrehO0iDpfFxraIxGdmdLO9rSjnpb2tFDkv6WNFjRgp68uS4sMztDXlhmNhteWGY2G15YZjYbXlhmNhteWGY2G15YZjYbXlhmNhteWGY2G15YZjYbXlhmNhteWGY2G15YZjYbXlhmNhteWGY2G15YZjYbXlhmNhteWGY2G15YZjYbXlhmNhv9wmr0eEtJ35CZ2dFUdIgL+o3MzI7m0IW1ordkZnYs7aELq9eRmdmxjFpYW/qWzMyO4ZcxC+uKfiQzs2N4OWZhXdBvZGZ2DM/HLKyeX8cys2Opxi6sG/qezMym9DtdjF1YG0m/kpnZlF7SdcUvY+3oKzIzm8rXtItYWNeSXpCZ2RRaSkJFYy0lvSMzsyn8QDekiiJcy3dZZhbvPS31UUURlvJdlpnFqynro4qiXMt3WWYW5y9aihfb6YOKoizoVv4TQzOL8ZKudU9FkS7pFZmZjfGelvpERdEaSd+Rmdmh1tToExVFW2r46JmvyMzssX6hS/qXiqZwQb+RmdljvKcV7ehfKppKlvQzmZnt4y9KGp6hPWjKhdW7lt/qYGb7eUnX+oyKprSgRv4oZTP7vJ/oij5r6oXVW1AjLy0ze9hr2mgPFR1Dv7Ru6DsyM7vzmjbaU0XHdC2/pmVmg72eBt537IXV28ifUmp2zv6iS7rWI51iYfWShi/2GzKz8/EHbfSZty58zqkWVm9BWf63Dc3OxS+U9R9vCt3HKRfWnaThIr4jM3t6/qBLajRSCQvrzkbD4vqGzGz+/qJ+UV0rSEkL685Gw0V+S2Y2P+8pK3BR3amoVEnD8rqgr8jMyvaabj42iYrm4IKShr4lMzu999Ro6IZ2NKmK5mZBK0r6+797/eNXZGaxWurdamj7sVsd2f8Ary7OadHCj1AAAAAASUVORK5CYII=;" parent="1" vertex="1">
          <mxGeometry x="-1783.46" y="894" width="46.67" height="35" as="geometry" />
        </mxCell>
        <mxCell id="h75pCEdkkC_XDxHb6yKX-14" style="edgeStyle=orthogonalEdgeStyle;shape=connector;rounded=0;orthogonalLoop=1;jettySize=auto;html=1;exitX=1;exitY=0.5;exitDx=0;exitDy=0;labelBackgroundColor=default;strokeColor=#0000CC;strokeWidth=2;align=center;verticalAlign=middle;fontFamily=Helvetica;fontSize=11;fontColor=default;endArrow=none;endFill=0;" parent="1" source="h75pCEdkkC_XDxHb6yKX-7" target="749JlQ45wNmBAUl5USfy-60" edge="1">
          <mxGeometry relative="1" as="geometry" />
        </mxCell>
        <mxCell id="h75pCEdkkC_XDxHb6yKX-7" value="光显平台服务器" style="shape=image;verticalLabelPosition=bottom;labelBackgroundColor=default;verticalAlign=top;aspect=fixed;imageAspect=0;image=data:image/png,iVBORw0KGgoAAAANSUhEUgAAASwAAAEsCAYAAAB5fY51AAAH6UlEQVR4nO3dgZEVVRqG4f9GwGwEOxuB1wicjgCIwCECIQIhAjEChwwgAo8RMBuBYwQMEbBf95UtVBR1LnL+qeep+vpm8Nbpnq6eXQE0IVhAG4IFtCFYQBuCBbQhWEAbggW0IVhAG4IFtCFYQBuCBbQhWEAbggW0IVhAG4IFtCFYQBuCBbQhWEAbggW0IVhAG4IFtCFYQBuCBbQhWEAbggW0IVhAG4IFtCFYQBuCBbQhWEAbggW0IVhAG4IFtCFYQBuCBbQhWEAbggW0IVhAG4IFtCFYQBuCBbQhWEAbggW0IVhAG4IFtCFYQBuCBbQhWEAbggW0IVhAG4IFtCFYQBuCBbQhWEAbggW0IVhAGzcJ1j67m61O6zCA97mqw1YvssvsL9tlf8VZVX2ZnVXVaQH8PVdVNarqWTbqT9plf8ZZVX2dnRXAcY2qepKN+oBd9kdOsu+yexnAx3RRVY+y6+y9/ihY+2yN1foL8E+4zB5k6+9v7LL32WffZycZwD/pOluyy+wXdtmv7TOxAj6l62zJLrP/22XvOsleZqcF8GldVdXn2XW22WXvWk9WZwUwh1GHk9Zml711XoeH7AAzuZ89z34RrB+z0wKYy1VV/SerXbY6L6crYF4PsotdLqv1Qfs+A5jRZfb5GqzTOtwOAszsX7tczsvtIDC/B2uwnmd3M4CZvViDNarqiwxgZj+swXqZ7TOAmV2uwXqTAUxPsDiG19nD7KKYzWlVPc3uZu3tMsHipr7NHmbM6SR7lbUnWBzDko1iZqNuwR/XdtmbDG5iyUYxs1GCBZslG8XMRgkWbJZsFDMbJViwWbJRzGyUYMFmyUYxs1GCBZslG8XMRgkWbJZsFDMbJViwWbJRzGyUYMFmyUYxs1GCBZslG8XMRgkWbJZsFDMbJViwWbJRzGyUYMFmyUYxs1GCBZv72fOMeb3M9llrgsUxPMvOi1md1i35V3677E0GN3VRhzGX06p6XIff9naZYAEtCBbQhmABbQgW0IZgAW0IFtCGYAFtCBbQhmABbQgW0IZgAW0IFtCGYAFtCBbQhmABbQgW0MYarOvsTgYws9drsB5X1dcZwMyerMFandVhADMalb0NFsD0BAtoQ7CANgQLaEOwgDYEC2hDsIA2BAtoQ7CANgQLaEOwgDYEC2hDsIA23gZrn93NAGb0Irtcg/W4fA8LmN+jNVivspMMYGbXa7DeZADTEyygDcEC2hAsoA3BAtoQLKANwQLaECygDcEC2hAsoA3BAtoQLKANwQLaECygDcEC2hAsoA3B4ljWT9heVNV1xjz22eOqupO1J1gcwxqrexlz2mcvs/YEi2O4nz3PmNdl9lnWmmBxDEs2ipmNqvoia22XvcngJpZsFDMbJViwWbJRzGyUYMFmyUYxs1GCBZslG8XMRgkWbJZsFDMbJViwWbJRzGyUYMFmyUYxs1GCBZslG8XMRgkWbJZsFDMbJViwWbJRzGyUYMFmyUYxs1GCBZslG8XMRgkWbJZsFDMbJViw+TZ7mDGnk+xV1p5gcQzX2f1sFLM5yb7JzusWECygDcEC2hAsoA3BAtoQLKANwQLaECygDcEC2hAsoA3BAtoQLKANwQLaECygDcEC2hAsoA3BAtoQLKCNNVjPs7sZwMxerME6yZ5mpwUwp6uqerjLBaAFwQLaECygDcEC2hAsoA3BAtoQLKANwQLaECygDcEC2hAsoA3BAtoQLKANwQLaWIO1z77PTjKAGV1nyxqsH7PTApjb1S6XNxnA9AQLaEOwgDYEC2hDsIA2BAtoQ7CANgQLaEOwgDYEC2hDsIA2BAtoQ7CANgQLaEOwgDYEC2hDsDiW19llxlxOss+yW0GwOIb/Zmd1+Iwt8zmvqu+y9gSLY3iUPc2Y13V2J2tNsDiGJRvFzEZVfZG1tsveZHATSzaKmY0SLNgs2ShmNkqwYLNko5jZKMGCzZKNYmajBAs2SzaKmY0SLNgs2ShmNkqwYLNko5jZKMGCzZKNYmajBAs2SzaKmY0SLNgs2ShmNkqwYLNko5jZKMGCzZKNYmajBAs2SzaKmY0SLNj4vMz8XmUnWWuCxTFcZkt2nTGf8/IBP/iFNVajDvFiDifZWVXts1thDdZ1dicDmNlPa7BG3YKHccCt94NgAV1swXqafZUBzOzJGqx99jIDmNnna7BWV1X17wxgRj9lp7tcVk+zrzKAGX2bPXwbrNM6vD9zJwOYyetsn13tcnnrcVV9nQHM5En2uGKXvXWSXZVTFjCP9XR1WocX3GuXveusqr7PAGawZKN+tst+7WH2TQbwKT3ILuodu+x9LqrqywzgU3iWndev7LLf46QFfAqPsqfZb/xRsFb3sovyIB74+F5n51X1PHuvDwVrdZI9zdwiAh/Ls+xhdp39rl32Z53W4V2Ie5kTF3BT64nqefa4Dq9UfdAu+zvu/bzTOryBKmDAh6yBusyu6hCqdX/JLjuWk2yfAbzrMrvObuyYwQL4qAQLaEOwgDYEC2hDsIA2BAtoQ7CANgQLaEOwgDYEC2hDsIA2BAtoQ7CANgQLaEOwgDYEC2hDsIA2BAtoQ7CANgQLaEOwgDYEC2hDsIA2BAtoQ7CANgQLaEOwgDYEC2hDsIA2BAtoQ7CANgQLaEOwgDYEC2hDsIA2BAtoQ7CANgQLaEOwgDYEC2hDsIA2BAtoQ7CANgQLaEOwgDYEC2jjf2psYh1iFrCzAAAAAElFTkSuQmCC;" parent="1" vertex="1">
          <mxGeometry x="-1990" y="972.25" width="93.5" height="93.5" as="geometry" />
        </mxCell>
        <mxCell id="h75pCEdkkC_XDxHb6yKX-13" style="edgeStyle=orthogonalEdgeStyle;shape=connector;rounded=0;orthogonalLoop=1;jettySize=auto;html=1;exitX=0;exitY=0.75;exitDx=0;exitDy=0;entryX=0;entryY=0.5;entryDx=0;entryDy=0;labelBackgroundColor=default;strokeColor=#0000CC;strokeWidth=2;align=center;verticalAlign=middle;fontFamily=Helvetica;fontSize=11;fontColor=default;endArrow=none;endFill=0;" parent="1" source="h75pCEdkkC_XDxHb6yKX-11" target="749JlQ45wNmBAUl5USfy-60" edge="1">
          <mxGeometry relative="1" as="geometry" />
        </mxCell>
        <mxCell id="h75pCEdkkC_XDxHb6yKX-15" value="6类网线" style="edgeLabel;html=1;align=center;verticalAlign=middle;resizable=0;points=[];fontSize=11;fontFamily=Helvetica;fontColor=default;" parent="h75pCEdkkC_XDxHb6yKX-13" vertex="1" connectable="0">
          <mxGeometry x="-0.9147" relative="1" as="geometry">
            <mxPoint x="-8" y="-26" as="offset" />
          </mxGeometry>
        </mxCell>
        <mxCell id="h75pCEdkkC_XDxHb6yKX-11" value="路由器" style="shape=image;verticalLabelPosition=bottom;labelBackgroundColor=default;verticalAlign=top;aspect=fixed;imageAspect=0;image=data:image/png,iVBORw0KGgoAAAANSUhEUgAAASwAAAEsCAYAAAB5fY51AAAVWElEQVR4nO3d8XXTyAKF8TsVrKhgTQWYChhXgKkAuYKYCp5TAU4FOBUQKkCpAKcCRAWICvZ9WpGFZQMk9tjySPd3znfMH+/tJvbkRnacJcjs955RK6ozUdetqPup9E2trtaWGrqh9tbsToHMWgU9oShpoq6oflTqxqxW9+dPVMtGL5CNU3vVNKWo7nai09ZQpa4tXZONTCAbh4mk5xQlzWkIKklXdE1bsoELZMPVDtScoqSJhq3WtwF7RzZAgWxYbkeqraAxaujqax6vAfFgDcNE0ksq1f3ZvmloI+mCalnWAlm+bkcqyu6jUjdel2QZCmR5KagdqiVNZLtoaE3tVVdDlolAloeJpDMq1Y2W7a+hKzqnWnbyAtlpm0j6H5WyQ9rIw3XyAtlpKqgdqiXZ8Wzk4TpZgez03A5VQXZ8Da3Jr3GdGA/WaZnTa5rITkEtaSX/VPFkBLL+Takdqig7RVtaUHtrPQpk/Wqf/q1kOVjTOTVkPQhk/YjqrqqmZPmo1V1tVbKjC2TH1w7VkixfazqnhuxIAtnxTOkNtbe5uaGGttR8bUu32j83dJeCpnSr/XPxtSkV9IRys6UFtbd2BIHsOM5ope6L85R9oS1V6m5rdbfHMKWJutuo7vYPOnVLuiA7sEB2WAW9plKn6RNV+lat0zL9WlTXn3SKrmhBDdmBBLLDmdIbam9PyTVdUaXjXT2lMqWo7hvAEzoltaQXtCU7gEB2GHNqx6qgU3BDG3VDVWsYJuru51KnM14NvaKNLLlAlt4Zralvn2ijrlrDNlE3XKVO42njSt1PES2hQJbWGyrVr2tqB/OKxmhOS3pGfdqoe13LEglkaRT0hubUl0taafhXU/c1UXd/vKS+bGlGDdmeAtn+CnpPU+rDJa3kofqZibr75yX1YUszasj2EMj2U9B7mtKxXdJKHqr7mqi7v17SsW1pRg3ZjgLZ7gp6T1M6pmsq5aHa1UTd60vP6JgamtGWbAeBbDcTSW9pSsfyiUp175+y/UV1w/UnHUtDM9qSPVAge7iC3tOUjuWcVrJDWKn7z/wcS0Mz2pI9QCB7mILe05SO4ZpK+enfoU3UXW09o2PY0owasnsKZPdX0Hua0qF9oZW691PZ8SzpNR3DlmbUkN1DILufgo41VjdUqjvQdnxT2ug4v+6zpRk1ZL8RyO7nDZU6vAtayQe4bwWt6SUd2hW9IPsND9b9rOmMDukLLWkjOyWlusf/DzqkjfxrPL8VyH6tVHd1dUifaE5bstMzpSv6kw5pQRvZTwWyn5vSBzqkG4ryU8BTV1Clw7+uNaNKdqdAdrf2gH6k9vZQLmlJDdnpK2hNL+lQGnpKtew/Atnd3lPU4VxSKcvRRocdrS21o2U/CGT/taYzOpQFbWQ5W9JrOpSNunNi3wlk/zant3QoC9rIhqDUYX8g84KuyL4KZN8U9JHa20NY0EY2JKUON1oNPaVa9rdA9k17ZTWnQ1jQRjZEpQ43WpW6nxwaAllnSa/pEM5pJRuyNZ3RIbyi9p8/eoFMmqh7v1VBqV1SKRuDjQ7308PHVGvkAtnh3sLwjuZk43FFzym1Sn5q6MHCnN5SajcU1b1wauNRUKXDvCN+QRuNWKAxaw/XR2pvU/pCEw1zrJ5RQdOvFV+b0q9sqfna9msNXdPQFFQr/S9MN/SY2ttRCjRmGx3mNYentKUheE5RXVM6hC1V6npHQzClD5TaJZUaqUBjdagD9YrWlKuC2hGfU1Q/KnWvBV1SQ7la0mtKbUaVRijQWL2nqLQuqVSenlOpbqhOyRVtlO+VV/vxt/dtSpW60RqdQGM0p7eU0ieaUkO5KOiMllTQKWtoTRfUUC4K2tKflNILuqJRCTRGH2mitGZUKQ8F5TJUP2poTRfUUA6iuiv6lGp1L8CPSqCxKZX+1yjOaaXTV1CuQ/WjhtaUy3CtlP7vPlzQRiMSaGw+0kTp3NCUTt2cXtNEw1Kr+0HHFZ26WmmfGtYa2VVWoDEplf7qakaVTtdE3eccNWztYLXDVet0RaV/arigjUYi0Jh8pInSuaAlnapS3VVVQWPQ0Cva6HSt6YxSqTWiq6xAY1Gqu9JI5QtN1H2RnJqCXlOpcdqoG66GTk1BtdK+C35BG41AoLH4QFNKZUEbnZ72c2yHub0dsy21j1F7e2pKdY9RKrVGcpUVaAyi0r52cENTOjVzekMFWXeF9YIqnZ4tPaFUZlRp4AKNwRU9p1RmVOm0lOrGyv5rQRudlqi030Tf0ZwGLdDQTdS92J7KNUWdllIeq99Z0EanpVL3X79I5THVGrBAQ7emM0plRpVOx2takv3eSt2bfE9FVNqrrAsa9FkINHQfaaI0rinqdJTyldVDLWij01Ep3VVWre4qa7ACDdmc3lIqM6p0Gkp5rHa1oI1OQ1Taq6wXdEWDFGjI2gfuOaVwTVGnISrtId9Fe39sqda321p3m6hrShN1t8+oTzOqdBoqpbs/3tGcBinQUBX0mVKZUaX+Tek9FXRMn+iKKnU1tI+CorpKpX0j5X00NKMt9W1ObymVR9TQ4AQaqlLpnjJ9oon6V9B7mtKxXNLV1w5p/rWXdCxbmlFDfauV7hejF7TRAAUaqit6TiksaKP+vaFSx3FJK3VfSMc0UffvfUnHsFH3+PZtSa8phXc0p8EJNEQFfaZUHlFDfSrVDdahvaMl1erXRN1bUp7ToS1oo34V9JlSeUQNDUqgISqV7ov7kkr1a6LudyELOpRPVKp7feqURHVj8icdSkNPqVa/Nkp3ZbmgjQYm0BBd0XNKYUaV+vWeog7ngpZ0yjZK98V8l0rdY92nqO6xTuEdzWlQAg3RZypoX59oon7N6S0dwhcq1Q18Dkp1TxP/oEN4QVfUp1ppriYbekSDEmhopvSBUrigJfWloI/U3qb2haK6n5TlZEqVDjNatbqnhg31ZU1nlEL7uWxpMIY4WCul+4/99/2ArynV4f3eDUX1+4W5j4m6K6EnlNo5rdSfKX2gFPr+XJILNDSV0rxr+BNN1J+Juqur1HIfq1sFVTrMaD2mWv2pleZp4TVFDUigofmLUrigJfVlo/QvMn+iKTU0BAXVSv/0cEiPfaDBGNQng6h0P2V5QVfUh4I+U0pfKKrfp7iHMKVKaUerocfU3vZhTm8phRlVGohAQ7Kk15RCn/fNSuleh7s1o0rDNKe3lNI5rdSPgj5TCq9oTYMQaEiu6Dnt65qi+lHQR2pvUzmnlYZtTWeUSkOPqb3tQ6U0r8W+ozkNQqAh+UgT7e+cVupHqXTv0m/d0JTGYEtPKJUFbdSPldJcZdfqhncQAg1FQZ8phRlV6scHmlIqT2lLYzCl9v5LpVJ3FvoQle712EfUUPYCDUVUuge4r/tlou4qMZULWtKYrOmMUnlMtY6voM+UwowqDUCgoVjSa9rXDU2pDyuleRrQ+kITDeQ76wMUVCvdTw1f0Zr6sKUntK8+P4ekAg1F+4Cc0b4uqVQ/PtJEaZzTSuO0Urrhr9VdZfVhozTvx7qgJWUv0FBUSvNTlVe0pmObqBusFL7QROO7urpVUK10V1mPqdbxrZRmeK8pagACDcVHmmh/M6p0fKXS/XTwnFYat5XSfLG3FrTR8UWleV22Vje62Qs0FH9RCo+ooWPbKM3lf+sx1Rq3ibpvYilcUqnjK+gzpRAoe4P4JDBRusMZqA/txz/R/q4pylqV0rxMUKv7JtCHvyiF9uOvlblAQxCV5tL5mqKOb6JusFJY0EbWKpXuafZjqnV8ldKM7owqZS7QEJRKczCvKer45vSWUujrKe0pKugzpfCCrujYKqUZrL4+/qQCDcFKaV5gPaeVjm+lNB//DU3JvtnSE9pX7mejr48/qUBDsFLeD+pGaV5wv6Al2TdrOqN9XVKp41sp77OdVKAhWCnNg7qgjY6vki/7D2VOb2lf1xR1fKXSvNxxTitlLtAQVErzBT+jSsf3F6XwlLZk30zpA+2roUd0bFFpfqD0juaUtUBDUMmD1Qpk/5Xz/RuVZrCuKSpzgYagUr6DVdBn2tcNTcn+q1aav9Qh0LFFebD+EWgIKqUZrKe0pWOK8oE8tEo+H4M4H4GGoFKaA9nH/RHlA3loldKcjxlVOq6CUlyBX1NU5gINQaU0B7KP+yPKg3VoldKcjxlVOr6/aF/XFJW5QENQKc2B7OP+iEozWOe0kt1lTWe0rxlVOr6/aF/XFJW5QENQyYN1TivZXVZK8z69GVU6vr9oX9cUlblAQ7DR/u8Uv6EpHdtEaX7xeUEb2V1KpXnz5SNq6Nhq7f9TzksqlblAQ1Bq/wN5QUvqw5ae0D4eUUP2XxPt/03hhqbUhzWd0T5e0BVlLdAQFLSlP2lXj6lWP0rtN7jvaE72c1f0nHa1oI36MdF+g/uJptRQ1gINRandv+gvaEl92tITeqgvNKVa9isT7f5Ff0PtfdynNZ3RLl7QFWUv0JBs9PDXsm5oSn1rP4ZKD/+LExa0kd1HqYd/U/tC7WNTq18FVXr4N7VLKjUQgYZmo/uP1jXNqaFTMKUr+pPuY0Eb2UOUuv9ofaI5bekUFHRFz+g+LqnUgAQaoqjuC/lPukv7XXNJG52egpb0P/qZd9T+b2rZLibqHvtn9DPntKaGTk2p7mP7g+7yiUp1V2SDEmjIphTVjcCtK9pSDuY0pVu1ukNYy1KYqDsfE32zpSvKwZTmdKuhSt3nMEiBzMyy4MGyVKb0ktrbtoZqdd/tL6m9NdtLILN9FPSG5vQrG0mvqCGznXiwbB9Tek8F3UdDM9qS2YMFMttFQR+pvX2Ihh5Te2v2IIHMdvGW5rSLSypl9kCBzB5qSh9oH09pS2b35sGyXazpjPZxQUsyuzcPlu2i0q/fJX4f1xRl9gCBzB7qMxW0j1rdi+9m9xbI7KH+ohR8/uxBfGBsFx4s64UPjO3Cg2W98IGxXXiwrBc+MLYLD5b1wgfGduHBsl74wNguPFjWCx8Y24UHy3rhA2O78GBZL3xgbBceLOuFD4ztwoNlvfCBsV14sKwXPjC2Cw+W9cIHxnbhwbJe+MDYLjxY1gsfGNuFB8t64QNju/BgWS98YGwXHizrhQ+M7cKDZb3wgbFdeLCsFz4wtgsPlvXCB8Z24cGyXvjA2C48WNYLHxjbhQfLeuEDY7vwYFkvfGBsFx4s64UPjO3Cg2W98IGxXXiwrBc+MLYLD5b1wgfGduHBsl74wNguPFjWCx8Y24UHy3rhA2O78GBZL3xgbBceLOuFD4ztwoNlvfCBsV14sKwXPjC2Cw+W9cIHxnbhwbJe+MDYLjxY1gsfGNuFB8t6cYgD84wm6rJhWimNlWyoGtrSDTWURKB9TSSdUZQ0JTOz722pknRJ7Z93FmhXz2lJUWZm91Oru7K+pAcL9FBTekPtrZnZLrb0iio9wEMH63+0kplZGmtqh+te7jtYBb2lKDOztLY0o4Z+KdDvFPSepmRmdghbmlFDPxXoVwryWJnZMWxpRg3dKdCvfKApmZkdw5ae0p1+NVgrdS+ym5kd0wUt6T9+NlhR3VNBM7M+zKjSDwLdxU8FzaxPW3pK/3LXYJXq3hhqZtanBW30nUA/8tWVmZ2CWtJj+keg77VD1Q6WmdkpaJ8WbulvPw7Wms7IzOwUXNCS/vbjYH2gKZmZnYItPaW/fT9YBX0mM7NT8oga+tdgRaV979UNVfr6LzKzUSgoSnpCqcyoEgLdWtJrSuEVrcnMxmmldL8p88+efD9YK6X5F7yjOZnZuFXq/o6HfZ3TSgh0a6U0g/WK1mRm47akFM/azmklBLq1UprBmlElMxu7qDSvi5/TSgh0ayUPlpmlE+XBMrNMRHmwzCwTUR4sM8tElAfLzDIR5cEys0xEebDMLBNRHiwzy0SUB8vMMhHlwTKzTER5sMwsE1EeLDPLRJQHy8wyEeXBMrNMRHmwzCwTUR4sM8tElAfLzDIR5cEys0xEebDMLBNRHiwzy0SUB8vMMhHlwTKzTER5sMwsE1EeLDPLRJQHy8wyEeXB+o8pPaeCppSjhrZUS3pHDZnlLsqD9Y+XtJI00fBs1D1ItczyFeXB+tsbKjVs7VXWC6pklqcoD9Yoxup7T2lLZrmJGvlgLek1jUlDj6m9NctJ1IgHq6CP1N6OzTmtZJaXqBEPVqnu6eAY1equssxyEjXiwbqi5zRWfi3LchM14sGqJD2jsTrU/Wp2KFEerNF6QVdklosoD9ZoHep+NTuUqBEP1prOaKweUy2zfESNeLDm9JbG6IamZJaTqBEPVmtLT2hsFrSRWV6iRj5YUWnugJxcU5RZfqLSfL2e00oIdGul0x+sVqnxvIG0fSoY5V/LsTxFebD+Vqp7Ef4PGqprmlNDZjmK8mD9Y6LuY57TkIarvapa00ZmeYvyYN0pqhOVp1r/zmwIojxYZpaJKA+WmWUiyoNlZpmI8mCZWSaiPFhmlokoD5aZZSLKg2VmmYjyYJlZJqI8WGaWiSgPlpllIsqDZWaZiPJgmVkmojxYZpaJKA+WmWUiyoNlZpmI8mCZWSaiPFhmlokoD5aZZSLKg2VmmYjyYJlZJqI8WGaWiSgPlpllIsqDZWaZiPJgmVkmojxYZpaJKA+WmWUiyoNlZpmI8mCZWSaiPFhmlokoD5aZZSLKg2VmmYjyYJlZJqI8WGaWiSgPlpllIsqDZWaZiPJgmVkmojxYZpaJKA+WmWUiyoNlZpmI8mCZWSaiPFhmlokoD5aZZSLKg2VmmYjyYJlZJqI8WGaWiSgPlpllIsqDZWaZiPJgmVkmojxYZpaJKA+WmWUiKoPBWtBGZjZ2paQ3tK9zWgmBbq2UZrAuaElmNm5rOqN9ndNKCHRrpTSD1dBTqmVmYzWR9IEK2tc5rYRAt+b0llJoaEnXVMvMxmIi6RmtqaAUXtAVKdCtKX0gM7NT8pS29K/BajX0B5mZnYIvVNDffhysK3pOZman4B3N6W8/DlapND+GNDNLYUEbfRXoewXV8tNCM+vfF5qoe6nqb4F+tJH0kszM+nRBS/rHXYM1kfSRzMz69JhqfSfQXVZK8yZSM7NdnNNKPwh0l4IqSU/IzOyYbmhK//GzwWq1/4cPZGZ2LF8o6usbRX/0q8FqlfLbHMzseBa00U8E+p1SHi0zO7wFbfQLge6jlEfLzA5nQRv9RqD7iup+decPMjNLoX3Nak6V7uEhg9UqaCP/vqGZ7e8dlfruney/89DBujWnJT0jM7OHuKaV7nlV9b1A+4jqFvIlmZn9yiVttMNQ3QqUQkFR3Xu3oqSJpD/JzMbpE9XqxmlLlR7w1O9n/g9cvmN43zHNUAAAAABJRU5ErkJggg==;" parent="1" vertex="1">
          <mxGeometry x="-1801.75" y="300" width="65.5" height="65.5" as="geometry" />
        </mxCell>
        <mxCell id="h75pCEdkkC_XDxHb6yKX-30" style="edgeStyle=orthogonalEdgeStyle;shape=connector;rounded=0;orthogonalLoop=1;jettySize=auto;html=1;labelBackgroundColor=default;strokeColor=#0000CC;strokeWidth=2;align=center;verticalAlign=middle;fontFamily=Helvetica;fontSize=11;fontColor=default;endArrow=none;endFill=0;exitX=-0.047;exitY=0.492;exitDx=0;exitDy=0;exitPerimeter=0;entryX=0.5;entryY=1;entryDx=0;entryDy=0;" parent="1" source="h75pCEdkkC_XDxHb6yKX-28" target="749JlQ45wNmBAUl5USfy-60" edge="1">
          <mxGeometry relative="1" as="geometry">
            <mxPoint x="-1280" y="1170" as="sourcePoint" />
            <mxPoint x="-1640" y="1350" as="targetPoint" />
          </mxGeometry>
        </mxCell>
        <mxCell id="h75pCEdkkC_XDxHb6yKX-65" value="6类网线" style="edgeLabel;html=1;align=center;verticalAlign=middle;resizable=0;points=[];fontSize=11;fontFamily=Helvetica;fontColor=default;" parent="h75pCEdkkC_XDxHb6yKX-30" vertex="1" connectable="0">
          <mxGeometry x="-0.6705" y="-1" relative="1" as="geometry">
            <mxPoint x="-92" as="offset" />
          </mxGeometry>
        </mxCell>
        <object label="摄像头" id="h75pCEdkkC_XDxHb6yKX-28">
          <mxCell style="shape=image;verticalLabelPosition=bottom;labelBackgroundColor=default;verticalAlign=top;aspect=fixed;imageAspect=0;image=data:image/png,iVBORw0KGgoAAAANSUhEUgAAASwAAAD7CAYAAADQMalWAAAaRklEQVR4nO3d73nTSPu38e9UwGwFiAowFaBUEFNBlAoiKniGChAV/OQK1lSwSgVrKrjtClapgOfUPeRO2PAniS17NLo+x3GSY98ska25LA0iOBljxrCgCxq+FooNOklbSWv6TOYJHBljDmcYUjUt6He2koKkFZlHcGSM2Y+n20FV6Ok6Se+oJ/MLjowxz1PoblB52seGzqgn8xOOjDFPU0j6f1TpsDZ0Rj2ZH3BkjHmcUnFQlRrPBwoyP+TIGPNrF1TTgo7hFW1lHnBkjHnI0zkFSYWOa0WVzAOOjDF3hkF1RTV5OoWeXtHw1dzjyBgjFYr7U5XS8IGCzHccGTNnpeIV1ZJSslW8yjL3ODJmji6oUhxYqbqkVuZ/HBkzF57OKUgqlL5O8bks840jY3I3DKorqsnTlLyhDRnYwDI5K5TWRvpzrKiS+S9HxuSmVLyiWlIOXtFWxgaWycoFVYoDKycfKMjYwDKT5+mcgqRCeerpD5o9R8ZMkacrqslT7i6p1cw5MmZKCsWN9CV5mosNvaFZc2TMFJS626OaqzPqNGOOjEnZOdVUynymJc2WDSyTquFqKkgqZO57RVvNlCNjUuHpimryZB76RDXNkg0sk4JC89xIf46eXtHwdXYcGXMqpeKtXyXzFO+podmxgWVO4ZxqKmWeY6t4lTU7jow5luFqKkgqlKcb6hQH8tje0ZpmxZExY/J0RTV5ytGOguIA6Wkr6SWNqVN8LmtWHBkzhkL5b6RfU6vYfUHx2Mf2iraaEUfGHNKChiuqSvn6TA11+t6CjnnsK6o0I46MOYRS8aqiVL5WFPTwqqbU6Y79D+ppFhwZs48LCpIK5emGmm/1dF8Kx/6BgmbCkTFP5en21qdQnnYUdLeRfstTSse+VdzLmgVHxjxWobvFOizcHF1Tq9h9hdI99ktqNQOOjPmdBd0u1lxdU9DpN9KfY0NvKHuOjPmZUqfbTD6WFQXFW6v7Sk3r2M+oU+YcGfNvFxQkFcrTDTXU6uGgmuqxr6hS5hwZM/B0e+tTKE87aqhV2hvpz/WKtsqYIzNvhe4W67Bwc/SFGmr1vUJ5HfsHCsqYIzNPC7pdrLm6pqCHezu5HntPr2j4miVHZl5KTWsz+TlWFPTw9qhU/sd+Sa0y5cjMwwXVtKAc3VBDrR4OquHYg6RC+dsqXmVlyZHJl6dhsdZUKE87aqjV97dCnm5v+wrNyxl1ypAjk59Cd4PKU46+UEOtvlfoblB5mqPPtKTsODL5KBT3aCrl65qCHl5BLOh2UJl4W7hVZhyZ6SsVB1WpfK0o6OEiLJX/sT/H8HpVyowjM10XVNOCcnRDDbV6OKiGYw+SCpkf6ekVDV+z4chMi6dhsdZUKE87aqjV9wvO0+1tXyHzO++poWw4MtNQ6G5QecrRF2qo1fcK3Q0qT+ZxtopXWdlwZNJWKO7RVMrXNQXZRvoYLqlVJhyZNJWKg6pUvlYUFK8E7junmkrlazj2Bb2mMXWKz2VlwZFJywXVtKAc3VBDrR4OquHYg6RCebo99qGeKkn/R2N7QxuaPEfm9DydU5BUKE87aqhVXKy3PF1RTZ5yNBx70MOfDz8Y/vsFjWlFlTLgyJyOpyuqyVOOvlBDrb5XKN7yLslTjq6pVexnguLrMLY/qKdJc2SOr1A8SSvl65qC4h7KfaXirV+lfH2mhjr9nqd/aGwfKGjiHJnjKRWvqJaUqxUFPdyfOqeaSuXrZ8f+O63iEB9TT3/QpDky4xtOxkr5LtYbaqjVw8U6HHuQVChPt8c+1NNzFJL+Q2O7pFYT5siMw9NwVREkFcrTjhpq9f1i9XRFNXnK0XDsQT/eSH+OTtJbGtOG3tBkOTKH5Sn3xfqFGmr1vUJxb25JnnJ0TQ2t6ZCW9CeN7Yw6TZQjcxiF4mKtlK9rCnp4wpeKt36V8rWiVg+P/ZC2kl7SmIbjqDRRjsx+SsUrquETMlcrCooL6r5zqqlUnm5oTUEPj30MlY7zIOkr2mqCHJnnuaBKeS/Whlo9PLmHYw+SCuXp9tiHejoWT1uN/yDpJ6ppchyZx/N0TkFSoTztqKFW3y9WT1dUk6ccDcceFI/9VBoaXucx9fSKhq+T4sj8nqfhJKrJU46+UEOtvlco7s0tyVOOrqmhNZ1aIXvE4accmZ8rNI/FGvRwM7lUvPWrlK8VtXp47KfWKr72Y9oqXmVNiiPzUKl4wlTK14oa2tB951RTqTzdUKt47FulqZT0F43tHa1pMhyZO3NerBcUJBXK045axWPvKXUbek1j6hSfy5oMR2a+i9XTFdXkKUfDsQfF45+SSvaIwwOO5mpYoHNdrIXmuzc3JVvZg6TfcTQ3hea7WEvFq8lK+VpRQxuauqB4ro6pp1c0fE2eo7koNd/Fek41lcrTr/bmpszTVuM/SPqBgibAUe7OqaZSefrVYh0GdJBUKE87ahWPvacctYrv45i2ildZyXOUq+FNDpIK5WlHrR4uVk9XVJOnHH2hhlrlr5A9SPo/jnLiKffFuqOghydXobjfsSRPObqmoId7c7nrNP7Pyuo0gUccHOWg0HwXa6k4pJeUqxUFxVuXOSp1nAdJz6hTwhxN2YKGxVopXytqaEP3XVCleDLn6IYaajXfQXXfVvaIw2QHVql4RVUqT8NibRUX7FZ3PJ1TkFQoTztqqNX3e3NzV8keJJWjKbmgIKlQnnbUKi7Ynm55uqKaPOXoCzXUyvyIp61m/oiDo9QNb9QVVZIK5WlHQQ8Xa6F4JVkpX5+poU7md4Li+TCmnv6gJDlKVaG7QeUpR9cU9HCxlorHvqRcrSgoXjWYxyk080ccHKVmQcNirZSvFTW0ofsuqFIcWDm6oeZbPZmnaxXPkzFtFfeykuMoFaXi5W6pPA2LtVVcrFvd8XROQVKhPO0oKP7spZ7M85Wa8SMOjk7tgoKkQnnaUas4qHq65emKavKUo2tqFTOH02n8B0k/05KS4ugUPA2LtZJUKE87Cnq4WAvFK8lK+RpO9oY6mTFUmukjDo6OqdDdoPKUo2sKerhYS8VjX1KuVhSU2Emeqa3Gf5D0E9WUDEfHsKBhsVbK14oa2tB9F1QpDqwc3VDzrZ7McdT0kcbU0ysavibB0ZhKxdufUnkaFmuruFi3uuPpnIKkQnnaUVA8fnN8wzm21fgPkr6nhpLgaAwXVNOCcrSjVvGN7OmWpyuqyVOOrqmhNZnTahXX2pi2ildZSXB0KJ6GF6+mQnnaUVA8Ue4rFK8kK+VrRa0e7s2Z0yl0nAdJ39GaTs7RvgrdDSpPObqmoIeLtVS8olpSjm5oTUHxk9akZ3h/zmlMneJzWSfn6LkKzeOqoqEN3XdBleLAytEwqJpv9WTSVeo4D5K+oQ2dlKOnKhUHVal8faaatrrjafgkC5IK5WlHQfHWz0zHVuM/4rCiSifm6LEuqKYF5a6nS1qTpyuqyVOOrqmhNZnpqXScB0n/oJ5OxtGveLqgmgrNz5qWlKsVNbQhM209vaAxfaCgE3L0I56uqCZPJh831CoOqq1MLoLiVs2YtjrxIw6O/q1UvLwsZHKyo1ZxUPVk8lLoOI84XFKrE3F0X6U4rEw+dhR0wpPMHIWnv2hBY9rQGzoJR7eW9CeZPFxTUHyGxuSrULwVHNavp2M4o04n4GgwHOh/aPhqpm1FDW3I5KtU3Gde0rEN51ilE3A0aBX/NNBM0w21ioNqK5OzYZ3WtKBT6ekPOrphYBWKV1dmenbUUKt4Epk8ebqgmgql4Yw6HZmj4UX4SGY6vlBDrUzOCsXbvkpxaKXkHa3pqBx1Gv/nQx/SDfX0kubmmoLie2byVSpeUVVK1wcKOjJH/5Cn1O0oKF5VDN/vmt7SHKwo6DD7U56G121JheJeiKcN9bSmz7SVObZzqqlU+j5Q0JE5+kopu6aG1vRvQfGPdHN0Qw21OtzwGF6rmjz9Tqt4Um5lxjS8F8OgCpIKTcc7WtNROfpKKVpRq9/f/iyp1fh/j+pYdtRQq3jFcwiF4jN2C3qKnt5TK3NoheJtX02epuYNbeioHA2/6WtKwQ2tKehpn+wLapXOcTzHF2qo1WEt6C/y9FyX1MocwoKuqNJ07ajQCTha0zmd2icKip/qz+GpVRrH8hSfqaFOh+fpbyq0v0tqZZ6rVLwlLzV9HyjoBBxVSuPvD27okoav+wiKJ0bqVhT0tCvJp/qLSh1GT29oK/MUFxQkFcrDDRWK58PROfL0D6Wgp3fUaT9LapXmvtYHaqinMZWKA+uQVlTJ/I6nK6rJU07eU0Mn4WgwfAPDC5yKmj7RPgrF293XlJJOcSj3NKY1ndOh/UE9mYcKxav7SnlaUaUTcjTwtKGXlIpWcZr39FyeGrqglGwVh9aGxuDpHxrDJbUy95WKH/hLytWKKp2Yo1ulDn8Lsa8NDQt7q/3U9JFS0tN7anV4pcZ7Lz/Tkkz8IKxpQbm6oYaCEnB/YA0qpbEBf19P76jTfkrF26QXlJKG3tMhBcVbkzFcU6n58nRFlaRCeVtR0P4XDAfj6N9Kpbmwa/pE+ygUj+01paRTHMo9HULQeANrqxP/XO8TKRRf0yV5ytUNNdQqvtdJcfQjhdJc2K3iHso+PDV0QSnZKg6tDe0rKC6uMVxTqfkoFc+VSnnbUVBc9z0lydHPeGpoeLNSsqEz6mkfNX2klPT0nlrtZ0l/0hiuqVT+hvO+Uv7HOryfDa0peY5+p6aPlJKezmhD+1hQp/RufxsaBtdzLehvGsMnqilHnoZBVVOhvK2ooQ1NhqPHKBUn8AtKySW12o+nTund/m7ojHp6jq3GeUzlDW0oJ4XuBpWnOXhHa5oUR49VKB5gagu7VRxc+2oVT9qU9HRGG3qqoMPvY+2oUD4WdEWV5uczLWlSHD2Fp4YuKCUbOqOe9lEpvcc6BpfU6mk8bXXYq+LnfB8pOqeaSs3bK9pqQhw9R9DhP7331dMZbWgfC+p02IV+CK3iwHiKSocbwNdUaro8nVOQVMgMPlDQhDh6riW1Sm9hX1Kr/Xha01tKyYbOqKfHauiK9vGFSj3t902Fp+H4a/Jk7mzoDU2Go30sqFV6+1oNvad9Df+fK0pJT2e0ocdq6LnH8YVKxd93SgrFu4BK5lf+oMm8t4725alVvNxOSaf4JyE97aNSXPAvKCWX1OrxltTqacfxiYL2fw2PqVQcVKXMYzz1PDopR4cSFE+UlGwVh9aG9rGgNb2klLSKJ9xjeaqp0s+P5YbWFBRfv6m4oCCpkHmKT1TTJDg6pCW1etqn+Nh6ek+t9uNpTW8pJRs6o56eolCsVLShnjpNh6crqsmTebprKjURjg5tQa1sX+uYejqjDc1BoXg1vyRPudrRmsY837aKjzdMgqMxeGqV777WklqldSU5uKRW+SoVF+/w+ufsmlrFBj29oLE4moSxv9GGriglW8WhtaF9LKhVeleSreLgyskF1bSgnK2oVfxgva9VfA3G4mgSjvGNVoqD6wWloqdLWtM+PLVK70pyQ8NQ3mq6PA2LtKZC+bqhVnGNbPVjQfEWeCxn1GkCHB3Dgtb0klISFJ/23VfQuCfUc/T0jjpNS6F4VV4pDq1c7aihVvG9+pWgcc+vM+o0AY6OxdOa3lJKhu/pknrax5JapXUlOajpE6WuVLyiqpS3a2oVe6wgG1j/5ejYGrqilGzokoav+1hQqzT3td5TT6m5oEpxYOVsRa2eNxjWdE5jcTQJp/pGK8XB9YJS0dMlrWkfnhoaFmJKNvSOtjo9T+cUJBXK3xl1ep7htfoPDV/H4mgSTvmNLmhNLyklQYfZ16rpI6Wkp2FodTqNQnGQ1+RpLtY0vO7PETTu7eDA0SSc+hv1tKa3lJJWh7mFKhWP7wWlpKZPdCwLuqJK8/WO1vQUC/qLPI1lR4UmwlEKWsVP3pRsaDjJttpPoXiivqaUtDrMUP6VUvHqoJQZXucz2tBjePqbCo1rRZUmwlEqKh3uh80dSk/vqNN+PDV0QSnZ0HB8Wx3WcJxBUiFzX09Bv7+6XdL/kaexvaeGJsFRShbUKd9bqOH/85FS0tM76rQfT1dUkyfzc1vFwbVV/HljPRWKWyOVjntF+oY2NAmOUuOpU763UAvqlM9QLhRv+yqZKXI0GSl/s63irUVKNvSOttqPp07THsql4qAqZaZqRZUmxFHKKsV7+ZQMi/kdddpfq+kN5eH7rWlBZtqG93lNk5H6wBosqFN6t1CX1Gp/ldIcysPxrWng6YoqSYXydUMvaA52VGhiHE3BsGA6pXkLdUn7WlCn9BZLTQtakqdcfaGGOsWnyufgE9U0KY6mpFW8JUnJhs6op314WtNbMsfxmRrqdKdVeufYGF7RVhPjaGoqpXkLdUYb2ldDV2TGcUNrCvrxgvW0VXpXu4f0gYImyNEUlYonXWon1SW12l+lOLhSO74p21Gr+Lr29CtB8U9AczQM7EK/fw2S5GiqCsWh9ZpS0ioOrn0taE0vyTzfF2qo1eN52lCOr/0HCpooR1PmqaELSsmGzqinfXha01syT/OZGur0PAv6m3LyhYbjmixHOajpI6WkpzPa0L4auiLzaze0pqC4D7Wvmj5SDobXZkFbTZijXJSKJ+sLSkVP76nV/pbUKq3jS8WOWsXB3tMhremcpu6SWk2co5wUiifYa0pJQ8Pg2teCWqV3fKfyhRpqNR5Pnab9mq+oUgYc5WY4wRq6oJR0in8Voqd9eGqVx6f+c32mhjodh6dO0xxaK6qUCUe5qukjpWSrOLQ2tK+gfP/o/UduaE1B8XU8Nk+dpjW0VlQpI45ytqRWae379PSeWu3vT1pSznbUKl5R9XRKntb0llK3okqZcZS7BbVK75OxoWFwPZWnK6rJU66+UEOt0hOU9tXtexpeu+zMYWANPLVKb99nTZfU0+8UiotkSZ5y9Zka6pS2UvH9e0GpuKEldcqUozkJios+JRu6pOHrj5SKV1RLytWw0NYUdJr9qefyFBTfn1NbUU09ZcvR3CypVVqfjD1d0ppuXVBNC8rVMKiab/U0VYXi4Bres1O4pFYz4GiOFtQqvX2toKiSVChfOwqK70FOhvOqpiW9oGM5o07TUyhepW7oURzNladW6e1r5eyagqa5uJ6qUhxcxzi/zqhT+grF2+fhdSn0vZ7W1Cne3v6Qo7kLSm9fKzcrCprW/tQhlYr/gvNYzqhTugrFNVbpcbaKf9I5DLDvODLxhWzoBZnDuKHhNR3qae6+0ljOqFOaSsXnBT09Vau4P/c/jky0oDW9JPN8OwqKJ5u585XGckad0rOkYVjto9W9oeXI3PG0prdknuaagtJcOCn4SmM5o05pWdBf5GlfHygIjsxDDV2R+b0VBcV9B/NzX2ksZ9QpLX9RqcP57zE6fjE/VikOrhdkvmf7U0/3lcZyRp3SUenw/1BMJ47T8Yv5uQWt6SUZ25/ax1cayxl1SkencbZVXjl+Mb/maU1jvAFTcU1B8UQ0z/OVxnJGndLg6R8aw3vHL+ZxGrqiOVlRkO1PHcJcBlapuH81hmvHL+bxKh3+3jw1tj81jq80ljPqlIaaPtIYbGA9w4I65bcZv6Mg258ay1wGVlB8qn0UjszTeeqU3l+efo5rCorHY8bzlcZyRp3SEGQDK1mtTvcjRfa1oiDbnzqWrzSW99RQCoJsYCWt0nT2tW5oOLGHejLH85XG8olqSkGQDazkLahTuvtaOwqKj2f0ZI7vK41leE9f0fD11IJsYE2Cp05p7WtdU0NrMqfVadxn+Vrd+0vCJxRkA2tSWp1+X2tFDW3IpKHTuANr0Or0QyvIBtbkVDr+vtYNNdTKNtJTNLw3VzS2reLQ+Ew9HVuQDaxJWlCn8fe1dhQUb/t6Mmla0p90TOtvXdNWxxFkA2uyCsUT5jUd2jU1tCaTvkLSf+hUNtQqXnltNZ4gG1iT5qmhCzqEFQ3/vw2ZadkqjZ/8MZw7rcYZXkE2sLJQ00d6jhtqqNXhTzBzPK0O98F1KBtqdbjhFWQDKxsLavX4W8QdBcXbvp7MtC3ob0rVhlrtN7yCbGBlZ0mVfvxv1t3Q+l4mL53Gf7zhELaK59+KNvRYQTawslbqzlYxk69Kx3/kZV9bPX54BdnAMiYrPb2gKdrq18MryAaWMVlZ0p80dVs9HF5BNrCMyU6naexlPdZW8Zg8LWkUNrCMOY1Cp32QdJIcGWNOI2jE26cc2cAy5rRapfcwabJsYBlzWp46Pf5h4lmzgWXM6Q1Da0MvyfyCDSxj0lAoPiJgV1q/4MgYkwZPa3pL5gdsYBmTnla2Ef9DNrCMSdOSGnpJ5hsbWMaky1PQcX4W/CTYwDImfQuq6YJmzQaWMdNRKP54mkozvVV0ZIyZnuW9XtAs2MAyZvqGoVUqfs36yssGljF5WVClTIeXDSxj8rWg5bde0+TZwDJmHgrFwVVpwsPLkTFmXgrd7Xmd02Q4MsbMl6flt5IfXjawjDG3PJWKw2voBSXFBpYx5meGoXVbEsPLBpYx5jFKxcE1dLLHJWxgGWOeakGVTjC8bGAZY/axoFJxgL2mUdnAMsYcSqH4M7zOaRSOjDHmUIJG/LcWbWAZYw4pyAaWMWYigmxgGWMmIsgGljFmIoJsYBljJiLIBpYxZiKCbGAZYyYiyAaWMWYigmxgGWMmIsgGljFmIoJsYBljJiLIBpYxZiKCbGAZYyYiyAaWMWYigmxgGWMmIsgGljFmIoJsYBljJiLIBpYxZiKCbGAZYyYiyAaWMWYigmxgGWMmIsgGljFmIoJsYBljJiJovIF1YwPLGHNINX2kMVzbwDLGHFIp6S8aw2cbWMaYQ/tKY7i0gWWMObQ1ndOhvbKBZYw5tFKHvy1cUeX4xRhjDu3QV1mvaOv4xRhjDs3Thl7Svi6pFRwZY8wYFtRJekHP9YGCvnFkjDFjKRRvD1/TU11Sq3scGWPM2ILiQ6Uv6HdWFMSelf7FkTHGHIOnJZWSCklvabCjreKV2NBWP/H/AWWYtvXi1FylAAAAAElFTkSuQmCC;" parent="1" vertex="1">
            <mxGeometry x="-1382.09" y="1140" width="72.91" height="61" as="geometry" />
          </mxCell>
        </object>
        <mxCell id="h75pCEdkkC_XDxHb6yKX-34" style="edgeStyle=orthogonalEdgeStyle;shape=connector;rounded=0;orthogonalLoop=1;jettySize=auto;html=1;exitX=1;exitY=0.5;exitDx=0;exitDy=0;entryX=0;entryY=0.75;entryDx=0;entryDy=0;labelBackgroundColor=default;strokeColor=#0000CC;strokeWidth=2;align=center;verticalAlign=middle;fontFamily=Helvetica;fontSize=11;fontColor=default;endArrow=none;endFill=0;" parent="1" source="h75pCEdkkC_XDxHb6yKX-33" target="h75pCEdkkC_XDxHb6yKX-11" edge="1">
          <mxGeometry relative="1" as="geometry" />
        </mxCell>
        <mxCell id="h75pCEdkkC_XDxHb6yKX-33" value="jmeter客户端" style="shape=image;verticalLabelPosition=bottom;labelBackgroundColor=default;verticalAlign=top;aspect=fixed;imageAspect=0;image=data:image/png,iVBORw0KGgoAAAANSUhEUgAAASwAAAEsCAYAAAB5fY51AAAY4klEQVR4nO3d73XTyNvG8WsqQFsBpgJMBStVsNkKcCqIqeB3TwWEClapgFAB4wowFWAqwFTAc+kRnGVh4sj6kxlF1+ec78mbPUS513OjOHZwEBGZCS0sEZkNLSwRmQ0tLBGZDS0sEZkNLSwRmQ0tLBGZDS0sEZkNLSwRmQ0tLBGZDS0sEZkNLSwRmQ0tLBGZDS0sEZkNLSwRmQ0tLJHH4yXbsjW7yy17wwJmSAtLZP4K9p6tWVc1gEs2K46JyHwV7Nxl9cMt+5vNhhaWyLzVaL8V7OuS1ZgJx0RknlYAPrEhDgCesVlwTETmactes6FesD3LnhaWyHxdsys21N/slmVPC0tkvgKAP9lQnhlmwDEReThr9oQ1PrIj6ysgj4W1AvCUNT6zAybimIhM74pt2Qr/dcs827NzBaRdWCXa59DW7Gd79ooFjMwxEZlOwd6zNTvlktU4T0C6hfUP2+C0Gu3XNRrHRGQaBXvP1qyLS1aju4A0C+sftkE3NdqvaxSOicj4Cvaerdk5LlmN0wr2FzMAKwy3ZwbgHbvPP2yD89Rov67BHBOR8fU52D9cshq/e8kuvjeFI7tlb9ie/eoftkE/r9g1G8QxERlXczCv2BCXrEbrJTMAKzycgPZbxYDWP2yDYf5mt6w3x0RkPCsMf7vMD9fsgq2QTkD7MoUNhjtg4NuAHBOR8dRo74gk7pLV6MkxERnPJ7aC3OWGbdCTYyIynm9M7rZjJXpyTETGo4V12o6V6MkxERnPAf++r05+d8M26MkxERnPNRv6kobHbNBLG7SwRMa1QvvEu/zuM1thAMdEZFxb9prJf71ge9abFpbINGro9Vg/u2Q1BnJMRKZRI83S2rFGczdzZGtWsBXS/EDgktUYgWMiMp0a0y+tj6xG+zaaPTulYCXat/w0PWFTumQ1RuKYiEyrxjRL64YZ2pdS9FGwLdtgmjuvV+yajcYxEZnenj1nY/jINmj/zDEUbMv+x8ZywzYYmWMiMr1PbIXhPDNMY81u2VM21A3bYGSOici0Nmh/n9QQX9kG7UKZUsECxrkbfMYOGJFjIjKtT2yF/pplVWK8bwHvU7CA4UvLM8OIHBOR6Www/O7qb3bLHlLBAoYtrSN7xpqPo3BMRKZzy/5ifXlmSGOF9q7uCevrktUYiWMiMo2CfWF97ViJtC7YW9ZXAFCxUTgmItPYYNi3g8/YAekFDPv3D0f7OhwTkWncsr9YHzdsgzys0P7goK9X7JoN5piI9HPFLliJ8T1jB5yvYH+xC1awH/bshjUf+7hlzZ87piMLaK/rlt3LsXOs0P7UYM1ETmkeIwXL2Q2rcb41e8tWmMY7dsHOdcUMp+d+y16xA85zwd6yqQS0Pw09sjs51sWavWYlRB6PS1bjPM1ZeM8KNpVzr6u5luZ8btDNkVVsz85xwDivgr9Lcz3NdR1ZlGP32WDYE4ciuapYwHk+sDWbkmPneMsu2DmOrGJ71lWNad7E/bM3bMuiHDtlAy0rebwqFtDdBtOfhx0r0d0G/a9pz16wrjbo/7nO8YwdEOHYXVZo/zYpmMhjVLGA7mokvsP4RcGaM7pCf5esRjdr1ny+qb1i1+w3jt2lxvT/c0RSqlhAd81hXbMp3XlYIy7YWzbEjpXo7hub2g3bIMKxu3xhBRN5rCoW0N1DHNZzrqnGODcVjnV1ZE/YlHasRIRjMSXan4SIPGYVC+juG5vaOdcUMOwV6D+k+Jyn7FiJCMdiLthbJvKYVSygu29saudcU8A4yyPF5zxlx0pEOBZjGPfXpYrkqGIB3X1jUzvnmgLGWR7nfM4PbM2mtGMlIhyLMWhhyeNXsYDuvrGpXbIa3dQY5zmsP9iRdfGNTe0du2C/cSzGoIUlj98lq9FdwDh3NKd4Zuhmg+Gvi/rI1qyLgn1hU7tzBo7FGLSw5PHzzNBdjXHuaE55xy5YFwU7YNhP7S5ZjW5KPMwP416wPfuNYzEGLSx5/DwzdFdi+gN7ZH+wrgz9z+pntkJ3hv6fq6sdK3EHx2IM01+YSGo7VuI8t+wvNqUXbM+6Cuj3req5n+cDW7Mpnbwmx2IMWljy+B3Qvm/tHAULaH/N0lTesC3rqmAB3a/pK9uyGt2tMOyX+HVxyWqc4FiMQQtLluGuM3BKwWpMd6d1QL9Famh/J9YpH9kGJ+5i7mCYbid8Zlt2y05yLMYw3cWJ5KRiAf2s2Qbtx5g/WV+XrMb5VmiftG9asydsxw5oF0JTH19Ywfr4zA743ZHdfu/I7uVYjEELS5bhFbtmU9iz56yPA86/y5qKYdg+eMGaWQzmWIxh2AWKzMU7dsGmcM2uWF+eGdIq2CfWfOzjM1thJI7FGLSwZBkOmO5OZs0+sCFesD1L5T0r0d8btmWjcCzGkOfC2rED2kTGYpjOAcN+D/qeVezIHtqWvWZDvGB7NgrHYgz5LKzPzHDGE3MiGTEMP0t71hz8h7TB8Lf9NGd3hRE5FmMYPuQxeGYQma+CfWFD7VnFjmxqGwxfVo1LVmNEjsUY0i8szwwi81djnPcg7tnf7IDp/I8ZhvvKCjYqx2IM7YWn8pmtIPI4rND+pG0MR3bJbtmYVmjvqkqMwzPDyByLMaRdWG/Ylok8Bhu0y2BMAe1SCBimYFdsywo2lhrtYh2VYzGGtAvrFbtmInN3wd6yqQS0y+GGnWPNXrINxl1UP6sx8tJyLMaQdmFVLEBk3tbsPSvYQ7hl++8dWcOxb6yx/l4JYIWHUWPEpeVYjEELS2SIZjG8ZwVbuhojLS3HYgxaWCJ9rdl7VjBpvWFbNohjMQYtLJE+CvaBrSC/+pvdst4cizFoYYn0YUh7dnJ2wMD3bToWY0g79IoFiMzPJ7aC3KViAT05FmPQwhLp4xuTu3lm6MmxGIMWlsi5SrRPtsvdPDP05FiMQQtL5FwF+8Lkbp4ZenIsxqCFJdLHkT1hEnfJavTkWIxBC0ukjxrtW14k7g/WLPVeHIsxaGGJ9LFC+5PCoW5Y4yVLaccCxtkHnhkGcCzGMM4F9lWxAJF52mDYb2f4yNassUJ7Hl+yh7Rjhn/P4QbDv6YSA+6uGo7FGLSwRIao0W/J3HWwV2jf2nLBnrKp3LAa8fO3Qb+lddfXdDbHYgxaWCJD1ThvaXU92Gu2ZRdsjCf4d6xG+7aZIztlg/OW1ldWov0NEoM5FmPQwhIZQ41uS+sjK3H/wvhZwLB/XfqHc8/bBt2W1ldWYqRl1XAsxqCFJTKWa3bF7vKObXDesmoEpFlYjQ3ar+sJi/nILtgBI3IsxqCFJTKmFdpv49bf27MD2juwgH4C0i2sRsE2aBfTCu3CPaD91rLGBByLMWhhieQuIO3CenCOxRi0sERyF6CF9f8MWlgiuQvQwvp/Bi0skdw1zxX9xYZ6xg6YAcdiDFpYIrnboNvLC05pfpq3ZrPgWIxBC0skdwXbs6esr0tWYyYcizFoYYnMwQV7y/rYsRIz4liMQQtLZC42OP9bw+ZbwRLta6dmw7EYgxaWyJyUaM/tn+yUr+yaGWbIsRiDFpbIHK3QVuK/9uzIAmbMsRiDFpaIZMaxGIMWlohkxrEYgxaWiGTGsRiDFpaIZMaxGIMWlohkxrEYgxaWSCoG4Dm7Ze/YkQk5FmPQwhJJxfDf87dntyygfcHnkS2SYzGG/w7soVUsQGSZDKfP3/57B7Qfj2zHzlWw5k6u+bj+qRtmyJBjMYbTA5taxQJElsnQ//wd0HZKidM8M2TIsRhD/4GNoWIBIstkSHv+PDNkyLEYQ9qBVSxAZJkMac+fZ4YMORZjSDuwigWILJMh7fnzzJAhx2IMaQdWsQCRZTKkPX+eGTLkWIwh7cAqFiCyTIa0588zQ4YcizGkHVjFAkSWyZD2/HlmyJBjMYa0A6tYgMgyGdKeP88MGXIsxpB2YBULEFkmQ9rz55khQ47FGNIOrGIBIstkSHv+PDNkyLEYQ9qBVSxAZJkMac+fZ4YMORZjSDuwigWILJMh7fnzzJAhx2IMaQdWsQCRZTKkPX+eGTLkWIwh7cAqFiCyTIa0588zQ4YcizGkHVjFAkSWyZD2/HlmyJBjMYa0A6tYgMgyGdKeP88MGXIsxpB2YBULEFkmQ9rz55khQ47FGNIOrGIBIstkSHv+PDNkyLEYQ9qBVSxAZJkMac+fZ4YMORZjSDuwigWILJMh7fnzzJAhx2IMaQdWsQCRZTKkPX+eGTLkWIwh7cAqFiCyTIa0588zQ4YcizGkHVjFAkSWyZD2/HlmyJBjMYa0A6tYgMgyGdKeP88MGXIsxpB2YBULEFkmQ9rz55khQ47FGNIOrGIBIstkSHv+PDNkyLEYQ9qBVSxAZJkMac+fZ4YMORZjSDuwigWILJMh7fnzzJAhx2IMaQdWsQCRZTKkPX+eGTLkWIwh7cAqFiCyTIa0588zQ4YcizGkHVjFAkSWyZD2/HlmyJBjMYa0A6tYgMgyGdKeP88MGXIsxpB2YBULEFkmQ9rz55khQ47FGNIOrGIBIstkSHv+PDNkyLEYQ9qBVSxAZJkMac+fZ4YMORZjSDuwigWILJMh7fnzzJAhx2IMaQdWsQCRZTKkPX+eGTLkWIwh7cAqFiCyTIa0588zQ4YcizGkHVjFAkSWyZD2/HlmyJBjMYa0A6tYgMgyGdKeP88MGXIsxpB2YBULEFkmQ9rz55khQ47FGNIOrGIBIstkSHv+PDNkyLEYQ9qBVSxAZJkMac+fZ4YMORZjSDuwigWILJMh7fnzzJAhx2IMaQdWsYD8bQC8ZJK/G1ZjHgxpz59nhgw5FmNIO7CKBeTPkHZO0p1nhnkwpH1cZTsrx2IMaQdWsYD8GdLOSbrzzDAPhrSPq2xn5ViMIe3AKhaQP0PaOUl3nhnmwZD2cZXtrByLMaQdWMUC8mdIOyfpzjPDPBjSPq6ynZVjMYa0A6tYQP4Maeck3XlmmAdD2sdVtrNyLMaQdmAVC8ifIe2cpDvPDPNgSPu4ynZWjsUY0g6sYgH5M6Sdk3TnmWEeDGkfV9nOyrEYQ9qBVSwgf4a0c5LuPDPMgyHt4yrbWTkWY0g7sIoF5M+Qdk7SnWeGeTCkfVxlOyvHYgxpB1axgPwZ0s5JuvPMMA+GtI+rbGflWIwh7cAqFpA/Q9o5SXeeGebBkPZxle2sHIsxpB1YxQLyZ0g7J+nOM8M8GNI+rrKdlWMxhrQDq1hA/gxp5yTdeWaYB0Pax1W2s3IsxpB2YBULyJ8h7ZykO88M82BI+7jKdlaOxRjSDqxiAfkzpJ2TdOeZYR4MaR9X2c7KsRhD2oFVLEBkmQxpz59nhgw5FmNIO7CKBYgskyHt+fPMkCHHYgxpB1axAJFlMqQ9f54ZMuRYjCHtwCoWILJMhrTnzzNDhhyLMaQdWMUCRJbJkPb8eWbIkGMxhrQDq1iAyDIZ0p4/zwwZcizGkHZgFQsQWSZD2vPnmSFDjsUY0g6sYgEiy2RIe/48M2TIsRhD2oFdshoiy1Qj7b936ZkhQ47FGNIuLM8MIssUAPzJUsn2/DkWY0i7sN6xCyayNAX7xJqPqXhmyJBjMYa0C6vxBzsykSUxpD97nhky5FiMIf3QbtgGIsuxAvCBFSwlzwwZcizGkH5hNS5ZDZHHr1lS79mapeaZIUOOxRjyWFiNS1ZD5PFaAXjLclhWDc8MGXIsxpDPwmpcM8+OTOSxKNgV27KC5aI5a4YMORZjyGthNY6sBnDLdkxkrv5iJdrnaAuWG88MGXIsxpDfwhKRh+GZIUOOxRi0sESWasdKZMixGIMWlshS7ViJDDkWY9DCElmqHSuRIcdiDFpYIku1YyUy5FiMQQtLZKl2rESGHIsxaGGJLNWOlciQYzEGLSyRpdqxEhlyLMaghSWyVDtWIkOOxRi0sESWasdKZMixGIMWlshS7ViJDDkWY9DCElmqHSuRIcdiNmiT5WjehPuciexYiQw5JiIyC1pYIjIbWlgiMhtaWCIyG1pYIjIbWlgiMhtaWCIyG1pYIjIbWlgiMhtaWCIyG1pYIjIbWlgiMht3LawSwJ9MRJZlxwIy5ViMQb9eRmSJPDNkyrEYgxaWyBJ5ZsiUYzEGLSyRJfLMkCnHYgxaWCJL5JkhU47FGLSwRJbIM0OmHIsxaGGJLJFnhkw5FmPQwhJZIs8MmXIsxqCFJXFf2Z6tADxlKXxmB+RxDWv2hKWwYwV7zsbimSFTjsUYtLCk9ZndshrtovrVmm0AXLCnbAq5XMM1Czh9DRtMs8Cavyhuf+pXK7Rff9OfrC/PDJlyLMaghbV0zQG5/t6RdbFlhvEObHMNhvYauijY9ntjXkPz59XopmBbNub5uWGG9o6uixLtzJ6zc3lmyJRjMYZxBy7z8pFtEL+TuE/BAvodlp8111Ci+7L82ZrVSH8NAcMW51e2ZTX6qQG8ZOfwzJApx2IMWlhL9ZGV6HdIfyhYQP+FkcM1vGMbDLuGFdpreMrO9ZWV6PeXxs8M551lzwyZcizGcN4XKY9Dc0hWGHZIfyjYnj1l5/jISoxzDSu01/CEneMzW7MjG2rNAs6/hktWYxw1ut9peWbIlGMxBi2sJapYwHiaw/qBneMF27OxlADes3OMfQ0bAP+wrm7YBuMp2J49ZffxzJApx2IMWlhLs2Mlxlej+9/uN2yD8QV0/8lZ6mv4ytbsgHFt0G1pembIlGMxBi2spalYwPhWAD6xLp6xA8bXLICud3pTXcMFe8vu84Zt2RQOuP8uyzNDphyLMWhhLclntsJ0Au6/u/jI1mwqB9x/WKe+hiN7wk6pWMA0rtkVO8UzQ6YcizFoYS3JG7ZlU2n+7NfslFfsmk2l+bOv2Clv2JZNpcbpb4+/soJNZc0+sFM8M2TKsRiDFtaSXLIa0ylx/xPfFQuYTon7r+FvdsumsmWv2V12rMS0vrFTPDNkyrEYgxbWklQsYDoF+8JOmfoaSty/sFJfw46VmNYBp7819syQKcdiDFpYS1KxgGl9Y6f8wY5sSvddw9RzKHF6YXlmmFbA6ecTH+IaenMsxqCFtSQVC5jWN3bK1NdQ4vSyaKS+hnfsgk3pA1uzu3hmyJRjMQYtrCW5ZDWmU+L0QW1ULGA6Je6/hr/ZLZvKBXvL7rJjJab1jZ3imSFTjsUYtLCW5A3bsqlscP+LFl+xazaVLXvNTnnDmv9uKtfsit3lyP5gU1nh/tfEeWbIlGMxBi2sJTmgfcHkVGqc/nF+Y8dKTCfg9HM3jT17wabyga3ZKc3n37MpbNlrdopnhkw5FmPQwlqaZ+yA8RXsE2s+3ucPdmRjK9gX1sVUc1ihncN93rAtm8J7VuI0zwyZcizGoIW1NDdsg/EZuj+WprqGa3bFupjqGmrcf5fZOLJnrPk4phLtwrqPZ4ZMORZj6P4gk8ejYgHjKdgn1nzs6hk7YDwrtNdwjhdsz8ayZh9YVzdsg3G9ZyXu55khU47FGLSwluiA9rAe2RjesxLn2bOKHdlQBWuuYc3OsWdjXkOzrFY4zyWrMY5rdsW68MyQKcdiDFpYS7VnFTuyIf5hG/RToz2wQw25hlvWXMOR9VWwt6zE+Y6sYns2xAbtHLryzJApx2IMWlhL1hySih3ZuQr2mm0wTED7uqgjO1fB3rISw+zZkDm8Z2vW15FdslvWx/+Y4TyeGTLlWIyh/WJluY5sy25YVyXav81XGMcB7WPxhnX1khnSX8M1K9gYarSvUzuyLtbsNStxPs8MmXIsxqCFJa0D2sP3jh3wu4L9xTbod0C62LMad1/DCv9ew5pNYc9q3H8NW7bC+I6sRrs49+xXBfuTXbAN+vPMkCnHYgxaWBIX8K81K9hDOrI9+2HNCvaQjmzPfijx8JrPf2SNFdrG4JkhU47FGLSwRJboFbtmWbprYW3QPhchIstSsYBMORZTsC9MRJbjK2vOfrbuWliNGu1PO0RkGTwzZMyxu6zQPrH3hInI49bcXa3w7xP5WXLslAv2lonI49UsqxLtDUrW7ltYjRLtK22fMBF5XD6zC7Zn2XOsi4Jt2Qan/8UNEZmHj6xG25HNQteF9asSw12z50xOe8X27LF7z+S0j2zLhgqYqb4LawzX7IrJaSn/Hz2kPXvO5G6v2DVbrJSH4YK9ZXK3HSuxDNfsisndXrA9WyzHUjqyJ0ziXrFrtgQl9G3hKZ/ZCgvnWEo19OLUU56xA5bjyPQXWNwN22DhHEuphP5Wvcs7dsGW5JpdMfndC7Zni5Z6YTWa/wnPmfxXxQKWZYXz/8GIJdixEgLHUiuhu6xfvWMXbImu2RWTf1UsQLJYWI0LtmXSPmfVzOLIluqarZm0s7hlQrksLBGRe2lhichsaGGJyGxoYYnIbGhhichsaGGJyGxoYYnIbGhhichsaGGJyGxoYYnIbGhhichsaGGJyGxoYYnIbGhhichsaGGJyGxoYYnIbGhhichsaGGJyGxoYYnIbGhhichsaGGJyGxoYYnIbGhhichsaGGJyGxoYYnIbGhhichsaGGJyGxoYYnIbGhhichs/B8u4Dh4mdVX1AAAAABJRU5ErkJggg==;" parent="1" vertex="1">
          <mxGeometry x="-1972" y="310" width="80" height="80" as="geometry" />
        </mxCell>
        <mxCell id="h75pCEdkkC_XDxHb6yKX-36" value="管理员" style="shape=umlActor;verticalLabelPosition=bottom;verticalAlign=top;html=1;outlineConnect=0;fontFamily=Helvetica;fontSize=11;fontColor=default;" parent="1" vertex="1">
          <mxGeometry x="-2040" y="360" width="30" height="60" as="geometry" />
        </mxCell>
        <mxCell id="h75pCEdkkC_XDxHb6yKX-37" value="&lt;h1&gt;&lt;font style=&quot;font-size: 18px;&quot;&gt;自动化测试系统拓扑图&lt;/font&gt;&lt;/h1&gt;&lt;p&gt;&lt;font style=&quot;font-size: 14px;&quot;&gt;1.网段设计：192.168.1.1/24&lt;/font&gt;&lt;/p&gt;" style="text;html=1;strokeColor=none;fillColor=none;spacing=5;spacingTop=-20;whiteSpace=wrap;overflow=hidden;rounded=0;fontSize=11;fontFamily=Helvetica;fontColor=default;" parent="1" vertex="1">
          <mxGeometry x="-1020" y="820" width="310" height="120" as="geometry" />
        </mxCell>
        <mxCell id="h75pCEdkkC_XDxHb6yKX-92" value="" style="group" parent="1" vertex="1" connectable="0">
          <mxGeometry x="-1010" y="902.5" width="130" height="230" as="geometry" />
        </mxCell>
        <mxCell id="h75pCEdkkC_XDxHb6yKX-40" value="" style="group" parent="h75pCEdkkC_XDxHb6yKX-92" vertex="1" connectable="0">
          <mxGeometry width="130" height="47" as="geometry" />
        </mxCell>
        <mxCell id="h75pCEdkkC_XDxHb6yKX-38" value="信号线：" style="text;html=1;strokeColor=none;fillColor=none;align=center;verticalAlign=middle;whiteSpace=wrap;rounded=0;fontSize=14;fontFamily=Helvetica;fontColor=default;" parent="h75pCEdkkC_XDxHb6yKX-40" vertex="1">
          <mxGeometry width="60" height="30" as="geometry" />
        </mxCell>
        <mxCell id="h75pCEdkkC_XDxHb6yKX-39" value="" style="endArrow=classic;html=1;rounded=0;labelBackgroundColor=default;strokeColor=default;strokeWidth=2;align=center;verticalAlign=middle;fontFamily=Helvetica;fontSize=11;fontColor=default;shape=connector;edgeStyle=orthogonalEdgeStyle;" parent="h75pCEdkkC_XDxHb6yKX-40" edge="1">
          <mxGeometry width="50" height="50" relative="1" as="geometry">
            <mxPoint x="60" y="14.410000000000082" as="sourcePoint" />
            <mxPoint x="130" y="14.410000000000082" as="targetPoint" />
          </mxGeometry>
        </mxCell>
        <mxCell id="h75pCEdkkC_XDxHb6yKX-42" value="" style="group" parent="h75pCEdkkC_XDxHb6yKX-92" vertex="1" connectable="0">
          <mxGeometry y="35" width="130" height="46" as="geometry" />
        </mxCell>
        <mxCell id="h75pCEdkkC_XDxHb6yKX-43" value="网&amp;nbsp; 线：" style="text;html=1;strokeColor=none;fillColor=none;align=center;verticalAlign=middle;whiteSpace=wrap;rounded=0;fontSize=14;fontFamily=Helvetica;fontColor=default;" parent="h75pCEdkkC_XDxHb6yKX-42" vertex="1">
          <mxGeometry width="60" height="30" as="geometry" />
        </mxCell>
        <mxCell id="h75pCEdkkC_XDxHb6yKX-44" value="" style="endArrow=none;html=1;rounded=0;labelBackgroundColor=default;strokeColor=#0000CC;strokeWidth=2;align=center;verticalAlign=middle;fontFamily=Helvetica;fontSize=11;fontColor=default;shape=connector;edgeStyle=orthogonalEdgeStyle;endFill=0;" parent="h75pCEdkkC_XDxHb6yKX-42" edge="1">
          <mxGeometry width="50" height="50" relative="1" as="geometry">
            <mxPoint x="60" y="14.410000000000082" as="sourcePoint" />
            <mxPoint x="130" y="14.410000000000082" as="targetPoint" />
          </mxGeometry>
        </mxCell>
        <mxCell id="h75pCEdkkC_XDxHb6yKX-45" value="" style="group" parent="h75pCEdkkC_XDxHb6yKX-92" vertex="1" connectable="0">
          <mxGeometry y="77.5" width="130" height="30" as="geometry" />
        </mxCell>
        <mxCell id="h75pCEdkkC_XDxHb6yKX-46" value="485线：" style="text;html=1;strokeColor=none;fillColor=none;align=center;verticalAlign=middle;whiteSpace=wrap;rounded=0;fontSize=14;fontFamily=Helvetica;fontColor=default;" parent="h75pCEdkkC_XDxHb6yKX-45" vertex="1">
          <mxGeometry width="60" height="30" as="geometry" />
        </mxCell>
        <mxCell id="h75pCEdkkC_XDxHb6yKX-47" value="" style="endArrow=none;html=1;rounded=0;labelBackgroundColor=default;strokeColor=#006633;strokeWidth=2;align=center;verticalAlign=middle;fontFamily=Helvetica;fontSize=11;fontColor=default;shape=connector;edgeStyle=orthogonalEdgeStyle;endFill=0;" parent="h75pCEdkkC_XDxHb6yKX-45" edge="1">
          <mxGeometry width="50" height="50" relative="1" as="geometry">
            <mxPoint x="60" y="14.410000000000082" as="sourcePoint" />
            <mxPoint x="130" y="14.410000000000082" as="targetPoint" />
          </mxGeometry>
        </mxCell>
        <mxCell id="h75pCEdkkC_XDxHb6yKX-89" value="" style="group" parent="h75pCEdkkC_XDxHb6yKX-92" vertex="1" connectable="0">
          <mxGeometry y="116" width="130" height="30" as="geometry" />
        </mxCell>
        <mxCell id="h75pCEdkkC_XDxHb6yKX-90" value="电源线：" style="text;html=1;strokeColor=none;fillColor=none;align=center;verticalAlign=middle;whiteSpace=wrap;rounded=0;fontSize=14;fontFamily=Helvetica;fontColor=default;" parent="h75pCEdkkC_XDxHb6yKX-89" vertex="1">
          <mxGeometry width="60" height="30" as="geometry" />
        </mxCell>
        <mxCell id="h75pCEdkkC_XDxHb6yKX-91" value="" style="endArrow=none;html=1;rounded=0;labelBackgroundColor=default;strokeColor=#A50040;strokeWidth=2;align=center;verticalAlign=middle;fontFamily=Helvetica;fontSize=11;fontColor=default;shape=connector;edgeStyle=orthogonalEdgeStyle;endFill=0;fillColor=#d80073;" parent="h75pCEdkkC_XDxHb6yKX-89" edge="1">
          <mxGeometry width="50" height="50" relative="1" as="geometry">
            <mxPoint x="60" y="14.410000000000082" as="sourcePoint" />
            <mxPoint x="130" y="14.410000000000082" as="targetPoint" />
          </mxGeometry>
        </mxCell>
        <mxCell id="h75pCEdkkC_XDxHb6yKX-120" style="edgeStyle=orthogonalEdgeStyle;shape=connector;rounded=0;orthogonalLoop=1;jettySize=auto;html=1;exitX=1;exitY=0.5;exitDx=0;exitDy=0;entryX=0;entryY=0.5;entryDx=0;entryDy=0;labelBackgroundColor=default;strokeColor=#0000CC;align=center;verticalAlign=middle;fontFamily=Helvetica;fontSize=11;fontColor=default;endArrow=none;endFill=0;" parent="1" source="h75pCEdkkC_XDxHb6yKX-110" target="bHxsROqGJ9d036n8B6Q5-20" edge="1">
          <mxGeometry relative="1" as="geometry">
            <mxPoint x="-1417" y="322" as="targetPoint" />
          </mxGeometry>
        </mxCell>
        <mxCell id="h75pCEdkkC_XDxHb6yKX-110" value="6口发送卡" style="shape=image;verticalLabelPosition=bottom;labelBackgroundColor=default;verticalAlign=top;aspect=fixed;imageAspect=0;image=data:image/png,iVBORw0KGgoAAAANSUhEUgAAASwAAAEsCAYAAAB5fY51AAAS/ElEQVR4nO3dX25Ux7bH8aoOhhuEhXmxAV8pjQxS3jAjAEYQZwSYEcQZQZwRQEYQMwKcEcRnBHTejgSWG+kYcF5wBBfCn/S+a/ukT0iObdJVq/Zea/f3IzkuR4rZ7bh+rPrbMQCAEwQWADcILABuEFgA3CCwALhBYAFwg8AC4AaBBcANAguAGwQWADcILABuEFgA3CCwALhBYAFwg8AC4AaBBcANAguAGwQWADcILABuEFgA3CCwALhBYAFwg8AC4AaBBcANAguAGwQWADcILABuEFgA3CCwALhBYAFwg8AC4AaBBcANAguAGwQWADcILABuEFgA3CCwALjR6cBa7vfnXr7/9ao0Q/ytWq5iNSdNoJt6va0gTpwIj/85fDYMHdS5wLqyuLgcRu+vSzitVlVYln8FTKE4lM69GT6Jm4/+9ewf8i86IcpHJ1z+3/M3wm/VN1WobgQAH4jD0Ivr27vP7skXrkX5cK2uqKrR+zsEFfAx/oMryodbVy4sfDUK1V1pAvi7YtycPfnp7cFwuC9fueIysOrJ9BdvX38fqmpFvgQwsTjs9U58+XB3dyBfuOEusOqwevn21Y8VE+pAnhj2e3HmpqfQchdYSxfnpbIKqwFAPmeh5SqwCCtAX4xhcObk6Zse5rTcBFa9baH6bfSjNAFoi+He9pOfV4NxLgKrnrd68eb1gxCqfgBQRPykd/PRv55tBcNcBNbli/PrMsn+jTQBFBOH20/3LknDrCgfph1UV29f7cjc1Zx8CaCgXq93++Hus41glPnAurJ4fnU0Gn0vTQCFxRC3Hj3duylNk6J8mCbDwQcyHFyWJoAGzJzqXbJ624PpwPq8f77/7s1oR5oAGhJj+PbRk5/Xg0GmA2vp4vxKqMJ9aQJoiuEtDqYDS4aDKquDMcYfYjyx7mU3LzCpejTy/u1oVae/hIFUWNekaU6UD7MuX1jYqkJ1XZrpevG77d29NWkBnac1Ktl++rPJbDD5UGNLFxZ2sjaLxvDL7MnTfQ9HDgAtElobElq3pJms15u5ZnFEYjyw5iv5lKweCj56srciTWBqqGwFiuFLmcfalJYpZgNL4+ygjMXNrnYApXS575gNLClrs8fiHs5GASXkjk4kGUyuFJoNLI0VQqvjcKA0mf8dhlB9FhLFEP/x6OnejWCM4cBa2Kyq6gtpJrO60gGUlr3CHsO+VFjnpGWK2Q6d+wOXMfhPMgZfliYwdZYWF+6GUfWVNJPNnjp9ztoKu9nAyh2DWy1pgSZoTKlYnAM2GVj1rt3cM4RSYZlc5QCaoLFSaPGqGZOB1dUfNtCUrv6lbzOwLiysyfzVHWkms1jOAk3KnlYxuPHaZGB1dcIQaJLMYw2qKlyVZhKpsMwdgjYZWFJhZa0Qyqv6RZZk56QFTK3sfiSsbQ0y9TBjSxcWdkLGoWdWCAEJLIWVQmu3jxoNrPlKPqUzeqwAaJLGIWhrc8HmAktjhVDG3uZWN4CmdbEvmQssDj0DOg7eIu/Nq+fSTGfsAkxzgdXFcTfQFikA9kMVzkozibX5YIOBxaFnQEv+SqGtd4OO8mGKVFhZ70MoY+6fZMyd/N8DXSIV1kbIvC7ZUgFg5kHGclcILe7OBdoiBUD2FIulOWFTgdXV809AW6TCWpEK67400xm6391UYGksw3LoGfjDlcXF5dHo3QNpJrNUBNgKrI6Vr4AFudMskhJmNmKbCiyNQ8+WJggBC5Y6dL+7qc6dvQTLoWfgv2T3K2GlEDDxEGMyQfg8VCE5cCz9TQBYoTFysXJdk63Ayh1rGztGAFggFVZnLsQ0E1gaK4SWVjMAK1T6Vohfy+jlrjRbZSawungVBmBBl/Y3mgksjS0NHHoGDpc73SIVlon5YUOBxaFnoBSZx9qSeazr0kwiFZaJ+93NdHCpsDj0DBTSlYKg9QcYyy5ZOfQMHEkKguwpl15v5trD3d2BNFtjIrC6NCkIWNSVRS0TgaWx7MqhZ+BoGn3MQlFgI7AUylUL6Q9YljvtYmFjtonA0jg6YGFCELBsqQP3u5vo5LlLrvIqOPQMfIRCP9uXfnZOWq0xEViS/Bx6BgqTfrYh/eyWNJO1PZJp9Q8f68LYGrCuC3PFrQdWV1YvAOs0+lrbq/GtB1ZX9ocA1nXhfvfWA0ujTOXQM/D35E6/tH2ixEBgdeOME+CBFAgDKRCuSjNJ2wtcrXd0+QFy6BloSPbWBtFmgdDaHzzmvUQFPJECwfUUTKuBxaFnoFlSYbm+373VwOrCMivgiUafk3ms1u53bzewFMrTNtMe8Ga535978ebVc2kma3NU02pgcegZaF72vHGLK4WtdnYZT2/JePq6NNNw6BmYWHa/C3G4/XTvkjQaF+WjNUscegYa53nvYyt/aE1jLM2hZ2ByGnPHbd3v3lpgqaxWtDj5B3glI5sVGdncl2a6GL6U6ZhNaTWqtcDi0DPQDs/FQmuBpVGWtrnjFvAsd6VQkuOeVFiroWHtBVb2SkV7E3+Ad0sXFoYhVJ+FRG0teLXW4aXC4tAz0JLsgqGl+91bC6zckpRDz0A6jU3bs6dOnxsMh/vSbEwrgdWFmw8Bz2SEkz2H3MaiVyuBpbFKwaFnIJ3XPthOYDlNd6ArvF7t1EpgLXXg/dEA7zzOI7fS6bNXKEJ8vP10rx8AJJORzqDKud89hoFUWNek2ZhWAksqLA49Ay3LLxyaH+k0+ofVOPQM2CAVVvZcctOnTRoPLI3VCamwWruiFegKj+d5Gw8sjz8koItUioeGVwobDyyPZSjQRR6nZ5oPLIcTfUBXyQLYfqjCWWkmkemZRhfAGu/4UmHlHXpu+AcEdFl+AdHs/e5RPhrlcbMa0FVSYbnaxN3YH1Tj0DNgi4x4sueUm1wEazSwNFYl5IlbuUsa6CKpsFakwrovzXQN9slmA8tZmgNd523U02hgSZq7Gi8D0yB3XllSpLH73Rvt/AorEhx6BpR5ut+90cCSCotDz4Ax+YVEcyOfRv6QmsddtcA08HS/e2OBpbFCKBUWh54BZVJhrUmFdUeayZpaDGsssDj0DNjkqZhoLLA0tjRw6BnQ5+l+9+YCy9HEHjBtcrc2SIXVyIJYYwEgS6c7snTaD4ma+oEA0yi3oJAKq5H73RsMrPlKPiXj0DNQzuWLC5tVVX0hzWRNjICK/wE1b9v/gWmjMcfc681ce7i7O5BmMY0E1pKzA5bAtPGyit9IYGmkdxM/DGBaqWxtaGAU1EhgSYW1IRXWLWkma2J8DEyz3HlmSZPih6AbCYHcFQh5TA49A4VJYbEfjN/v3khg5SZ3Ez8IYNplFxYx7EuFdU5axRQPLA49Az5IhWV+6qboN6+pTOY1dE4JmGYeFsfKB5ajk+DANNMoLnq93u2Hu882QiHlA0shtTn0DJTnYYN3+cDKncgTpcfFAP4te4Gs8BG64kHAoWfADxkRDWREdFWaSUr31wYCa76ST8lKJzaAP1gfERX7xjUPY2IAf5AKy/Scc9HAWuLQM+CKVFimV/WLBpZGWpd88QD+TGNrg8xjFds3WTSwpMLakArrljSTlRwPA/gz6ydTioaBlJdbUl5el2YiDj0DTcteKCu4Ulg0sCy/cACHUyg0hlJoXJKGuigfRVgvLQEczvL97kW+ac365B2Aw2kslpW6371cYBlfHgVwOFksM7sdqVxgKaR0yQ1oAA6nMjoqtOG7XGBlT9yVGwcDOF7ugpkkS5H73YsFAoeeAb+k/w6l/34WEpXqvwUDa76ST+kKJTSAj8seIRW6371IYHHoGfBtaXHhbhhVX0kz2eyp0+cGw+G+NNUUCSzLqwwAPk5j0azEKn+RwNJ4saX2cQD4OI2VwhL3uxcKLLs7ZQF83Of98/13b0Y70kxWYlqnSChkT9hx6BloXe7CWYmVwiKBZfGFApiMTO0Mqpz73WMYSIV1TZpq1APLaikJYDL5IyX9qR3Vb1bTmKyTCotDz0DLpMLKXjzTPl6nH1gcegY64cri+dXRaPS9NJNp92X1wLK64QzAZFRGS8rTO+qBJRXWllRY16WZTF7kegDQrirOSV9ek1Y65Us41QNr6cLCjrzSfgAw9WQ+WnXFv0BgzVfyCQCE7v3uUT7UaIx5AXSL5tYGtW9UUzn0DKBTNFcKVQNLY98GgI5RvHlFObDyDz0D6BZZ9Vfb2qAbWApbGgB0S4zxh0dP9lakmU01sFghBPBXmlsb1AJL49AzgG7SWilU+SY1tjQAOIrWcTsCC0BxWlsbCCwAxck8lsqVUQQWgOK0tjYQWACKI7AAuEFgAXDDXGAt9/tzL968ei7NZForCQB05W4KNxdYtewXpbSSAEBXdt/uZGApvSgAuqz0bQILwEdZ6dsEFoCPyu3bkjQqd2IRWACOdWVxcXk0evdAmsm0FtQILADH0tiyRGABaASBdQQCC7CHwDoCgQXYQ2AdgcAC7CGwjkBgAfZ0NrCy3zWnF7/b3t1bkxYAIwisI0TFd9cAoIPAOgKBBdhDYB2BwOom+YW/XlWhH6tRP/xJHMR44vHD3d2BfFFU/Qzxt2q5itWcfPmBZp6hvn7p5ftfrx7+DLpiFferT+LgzIn/+UnjnWrkZ0dgHSYSWJ1x0EHfvP5GOudqqMKc/KtjxKHMX65v7z67J1+oqZ/hxdtXd6S58rFnkAWfQRXCtxrn3T40yTMUEcPGzMnet/8cPhuGRBqBNXOqdynnGcaifKghsFA7OHtWvfsxTNpBY9ycPfnpbY2qIP0ZwsbsydNfazzDQUcfje5P/AzaYtiXf95ODeMri+dXR6PR99JMZu6NVGsEFpKD4nfyO7AlvwM3pZks9xnq4Nx+sveltJIdPEPmgWFtqcOyyxfn16sqfCPNZAQWTJJf7gfyy70szWQyPMvaj7d0YWEnhKofMuQ8w+/DwJ2QGpilSKUl1eOlSatH+X9KYB2GwPJNY+hwILFj1Sw8g0YHLyUliDVeD4EFcy5fXNisquoLaWbr9Xq3H+4+2wgTks6VXeH9R+Klc6rPoC4Ot5/uXZLG3yavh8A6DIHlW+7RrD9JPPWg+Qwp1UhN8xlKmD11+twklWN3Ayvzb1gCyzfNjpryu/B5/3z/3ZvRjjRVxBh/ePRkb0Waf9vBymDmFoDSJp1873BgZb4wmTeQEvyctOBQ24FV03wGeYh78vu4GiagHZolEFi/s/TC0Lyli/P7oQpnpZkteThm4Rk0Q7OASfuYpX6t8k3GLL0wNE/CYkPC4pY0s01aBYzlTkt8qNebuZZyZEfzGbSlVK6W+rXKNxmz9MLQPK35G6lsfpLKZlmaE1N7hoSOPab1DCWkrL5a6tcq32TM0gtDO5YWF+6GUfWVNJOlVldjGpVeanU1ZrHKSg3h7H4dwy8yFzgnrWyq4ZD9wgSB5Z/8Hgzk9+CqNCeWUgH8Vb3T/OXbV1uen0FbXbWeOXn6xiTbGcZy/xJKDcrDqIaD/KKuy/8gAguT/5LL38Lyz1X5m3hTPmerA+PFu9frEz1DiI9DrNY0n+Hl29cbbVda9faMMyc/XU0Jq5ql/ZWq4UBg4UMHS/xvR+uhijdCqD4Lh6h/meXT5plTn26kdqjjHMwnjUar1p9B30H4bsVebyNneF0jsI5BYAG2EFjHILAAWwisYxBYgC2dDSxZTl4JVbgvzWSTHswEUFZnA+tgcjFzw1zuHhwAugisYxBYgC0E1jFi4oFTAPp+35ryIGRc99zpwKr1Qlx7+HTvO2kCaEndn8NodEcW0pbly2SdD6wDMezHKg6kBaBpsZrLDaoxs4FVH0V48ebVc2kCwAEJrK8lsO5KM5tqYNUsnlIH0B6td32uqQeWxl4sAN0g1ZXacLCmHlg1Ca19Ca2z0gQwxTSu6vlQkcDSOKIDwLv4ePvpXj8oKhJYtaULC8PmrtIAYE7iG9Eep1xgMZcFTC3tuauxYoFVk9DakNC6JU0A0yKGX2ZPnu6XuMSgaGDVZD5rIPNZV6UJYArkvoHHcYoHVr2Z1NJl/ADK0V4V/KvigVUjtICOk2Gg/FPtTUSO0khg1erQevH21V3mtICuiY97vRMrpYaBH2ossMZkIn5FPtWT8WflMwDPevG72ZlP10tMsB+m8cCq1dWWDBHXqhDWCC7An/q9DiWs7jZ92WYrgTVWB9f/vft1papGa8xvAdb9+70OZ0721rUOM0+q1cD6UB1eMsd1Qx5oWSqvfqxiPwBolwRUjL3hJzNhq62Q+pDkAwD4QGABcIPAAuAGgQXADQILgBsEFgA3CCwAbhBYANwgsAC4QWABcIPAAuAGgQXADQILgBsEFgA3CCwAbhBYANwgsAC4QWABcIPAAuAGgQXADQILgBsEFgA3CCwAbhBYANwgsAC4QWABcIPAAuAGgQXADQILgBsEFgA3CCwAbhBYANwgsAC4QWABcIPAAuAGgQXADQILgBsEFgA3CCwAbhBYANwgsAC4QWABcIPAAuAGgQXADQILgBsEFgA3CCwAbhBYANz4f9RnBeGlLiLkAAAAAElFTkSuQmCC;" parent="1" vertex="1">
          <mxGeometry x="-1537" y="284.25" width="75.5" height="75.5" as="geometry" />
        </mxCell>
        <mxCell id="h75pCEdkkC_XDxHb6yKX-117" style="edgeStyle=orthogonalEdgeStyle;shape=connector;rounded=0;orthogonalLoop=1;jettySize=auto;html=1;exitX=0.949;exitY=0.478;exitDx=0;exitDy=0;entryX=0;entryY=0.5;entryDx=0;entryDy=0;labelBackgroundColor=default;strokeColor=#0000CC;strokeWidth=2;align=center;verticalAlign=middle;fontFamily=Helvetica;fontSize=11;fontColor=default;endArrow=none;endFill=0;exitPerimeter=0;" parent="1" source="bHxsROqGJ9d036n8B6Q5-20" target="_-Z4865ZqMRXmuTOCmLD-11" edge="1">
          <mxGeometry relative="1" as="geometry">
            <mxPoint x="-1190" y="420" as="sourcePoint" />
          </mxGeometry>
        </mxCell>
        <mxCell id="bHxsROqGJ9d036n8B6Q5-5" value="DP输入源" style="shape=image;verticalLabelPosition=bottom;labelBackgroundColor=default;verticalAlign=top;aspect=fixed;imageAspect=0;image=data:image/png,iVBORw0KGgoAAAANSUhEUgAAASwAAAEsCAYAAAB5fY51AAATpUlEQVR4nO3d4XGcx5WF4XMj0DgCQxEYimB7IhAVgegITEbgUQTiRrBkBKIj0O0IBEVgKAJBEfS+qLGqtF5Zpo0LuufOeare4g/+4FRjcPgBNfNNyH7NgT6nF3T4W7dk9lzu6OFvvae/0APZL3iw/q8v6RXdktl/2h29oXdkCLLzUJ0k3chsP/eSXtN7umpB1+xA39CQ2f5S0hf0QFfpmgfrlh7H6kZml+Ne59G6o6sTdI1u6Vs6kNmleaAj3dFVCbo2t+Sxskv3QEe6o6sRdE0O9DhWt2R26e7oSA90FYKuyePvrF6QWRfv6KWuRNC1GDpfXZl1c6TUFQi6Fo9jNWTWT+o8Wu0FXYOh82CZdXWkVHNB1+Ctzq9mN+vqHb1Uc0HX4Ec6kFlX95I+pdaCurul78isu8/ojtq6hsE6SfozmXX3FZ3UWFB3J3mw7Dp8RSc1FtTdW/kX7nYd3tFLNRbUXUr6L/oYJpn9vY/5/BtqLKi71PM+Yd7RW53/HbN/ZOh89fMlPZdJQ40FdZd6nsH6nl7Qvcw+3I3Odw79A1WbNNRYUHep+sF6HKuhK3qXvJU6UKp+tCYNNRbUXap2sDxWVuFAqdrRmjTUWFB3qdrBOlLK7OmGat/jOmmosaDuUnWDNWnIrE7Kz88PFtRdqu4J8Ud6K7M6r+hrqjBpqLGg7lJ1g/UZ3ZFZlaG6HwsnDTUW1F2qbrCu4bzs41tUYdJQY0HdpTxYtrdFFSYNNRbUXcqDZXtbVGHSUGNB3aU8WLa3RRUmDTUW1F3Kg2V7W1Rh0lBjQd2lPFi2t0UVJg01FtRdyoNle1tUYdJQY0HdpTxYtrdFFSYNNRbUXcqDZXtbVGHSUGNB3aU8WLa3RRUmDTUW1F1q78E60Od0I9vZvc6DcK96iyo8Pr6hxoK6S+07WC91fuPr42jZ/h7oNb1VrUUVJg01FtRdas/BekHfkF2eL+g9VVlUYdJQY0HdpfYcrL/SjewSPdDvqMqiCpOGGgvqLrXfYN3oPFh2uT6jO6qwqMKkocaCukvtN1hDdfdAsv+MI6VqLKowaaixoO5SHiyrd6RUjUUVJg01FtRdyoNl9Y6UqrGowqShxoK6S3mwrN6RUjUWVZg01FhQdykPltU7UqrGogqThhoL6i7lwbJ6R0rVWFRh0lBjQd2lPFhW70ipGosqTBpqLKi7lAfL6h0pVWNRhUlDjQV1l/JgWb0jpWosqjBpqLGg7lIeLKt3pFSNRRUmDTUW1F1qv8E60I9kl+tTuleNRRUmDTUW1F1qv8F6lKp7XPZxfU+3VGVRhUlDjQV1l6obhsrzenzCp6RPyC7HTzRU98bnR4sqTBpqLKi71J6D9eiW3lDV47Pn9T29VO1YPVpUYdJQY0HdpeoG4bnO60bnbF/3OvccFlWYNNRYUHep/QfLrtuiCpOGGgvqLuXBsr0tqjBpqLGg7lIeLNvbogqThhoL6i7lwbK9LaowaaixoO5SHizb26IKk4YaC+ou5cGyvS2qMGmosaDuUh4s29uiCpOGGgvqLuXBsr0tqjBpqLGg7lIeLNvbogqThhoL6i7lwbK9LaowaaixoO5SHizb26IKk4YaC+ou5cGyvS2qMGmosaDuUh4s29uiCpOGGgvqLuXBsr0tqjBpqLGg7lIeLNvbogqThhoL6i7lwbK9LaowaaixoO5SHizb26IKk4YaC+ou5cGyvS2qMGmosaDuUvsO1oG+phd0INvXvaS3kv6bHqjSogqThhoL6i6152DdSPqODmSX446O9EBVFlWYNNRYUHepPQfrWxqyS/R4lfWKqiyqMGmosaDuUvsN1o2kv5Jdpgf6HVVZVGHSUGNB3aX2G6yh8xWWXa7HwXocrgqLKkwaaiyou5QHy+odKVVjUYVJQ40FdZfyYFm9I6VqLKowaaixoO5SHiyrd6RUjUUVJg01FtRdyoNl9Y6UqrGowqShxoK6S3mwrN6RUjUWVZg01FhQdykPltU7UqrGogqThhoL6i7lwbJ6R0rVWFRh0lBjQd2lPFhW70ipGosqTBpqLKi7lAfL6h0pVWNRhUlDjQV1l/JgWT2/0v0/IKi71H6DdaAfyS7TD3SjOosqTBpqLKi71H6D9egN/Yns8rymx69flUUVJg01FtRdas/BOtB7qnps9nG8o5eqtajCpKHGgrpL1Y3Cc5zXS/mOo5fgXuc7jqbqLaowaaixoO5Sew+W2aIKk4YaC+ou5cGyvS2qMGmosaDuUh4s29uiCpOGGgvqLuXBsr0tqjBpqLGg7lIeLNvbogqThhoL6i7lwbK9LaowaaixoO5SHizb26IKk4YaC+ou5cGyvS2qMGmosaDuUh4s29uiCpOGGgvqLuXBsr0tqjBpqLGg7lIeLNvbogqThhoL6i7lwbK9LaowaaixoO5SHizb26IKk4YaC+ou5cGyvS2qMGmosaDuUh4s29uiCpOGGgvqLuXBsr0tqjBpqLGg7lIeLNvbogqThhoL6i7lwbK9LaowaaixoO5Sew/WjaTPybdI3tu9pL/QA1VbVGHSUGNB3aX2Haw/00l2KR7H6jW9Va1FFSYNNRbUXWrPwXpFX5NdniOl6iyqMGmosaDuUnsO1o90ILs8d/QZVVlUYdJQY0HdpfYbrCF/VP2lq3ouPFpUYdJQY0HdpTxYVu/xCuvxSqvCogqThhoL6i7lwbJ6R0rVWFRh0lBjQd2lPFhW70ipGosqTBpqLKi7lAfL6h0pVWNRhUlDjQV1l/JgWb0jpWosqjBpqLGg7lIeLKt3pFSNRRUmDTUW1F3Kg2X1jpSqsajCpKHGgrpLebCs3pFSNRZVmDTUWFB3KQ+W1TtSqsaiCpOGGgvqLuXBsnpHStVYVGHSUGNB3aU8WFbvSKkaiypMGmosqLuUB8vqHSlVY1GFSUONBXWX8mBZvSOlaiyqMGmosaDuUh4sq3ekVI1FFSYNNRbUXar3YH1Pr8h+24HeSvqEKhwpVWNRhUlDjQV1l+o9WF/RSfYh3kr6kiocKVVjUYVJQ40FdZfyYNnZSef76Fc4UqrGogqThhoL6i7lwbKzkzxYFy2ou5QHy85O8mBdtKDuUh4sOzvJg3XRgrpLebDs7CQP1kUL6i7lwbKzkzxYFy2ou5QHy85O8mBdtKDuUh4sOzvJg3XRgrpLebDs7CQP1kUL6i7lwbKzkzxYFy2ou5QHy85O8mBdtKDuUh4sOzvJg3XRgrpLebDs7CQP1kUL6i7lwbKzkzxYFy2ou5QHy85O8mBdtKDuUh4sO3tDf6IKR0rVWFRh0lBjQd2leg/We/qC7Lcd6Du6UY0jpWosqjBpqLGg7lK9B8v+M46UqrGowqShxoK6S3mwrN6RUjUWVZg01FhQdykPltU7UqrGogqThhoL6i7lwbJ6R0rVWFRh0lBjQd2lPFhW70ipGosqTBpqLKi7lAfL6h0pVWNRhUlDjQV1l/JgWb0jpWosqjBpqLGg7lIeLKt3pFSNRRUmDTUW1F3Kg2X1jpSqsajCpKHGgrpLebCs3pFSNRZVmDTUWFB3KQ+W1TtSqsaiCpOGGgvqLuXBsnpHStVYVGHSUGNB3aU8WFbvSKkaiypMGmosqLuUB8vqHSlVY1GFSUONBXWX8mBZvd/RA1VYVGHSUGNB3aX2G6wD/Uh2mX6gG9VZVGHSUGNB3aX2G6xHb+hPZJfnNT1+/aosqjBpqLGg7lJ7DtaB3lPVY7OP4x29VK1FFSYNNRbUXapuFJ7jvF5KekEHsn3dS3qr8/Op2qIKk4YaC+outfdgmS2qMGmosaDuUh4s29uiCpOGGgvqLuXBsr0tqjBpqLGg7lIeLNvbogqThhoL6i7lwbK9LaowaaixoO5SHizb26IKk4YaC+ou5cGyvS2qMGmosaDuUh4s29uiCpOGGgvqLuXBsr0tqjBpqLGg7lIeLNvbogqThhoL6i7lwbK9LaowaaixoO5SHizb26IKk4YaC+ou5cGyvS2qMGmosaDuUh4s29uiCpOGGgvqLuXBsr0tqjBpqLGg7lIeLNvbogqThhoL6i7lwbK9LaowaaixoO5SHizb26IKk4YaC+ou5cH6WG7pD3Sjs3tJ39Md2T+2qMKkocaCukt5sJ7bl3SSdKNfd6/z378j+/8WVZg01FhQdykP1nO5kfQN3dKHuKMv6F72S4sqTBpqLKi7lAfrOdxI+o4O9K94oM/oXvazRRUmDTUW1F3Kg/UcHsfqlv4dd/Q4Wna2qMKkocaCukt5sKqdJP2ZnuIrOskeLaowaaixoO5SHqxqP9KBnuKBfkfmwfpgQd2lPFiVhqRvqcJndEfXblGFSUONBXWX8mBVOunpPw7+7Cs6yRZVmDTUWFB3KQ9WpZM8WNUWVZg01FhQdykPVqWTPFjVFlWYNNRYUHcpD1alV/Q1VXhNb+jaLaowaaixoO5SHqxKt/QdVfiU7mWLKkwaaiyou5QHq9q9pN/TU/xAN7JHiypMGmosqLuUB6vaC/qGnuILek/mwfpgQd2lPFjP4a3Od2n4d7yjl7KfLaowaaixoO5SHqzncKDU+f5X/4rvaej8Snc7W1Rh0lBjQd2lPFjP6Q39iT7Ef9Mrsv9rUYVJQ40FdZfyYD23G51fT/WCPqFf+one00nnX9bb/7eowqShxoK6S3mwPqYbnXt0r3P22xZVmDTUWFB3KQ+W7W1RhUlDjQV1l/Jg2d4WVZg01FhQdykPlu1tUYVJQ40FdZfyYNneFlWYNNRYUHcpD5btbVGFSUONBXWX8mDZ3hZVmDTUWFB3KQ+W7W1RhUlDjQV1l/Jg2d4WVZg01FhQdykPlu1tUYVJQ40FdZfyYNneFlWYNNRYUHcpD5btbVGFSUONBXWX8mDZ3hZVmDTUWFB3KQ+W7W1RhUlDjQV1l/JgfQyf0y09GjpLnd3RX8h+3aIKk4YaC+ou5cF6Ljc6f0bhCzrQb3mg9/QV3ct+aVGFSUONBXWX8mBVO9DX9FL/nrc6fybhA5kH64MFdZfyYFW60fkTc27pKe7oj/T457VbVGHSUGNB3aU8WFVu6Vs6UIUHOtIdXbNFFSYNNRbUXcqDVeFA39ItVbqX9Bk90LVaVGHSUGNB3aU8WBW+paHnkTpfaV2rRRUmDTUW1F3Kg/VUQ+fBek5HSl2nRRUmDTUW1F3Kg/VU39LQ87qjxx8Nr9GiCpOGGgvqLuXBeoobSX+lj+FTutf1WVRh0lBjQd2lPFhP8Yq+po/hNb2ha7OowqShxoK6S3mwniJVd37/zKSh67OoQvvzC+ouVfcNdw3n9fdSdef3z0wauj6LKrQ/v6DuUnXfcNdwXn/vRzrQx3KNZ7yowqShxoK6S3mwnuKBPqGP4Sc60LVZVGHSUGNB3aU8WE+Rqju/f2bS0PVZVKH9+QV1l6r7hruG8/p77+lz+hgmDV2fRRXan19QdykP1lO8oq/pY3hNb+jaLKowaaixoO5SHqynuJFfOPrcFlWYNNRYUHcpD9ZTperO8B+ZNHSdFlVof4ZB3aXqvtmu4bx+zdD5/YTP6Uip67SowqShxoK6S3mwKryV9CU9h3f0UtdrUYVJQ40FdZfyYFU4UEr6A1X6nobOr/e6VosqTBpqLKi7lAeryo3Ot4H5hCr8RLd0r+u2qMKkocaCukt5sCodKPX0K63vaei6r6x+tqjCpKHGgrpLebCew0nn12h9Qv+Kn+jN33og82B9sKDuUh6s53Kgk84fpPp7+i0/0Ht6Q/eyX1pUYdJQY0HdpTxYH8MtDZ1H7JceKHX+3Zf9ukUVJg01FtRdyoNle1tUYdJQY0HdpTxYtrdFFSYNNRbUXcqDZXtbVGHSUGNB3aU8WLa3RRUmDTUW1F3Kg2V7W1Rh0lBjQd2lPFi2t0UVJg01FtRdyoNle1tUYdJQY0HdpTxYtrdFFSYNNRbUXcqDZXtbVGHSUGNB3aU8WLa3RRUmDTUW1F3Kg2V7W1Rh0lBjQd2lPFi2t0UVJg01FtRdyoNle1tUYdJQY0HdpTxYtrdFFSYNNRbUXcqDZXtbVGHSUGNB3aU8WLa3RRUmDTUW1F3Kg2V7W1Rh0lBjQd2lPFi2t0UVJg01FtRdyoNle1tUYdJQY0HdpTxYtrdFFSYNNRbUXcqDZXtbVGHSUGNB3aU8WLa3RRUmDTUW1F3Kg2V7W1Rh0lBjQd2lPFi2t0UVJg01FtRdyoNle1tUYdJQY0HdpTxYtrdFFSYNNRbUXcqDZXtbVGHSUGNB3aU8WLa3RRUmDTUW1F3Kg2V7W1Rh0lBjQd2l6gbrU7qXWZ0bSX+lCpOGGgvqLlU3WK/pDZlVeUVfU4VJQ40FdZeqG6wHOtIdmT3VLX1LB6owaaixoO5SdYP16IH+SO/J7N/1gv6HDlRl0lBjQd2lagfrZw90R2b/qls6ULVJQ40FdZd6nsEy282kocaCukt5sOw6TBpqLKi7lAfLrsOkocaCukt5sOw6TBpqLKi7lAfLrsOkocaCukt5sOw6TBpqLKi7lAfLrsOkocaCukt5sOw6TBpqLKi7lAfLrsOkocaCukt5sOw6/IVeUFvXMFgnSX8ms+6+opMaC+ru8X+cb8isuyOlGgu6BveSfk9mXf1AN2ou6Bq81PlWHmZd/ZHeqrmga/FW0pdk1s07eqkrEHRN3sqjZb28o5e6EkHX5qTzfbQ/IbNL9RO9oZOuyDUO1qMDvdT5RXa39Hsy290PdEep808LD3RV/hfihehpXRTfFQAAAABJRU5ErkJggg==;" vertex="1" parent="1">
          <mxGeometry x="-1803.8799999999999" y="490" width="80" height="80" as="geometry" />
        </mxCell>
        <mxCell id="bHxsROqGJ9d036n8B6Q5-12" value="" style="endArrow=classic;html=1;rounded=0;edgeStyle=orthogonalEdgeStyle;exitX=1;exitY=0.5;exitDx=0;exitDy=0;strokeWidth=2;entryX=0;entryY=0.5;entryDx=0;entryDy=0;" edge="1" parent="1" source="bHxsROqGJ9d036n8B6Q5-5" target="_-Z4865ZqMRXmuTOCmLD-2">
          <mxGeometry width="50" height="50" relative="1" as="geometry">
            <mxPoint x="-1722" y="490" as="sourcePoint" />
            <mxPoint x="-1540" y="488" as="targetPoint" />
            <Array as="points">
              <mxPoint x="-1630" y="530" />
              <mxPoint x="-1630" y="488" />
            </Array>
          </mxGeometry>
        </mxCell>
        <mxCell id="bHxsROqGJ9d036n8B6Q5-43" value="DP线" style="edgeLabel;html=1;align=center;verticalAlign=middle;resizable=0;points=[];" vertex="1" connectable="0" parent="bHxsROqGJ9d036n8B6Q5-12">
          <mxGeometry x="-0.5603" y="-1" relative="1" as="geometry">
            <mxPoint as="offset" />
          </mxGeometry>
        </mxCell>
        <mxCell id="bHxsROqGJ9d036n8B6Q5-19" value="录像机" style="verticalLabelPosition=bottom;dashed=0;shadow=0;html=1;align=center;verticalAlign=top;shape=mxgraph.cabinets.motor_cb_125_400a;strokeWidth=3;" vertex="1" parent="1">
          <mxGeometry x="-1382.09" y="974" width="55.00000000000001" height="90" as="geometry" />
        </mxCell>
        <mxCell id="bHxsROqGJ9d036n8B6Q5-20" value="接收卡" style="shape=image;verticalLabelPosition=bottom;labelBackgroundColor=default;verticalAlign=top;aspect=fixed;imageAspect=0;image=data:image/png,iVBORw0KGgoAAAANSUhEUgAAASwAAAEsCAYAAAB5fY51AAAS/ElEQVR4nO3dX25Ux7bH8aoOhhuEhXmxAV8pjQxS3jAjAEYQZwSYEcQZQZwRQEYQMwKcEcRnBHTejgSWG+kYcF5wBBfCn/S+a/ukT0iObdJVq/Zea/f3IzkuR4rZ7bh+rPrbMQCAEwQWADcILABuEFgA3CCwALhBYAFwg8AC4AaBBcANAguAGwQWADcILABuEFgA3CCwALhBYAFwg8AC4AaBBcANAguAGwQWADcILABuEFgA3CCwALhBYAFwg8AC4AaBBcANAguAGwQWADcILABuEFgA3CCwALhBYAFwg8AC4AaBBcANAguAGwQWADcILABuEFgA3CCwALjR6cBa7vfnXr7/9ao0Q/ytWq5iNSdNoJt6va0gTpwIj/85fDYMHdS5wLqyuLgcRu+vSzitVlVYln8FTKE4lM69GT6Jm4/+9ewf8i86IcpHJ1z+3/M3wm/VN1WobgQAH4jD0Ivr27vP7skXrkX5cK2uqKrR+zsEFfAx/oMryodbVy4sfDUK1V1pAvi7YtycPfnp7cFwuC9fueIysOrJ9BdvX38fqmpFvgQwsTjs9U58+XB3dyBfuOEusOqwevn21Y8VE+pAnhj2e3HmpqfQchdYSxfnpbIKqwFAPmeh5SqwCCtAX4xhcObk6Zse5rTcBFa9baH6bfSjNAFoi+He9pOfV4NxLgKrnrd68eb1gxCqfgBQRPykd/PRv55tBcNcBNbli/PrMsn+jTQBFBOH20/3LknDrCgfph1UV29f7cjc1Zx8CaCgXq93++Hus41glPnAurJ4fnU0Gn0vTQCFxRC3Hj3duylNk6J8mCbDwQcyHFyWJoAGzJzqXbJ624PpwPq8f77/7s1oR5oAGhJj+PbRk5/Xg0GmA2vp4vxKqMJ9aQJoiuEtDqYDS4aDKquDMcYfYjyx7mU3LzCpejTy/u1oVae/hIFUWNekaU6UD7MuX1jYqkJ1XZrpevG77d29NWkBnac1Ktl++rPJbDD5UGNLFxZ2sjaLxvDL7MnTfQ9HDgAtElobElq3pJms15u5ZnFEYjyw5iv5lKweCj56srciTWBqqGwFiuFLmcfalJYpZgNL4+ygjMXNrnYApXS575gNLClrs8fiHs5GASXkjk4kGUyuFJoNLI0VQqvjcKA0mf8dhlB9FhLFEP/x6OnejWCM4cBa2Kyq6gtpJrO60gGUlr3CHsO+VFjnpGWK2Q6d+wOXMfhPMgZfliYwdZYWF+6GUfWVNJPNnjp9ztoKu9nAyh2DWy1pgSZoTKlYnAM2GVj1rt3cM4RSYZlc5QCaoLFSaPGqGZOB1dUfNtCUrv6lbzOwLiysyfzVHWkms1jOAk3KnlYxuPHaZGB1dcIQaJLMYw2qKlyVZhKpsMwdgjYZWFJhZa0Qyqv6RZZk56QFTK3sfiSsbQ0y9TBjSxcWdkLGoWdWCAEJLIWVQmu3jxoNrPlKPqUzeqwAaJLGIWhrc8HmAktjhVDG3uZWN4CmdbEvmQssDj0DOg7eIu/Nq+fSTGfsAkxzgdXFcTfQFikA9kMVzkozibX5YIOBxaFnQEv+SqGtd4OO8mGKVFhZ70MoY+6fZMyd/N8DXSIV1kbIvC7ZUgFg5kHGclcILe7OBdoiBUD2FIulOWFTgdXV809AW6TCWpEK67400xm6391UYGksw3LoGfjDlcXF5dHo3QNpJrNUBNgKrI6Vr4AFudMskhJmNmKbCiyNQ8+WJggBC5Y6dL+7qc6dvQTLoWfgv2T3K2GlEDDxEGMyQfg8VCE5cCz9TQBYoTFysXJdk63Ayh1rGztGAFggFVZnLsQ0E1gaK4SWVjMAK1T6Vohfy+jlrjRbZSawungVBmBBl/Y3mgksjS0NHHoGDpc73SIVlon5YUOBxaFnoBSZx9qSeazr0kwiFZaJ+93NdHCpsDj0DBTSlYKg9QcYyy5ZOfQMHEkKguwpl15v5trD3d2BNFtjIrC6NCkIWNSVRS0TgaWx7MqhZ+BoGn3MQlFgI7AUylUL6Q9YljvtYmFjtonA0jg6YGFCELBsqQP3u5vo5LlLrvIqOPQMfIRCP9uXfnZOWq0xEViS/Bx6BgqTfrYh/eyWNJO1PZJp9Q8f68LYGrCuC3PFrQdWV1YvAOs0+lrbq/GtB1ZX9ocA1nXhfvfWA0ujTOXQM/D35E6/tH2ixEBgdeOME+CBFAgDKRCuSjNJ2wtcrXd0+QFy6BloSPbWBtFmgdDaHzzmvUQFPJECwfUUTKuBxaFnoFlSYbm+373VwOrCMivgiUafk3ms1u53bzewFMrTNtMe8Ga535978ebVc2kma3NU02pgcegZaF72vHGLK4WtdnYZT2/JePq6NNNw6BmYWHa/C3G4/XTvkjQaF+WjNUscegYa53nvYyt/aE1jLM2hZ2ByGnPHbd3v3lpgqaxWtDj5B3glI5sVGdncl2a6GL6U6ZhNaTWqtcDi0DPQDs/FQmuBpVGWtrnjFvAsd6VQkuOeVFiroWHtBVb2SkV7E3+Ad0sXFoYhVJ+FRG0teLXW4aXC4tAz0JLsgqGl+91bC6zckpRDz0A6jU3bs6dOnxsMh/vSbEwrgdWFmw8Bz2SEkz2H3MaiVyuBpbFKwaFnIJ3XPthOYDlNd6ArvF7t1EpgLXXg/dEA7zzOI7fS6bNXKEJ8vP10rx8AJJORzqDKud89hoFUWNek2ZhWAksqLA49Ay3LLxyaH+k0+ofVOPQM2CAVVvZcctOnTRoPLI3VCamwWruiFegKj+d5Gw8sjz8koItUioeGVwobDyyPZSjQRR6nZ5oPLIcTfUBXyQLYfqjCWWkmkemZRhfAGu/4UmHlHXpu+AcEdFl+AdHs/e5RPhrlcbMa0FVSYbnaxN3YH1Tj0DNgi4x4sueUm1wEazSwNFYl5IlbuUsa6CKpsFakwrovzXQN9slmA8tZmgNd523U02hgSZq7Gi8D0yB3XllSpLH73Rvt/AorEhx6BpR5ut+90cCSCotDz4Ax+YVEcyOfRv6QmsddtcA08HS/e2OBpbFCKBUWh54BZVJhrUmFdUeayZpaDGsssDj0DNjkqZhoLLA0tjRw6BnQ5+l+9+YCy9HEHjBtcrc2SIXVyIJYYwEgS6c7snTaD4ma+oEA0yi3oJAKq5H73RsMrPlKPiXj0DNQzuWLC5tVVX0hzWRNjICK/wE1b9v/gWmjMcfc681ce7i7O5BmMY0E1pKzA5bAtPGyit9IYGmkdxM/DGBaqWxtaGAU1EhgSYW1IRXWLWkma2J8DEyz3HlmSZPih6AbCYHcFQh5TA49A4VJYbEfjN/v3khg5SZ3Ez8IYNplFxYx7EuFdU5axRQPLA49Az5IhWV+6qboN6+pTOY1dE4JmGYeFsfKB5ajk+DANNMoLnq93u2Hu882QiHlA0shtTn0DJTnYYN3+cDKncgTpcfFAP4te4Gs8BG64kHAoWfADxkRDWREdFWaSUr31wYCa76ST8lKJzaAP1gfERX7xjUPY2IAf5AKy/Scc9HAWuLQM+CKVFimV/WLBpZGWpd88QD+TGNrg8xjFds3WTSwpMLakArrljSTlRwPA/gz6ydTioaBlJdbUl5el2YiDj0DTcteKCu4Ulg0sCy/cACHUyg0hlJoXJKGuigfRVgvLQEczvL97kW+ac365B2Aw2kslpW6371cYBlfHgVwOFksM7sdqVxgKaR0yQ1oAA6nMjoqtOG7XGBlT9yVGwcDOF7ugpkkS5H73YsFAoeeAb+k/w6l/34WEpXqvwUDa76ST+kKJTSAj8seIRW6371IYHHoGfBtaXHhbhhVX0kz2eyp0+cGw+G+NNUUCSzLqwwAPk5j0azEKn+RwNJ4saX2cQD4OI2VwhL3uxcKLLs7ZQF83Of98/13b0Y70kxWYlqnSChkT9hx6BloXe7CWYmVwiKBZfGFApiMTO0Mqpz73WMYSIV1TZpq1APLaikJYDL5IyX9qR3Vb1bTmKyTCotDz0DLpMLKXjzTPl6nH1gcegY64cri+dXRaPS9NJNp92X1wLK64QzAZFRGS8rTO+qBJRXWllRY16WZTF7kegDQrirOSV9ek1Y65Us41QNr6cLCjrzSfgAw9WQ+WnXFv0BgzVfyCQCE7v3uUT7UaIx5AXSL5tYGtW9UUzn0DKBTNFcKVQNLY98GgI5RvHlFObDyDz0D6BZZ9Vfb2qAbWApbGgB0S4zxh0dP9lakmU01sFghBPBXmlsb1AJL49AzgG7SWilU+SY1tjQAOIrWcTsCC0BxWlsbCCwAxck8lsqVUQQWgOK0tjYQWACKI7AAuEFgAXDDXGAt9/tzL968ei7NZForCQB05W4KNxdYtewXpbSSAEBXdt/uZGApvSgAuqz0bQILwEdZ6dsEFoCPyu3bkjQqd2IRWACOdWVxcXk0evdAmsm0FtQILADH0tiyRGABaASBdQQCC7CHwDoCgQXYQ2AdgcAC7CGwjkBgAfZ0NrCy3zWnF7/b3t1bkxYAIwisI0TFd9cAoIPAOgKBBdhDYB2BwOom+YW/XlWhH6tRP/xJHMR44vHD3d2BfFFU/Qzxt2q5itWcfPmBZp6hvn7p5ftfrx7+DLpiFferT+LgzIn/+UnjnWrkZ0dgHSYSWJ1x0EHfvP5GOudqqMKc/KtjxKHMX65v7z67J1+oqZ/hxdtXd6S58rFnkAWfQRXCtxrn3T40yTMUEcPGzMnet/8cPhuGRBqBNXOqdynnGcaifKghsFA7OHtWvfsxTNpBY9ycPfnpbY2qIP0ZwsbsydNfazzDQUcfje5P/AzaYtiXf95ODeMri+dXR6PR99JMZu6NVGsEFpKD4nfyO7AlvwM3pZks9xnq4Nx+sveltJIdPEPmgWFtqcOyyxfn16sqfCPNZAQWTJJf7gfyy70szWQyPMvaj7d0YWEnhKofMuQ8w+/DwJ2QGpilSKUl1eOlSatH+X9KYB2GwPJNY+hwILFj1Sw8g0YHLyUliDVeD4EFcy5fXNisquoLaWbr9Xq3H+4+2wgTks6VXeH9R+Klc6rPoC4Ot5/uXZLG3yavh8A6DIHlW+7RrD9JPPWg+Qwp1UhN8xlKmD11+twklWN3Ayvzb1gCyzfNjpryu/B5/3z/3ZvRjjRVxBh/ePRkb0Waf9vBymDmFoDSJp1873BgZb4wmTeQEvyctOBQ24FV03wGeYh78vu4GiagHZolEFi/s/TC0Lyli/P7oQpnpZkteThm4Rk0Q7OASfuYpX6t8k3GLL0wNE/CYkPC4pY0s01aBYzlTkt8qNebuZZyZEfzGbSlVK6W+rXKNxmz9MLQPK35G6lsfpLKZlmaE1N7hoSOPab1DCWkrL5a6tcq32TM0gtDO5YWF+6GUfWVNJOlVldjGpVeanU1ZrHKSg3h7H4dwy8yFzgnrWyq4ZD9wgSB5Z/8Hgzk9+CqNCeWUgH8Vb3T/OXbV1uen0FbXbWeOXn6xiTbGcZy/xJKDcrDqIaD/KKuy/8gAguT/5LL38Lyz1X5m3hTPmerA+PFu9frEz1DiI9DrNY0n+Hl29cbbVda9faMMyc/XU0Jq5ql/ZWq4UBg4UMHS/xvR+uhijdCqD4Lh6h/meXT5plTn26kdqjjHMwnjUar1p9B30H4bsVebyNneF0jsI5BYAG2EFjHILAAWwisYxBYgC2dDSxZTl4JVbgvzWSTHswEUFZnA+tgcjFzw1zuHhwAugisYxBYgC0E1jFi4oFTAPp+35ryIGRc99zpwKr1Qlx7+HTvO2kCaEndn8NodEcW0pbly2SdD6wDMezHKg6kBaBpsZrLDaoxs4FVH0V48ebVc2kCwAEJrK8lsO5KM5tqYNUsnlIH0B6td32uqQeWxl4sAN0g1ZXacLCmHlg1Ca19Ca2z0gQwxTSu6vlQkcDSOKIDwLv4ePvpXj8oKhJYtaULC8PmrtIAYE7iG9Eep1xgMZcFTC3tuauxYoFVk9DakNC6JU0A0yKGX2ZPnu6XuMSgaGDVZD5rIPNZV6UJYArkvoHHcYoHVr2Z1NJl/ADK0V4V/KvigVUjtICOk2Gg/FPtTUSO0khg1erQevH21V3mtICuiY97vRMrpYaBH2ossMZkIn5FPtWT8WflMwDPevG72ZlP10tMsB+m8cCq1dWWDBHXqhDWCC7An/q9DiWs7jZ92WYrgTVWB9f/vft1papGa8xvAdb9+70OZ0721rUOM0+q1cD6UB1eMsd1Qx5oWSqvfqxiPwBolwRUjL3hJzNhq62Q+pDkAwD4QGABcIPAAuAGgQXADQILgBsEFgA3CCwAbhBYANwgsAC4QWABcIPAAuAGgQXADQILgBsEFgA3CCwAbhBYANwgsAC4QWABcIPAAuAGgQXADQILgBsEFgA3CCwAbhBYANwgsAC4QWABcIPAAuAGgQXADQILgBsEFgA3CCwAbhBYANwgsAC4QWABcIPAAuAGgQXADQILgBsEFgA3CCwAbhBYANwgsAC4QWABcIPAAuAGgQXADQILgBsEFgA3CCwAbhBYANz4f9RnBeGlLiLkAAAAAElFTkSuQmCC;" vertex="1" parent="1">
          <mxGeometry x="-1260" y="284.25" width="75.5" height="75.5" as="geometry" />
        </mxCell>
        <mxCell id="bHxsROqGJ9d036n8B6Q5-21" value="接收卡" style="shape=image;verticalLabelPosition=bottom;labelBackgroundColor=default;verticalAlign=top;aspect=fixed;imageAspect=0;image=data:image/png,iVBORw0KGgoAAAANSUhEUgAAASwAAAEsCAYAAAB5fY51AAAS/ElEQVR4nO3dX25Ux7bH8aoOhhuEhXmxAV8pjQxS3jAjAEYQZwSYEcQZQZwRQEYQMwKcEcRnBHTejgSWG+kYcF5wBBfCn/S+a/ukT0iObdJVq/Zea/f3IzkuR4rZ7bh+rPrbMQCAEwQWADcILABuEFgA3CCwALhBYAFwg8AC4AaBBcANAguAGwQWADcILABuEFgA3CCwALhBYAFwg8AC4AaBBcANAguAGwQWADcILABuEFgA3CCwALhBYAFwg8AC4AaBBcANAguAGwQWADcILABuEFgA3CCwALhBYAFwg8AC4AaBBcANAguAGwQWADcILABuEFgA3CCwALjR6cBa7vfnXr7/9ao0Q/ytWq5iNSdNoJt6va0gTpwIj/85fDYMHdS5wLqyuLgcRu+vSzitVlVYln8FTKE4lM69GT6Jm4/+9ewf8i86IcpHJ1z+3/M3wm/VN1WobgQAH4jD0Ivr27vP7skXrkX5cK2uqKrR+zsEFfAx/oMryodbVy4sfDUK1V1pAvi7YtycPfnp7cFwuC9fueIysOrJ9BdvX38fqmpFvgQwsTjs9U58+XB3dyBfuOEusOqwevn21Y8VE+pAnhj2e3HmpqfQchdYSxfnpbIKqwFAPmeh5SqwCCtAX4xhcObk6Zse5rTcBFa9baH6bfSjNAFoi+He9pOfV4NxLgKrnrd68eb1gxCqfgBQRPykd/PRv55tBcNcBNbli/PrMsn+jTQBFBOH20/3LknDrCgfph1UV29f7cjc1Zx8CaCgXq93++Hus41glPnAurJ4fnU0Gn0vTQCFxRC3Hj3duylNk6J8mCbDwQcyHFyWJoAGzJzqXbJ624PpwPq8f77/7s1oR5oAGhJj+PbRk5/Xg0GmA2vp4vxKqMJ9aQJoiuEtDqYDS4aDKquDMcYfYjyx7mU3LzCpejTy/u1oVae/hIFUWNekaU6UD7MuX1jYqkJ1XZrpevG77d29NWkBnac1Ktl++rPJbDD5UGNLFxZ2sjaLxvDL7MnTfQ9HDgAtElobElq3pJms15u5ZnFEYjyw5iv5lKweCj56srciTWBqqGwFiuFLmcfalJYpZgNL4+ygjMXNrnYApXS575gNLClrs8fiHs5GASXkjk4kGUyuFJoNLI0VQqvjcKA0mf8dhlB9FhLFEP/x6OnejWCM4cBa2Kyq6gtpJrO60gGUlr3CHsO+VFjnpGWK2Q6d+wOXMfhPMgZfliYwdZYWF+6GUfWVNJPNnjp9ztoKu9nAyh2DWy1pgSZoTKlYnAM2GVj1rt3cM4RSYZlc5QCaoLFSaPGqGZOB1dUfNtCUrv6lbzOwLiysyfzVHWkms1jOAk3KnlYxuPHaZGB1dcIQaJLMYw2qKlyVZhKpsMwdgjYZWFJhZa0Qyqv6RZZk56QFTK3sfiSsbQ0y9TBjSxcWdkLGoWdWCAEJLIWVQmu3jxoNrPlKPqUzeqwAaJLGIWhrc8HmAktjhVDG3uZWN4CmdbEvmQssDj0DOg7eIu/Nq+fSTGfsAkxzgdXFcTfQFikA9kMVzkozibX5YIOBxaFnQEv+SqGtd4OO8mGKVFhZ70MoY+6fZMyd/N8DXSIV1kbIvC7ZUgFg5kHGclcILe7OBdoiBUD2FIulOWFTgdXV809AW6TCWpEK67400xm6391UYGksw3LoGfjDlcXF5dHo3QNpJrNUBNgKrI6Vr4AFudMskhJmNmKbCiyNQ8+WJggBC5Y6dL+7qc6dvQTLoWfgv2T3K2GlEDDxEGMyQfg8VCE5cCz9TQBYoTFysXJdk63Ayh1rGztGAFggFVZnLsQ0E1gaK4SWVjMAK1T6Vohfy+jlrjRbZSawungVBmBBl/Y3mgksjS0NHHoGDpc73SIVlon5YUOBxaFnoBSZx9qSeazr0kwiFZaJ+93NdHCpsDj0DBTSlYKg9QcYyy5ZOfQMHEkKguwpl15v5trD3d2BNFtjIrC6NCkIWNSVRS0TgaWx7MqhZ+BoGn3MQlFgI7AUylUL6Q9YljvtYmFjtonA0jg6YGFCELBsqQP3u5vo5LlLrvIqOPQMfIRCP9uXfnZOWq0xEViS/Bx6BgqTfrYh/eyWNJO1PZJp9Q8f68LYGrCuC3PFrQdWV1YvAOs0+lrbq/GtB1ZX9ocA1nXhfvfWA0ujTOXQM/D35E6/tH2ixEBgdeOME+CBFAgDKRCuSjNJ2wtcrXd0+QFy6BloSPbWBtFmgdDaHzzmvUQFPJECwfUUTKuBxaFnoFlSYbm+373VwOrCMivgiUafk3ms1u53bzewFMrTNtMe8Ga535978ebVc2kma3NU02pgcegZaF72vHGLK4WtdnYZT2/JePq6NNNw6BmYWHa/C3G4/XTvkjQaF+WjNUscegYa53nvYyt/aE1jLM2hZ2ByGnPHbd3v3lpgqaxWtDj5B3glI5sVGdncl2a6GL6U6ZhNaTWqtcDi0DPQDs/FQmuBpVGWtrnjFvAsd6VQkuOeVFiroWHtBVb2SkV7E3+Ad0sXFoYhVJ+FRG0teLXW4aXC4tAz0JLsgqGl+91bC6zckpRDz0A6jU3bs6dOnxsMh/vSbEwrgdWFmw8Bz2SEkz2H3MaiVyuBpbFKwaFnIJ3XPthOYDlNd6ArvF7t1EpgLXXg/dEA7zzOI7fS6bNXKEJ8vP10rx8AJJORzqDKud89hoFUWNek2ZhWAksqLA49Ay3LLxyaH+k0+ofVOPQM2CAVVvZcctOnTRoPLI3VCamwWruiFegKj+d5Gw8sjz8koItUioeGVwobDyyPZSjQRR6nZ5oPLIcTfUBXyQLYfqjCWWkmkemZRhfAGu/4UmHlHXpu+AcEdFl+AdHs/e5RPhrlcbMa0FVSYbnaxN3YH1Tj0DNgi4x4sueUm1wEazSwNFYl5IlbuUsa6CKpsFakwrovzXQN9slmA8tZmgNd523U02hgSZq7Gi8D0yB3XllSpLH73Rvt/AorEhx6BpR5ut+90cCSCotDz4Ax+YVEcyOfRv6QmsddtcA08HS/e2OBpbFCKBUWh54BZVJhrUmFdUeayZpaDGsssDj0DNjkqZhoLLA0tjRw6BnQ5+l+9+YCy9HEHjBtcrc2SIXVyIJYYwEgS6c7snTaD4ma+oEA0yi3oJAKq5H73RsMrPlKPiXj0DNQzuWLC5tVVX0hzWRNjICK/wE1b9v/gWmjMcfc681ce7i7O5BmMY0E1pKzA5bAtPGyit9IYGmkdxM/DGBaqWxtaGAU1EhgSYW1IRXWLWkma2J8DEyz3HlmSZPih6AbCYHcFQh5TA49A4VJYbEfjN/v3khg5SZ3Ez8IYNplFxYx7EuFdU5axRQPLA49Az5IhWV+6qboN6+pTOY1dE4JmGYeFsfKB5ajk+DANNMoLnq93u2Hu882QiHlA0shtTn0DJTnYYN3+cDKncgTpcfFAP4te4Gs8BG64kHAoWfADxkRDWREdFWaSUr31wYCa76ST8lKJzaAP1gfERX7xjUPY2IAf5AKy/Scc9HAWuLQM+CKVFimV/WLBpZGWpd88QD+TGNrg8xjFds3WTSwpMLakArrljSTlRwPA/gz6ydTioaBlJdbUl5el2YiDj0DTcteKCu4Ulg0sCy/cACHUyg0hlJoXJKGuigfRVgvLQEczvL97kW+ac365B2Aw2kslpW6371cYBlfHgVwOFksM7sdqVxgKaR0yQ1oAA6nMjoqtOG7XGBlT9yVGwcDOF7ugpkkS5H73YsFAoeeAb+k/w6l/34WEpXqvwUDa76ST+kKJTSAj8seIRW6371IYHHoGfBtaXHhbhhVX0kz2eyp0+cGw+G+NNUUCSzLqwwAPk5j0azEKn+RwNJ4saX2cQD4OI2VwhL3uxcKLLs7ZQF83Of98/13b0Y70kxWYlqnSChkT9hx6BloXe7CWYmVwiKBZfGFApiMTO0Mqpz73WMYSIV1TZpq1APLaikJYDL5IyX9qR3Vb1bTmKyTCotDz0DLpMLKXjzTPl6nH1gcegY64cri+dXRaPS9NJNp92X1wLK64QzAZFRGS8rTO+qBJRXWllRY16WZTF7kegDQrirOSV9ek1Y65Us41QNr6cLCjrzSfgAw9WQ+WnXFv0BgzVfyCQCE7v3uUT7UaIx5AXSL5tYGtW9UUzn0DKBTNFcKVQNLY98GgI5RvHlFObDyDz0D6BZZ9Vfb2qAbWApbGgB0S4zxh0dP9lakmU01sFghBPBXmlsb1AJL49AzgG7SWilU+SY1tjQAOIrWcTsCC0BxWlsbCCwAxck8lsqVUQQWgOK0tjYQWACKI7AAuEFgAXDDXGAt9/tzL968ei7NZForCQB05W4KNxdYtewXpbSSAEBXdt/uZGApvSgAuqz0bQILwEdZ6dsEFoCPyu3bkjQqd2IRWACOdWVxcXk0evdAmsm0FtQILADH0tiyRGABaASBdQQCC7CHwDoCgQXYQ2AdgcAC7CGwjkBgAfZ0NrCy3zWnF7/b3t1bkxYAIwisI0TFd9cAoIPAOgKBBdhDYB2BwOom+YW/XlWhH6tRP/xJHMR44vHD3d2BfFFU/Qzxt2q5itWcfPmBZp6hvn7p5ftfrx7+DLpiFferT+LgzIn/+UnjnWrkZ0dgHSYSWJ1x0EHfvP5GOudqqMKc/KtjxKHMX65v7z67J1+oqZ/hxdtXd6S58rFnkAWfQRXCtxrn3T40yTMUEcPGzMnet/8cPhuGRBqBNXOqdynnGcaifKghsFA7OHtWvfsxTNpBY9ycPfnpbY2qIP0ZwsbsydNfazzDQUcfje5P/AzaYtiXf95ODeMri+dXR6PR99JMZu6NVGsEFpKD4nfyO7AlvwM3pZks9xnq4Nx+sveltJIdPEPmgWFtqcOyyxfn16sqfCPNZAQWTJJf7gfyy70szWQyPMvaj7d0YWEnhKofMuQ8w+/DwJ2QGpilSKUl1eOlSatH+X9KYB2GwPJNY+hwILFj1Sw8g0YHLyUliDVeD4EFcy5fXNisquoLaWbr9Xq3H+4+2wgTks6VXeH9R+Klc6rPoC4Ot5/uXZLG3yavh8A6DIHlW+7RrD9JPPWg+Qwp1UhN8xlKmD11+twklWN3Ayvzb1gCyzfNjpryu/B5/3z/3ZvRjjRVxBh/ePRkb0Waf9vBymDmFoDSJp1873BgZb4wmTeQEvyctOBQ24FV03wGeYh78vu4GiagHZolEFi/s/TC0Lyli/P7oQpnpZkteThm4Rk0Q7OASfuYpX6t8k3GLL0wNE/CYkPC4pY0s01aBYzlTkt8qNebuZZyZEfzGbSlVK6W+rXKNxmz9MLQPK35G6lsfpLKZlmaE1N7hoSOPab1DCWkrL5a6tcq32TM0gtDO5YWF+6GUfWVNJOlVldjGpVeanU1ZrHKSg3h7H4dwy8yFzgnrWyq4ZD9wgSB5Z/8Hgzk9+CqNCeWUgH8Vb3T/OXbV1uen0FbXbWeOXn6xiTbGcZy/xJKDcrDqIaD/KKuy/8gAguT/5LL38Lyz1X5m3hTPmerA+PFu9frEz1DiI9DrNY0n+Hl29cbbVda9faMMyc/XU0Jq5ql/ZWq4UBg4UMHS/xvR+uhijdCqD4Lh6h/meXT5plTn26kdqjjHMwnjUar1p9B30H4bsVebyNneF0jsI5BYAG2EFjHILAAWwisYxBYgC2dDSxZTl4JVbgvzWSTHswEUFZnA+tgcjFzw1zuHhwAugisYxBYgC0E1jFi4oFTAPp+35ryIGRc99zpwKr1Qlx7+HTvO2kCaEndn8NodEcW0pbly2SdD6wDMezHKg6kBaBpsZrLDaoxs4FVH0V48ebVc2kCwAEJrK8lsO5KM5tqYNUsnlIH0B6td32uqQeWxl4sAN0g1ZXacLCmHlg1Ca19Ca2z0gQwxTSu6vlQkcDSOKIDwLv4ePvpXj8oKhJYtaULC8PmrtIAYE7iG9Eep1xgMZcFTC3tuauxYoFVk9DakNC6JU0A0yKGX2ZPnu6XuMSgaGDVZD5rIPNZV6UJYArkvoHHcYoHVr2Z1NJl/ADK0V4V/KvigVUjtICOk2Gg/FPtTUSO0khg1erQevH21V3mtICuiY97vRMrpYaBH2ossMZkIn5FPtWT8WflMwDPevG72ZlP10tMsB+m8cCq1dWWDBHXqhDWCC7An/q9DiWs7jZ92WYrgTVWB9f/vft1papGa8xvAdb9+70OZ0721rUOM0+q1cD6UB1eMsd1Qx5oWSqvfqxiPwBolwRUjL3hJzNhq62Q+pDkAwD4QGABcIPAAuAGgQXADQILgBsEFgA3CCwAbhBYANwgsAC4QWABcIPAAuAGgQXADQILgBsEFgA3CCwAbhBYANwgsAC4QWABcIPAAuAGgQXADQILgBsEFgA3CCwAbhBYANwgsAC4QWABcIPAAuAGgQXADQILgBsEFgA3CCwAbhBYANwgsAC4QWABcIPAAuAGgQXADQILgBsEFgA3CCwAbhBYANwgsAC4QWABcIPAAuAGgQXADQILgBsEFgA3CCwAbhBYANz4f9RnBeGlLiLkAAAAAElFTkSuQmCC;" vertex="1" parent="1">
          <mxGeometry x="-1260" y="450" width="75.5" height="75.5" as="geometry" />
        </mxCell>
        <mxCell id="bHxsROqGJ9d036n8B6Q5-22" value="6类网线" style="edgeLabel;html=1;align=center;verticalAlign=middle;resizable=0;points=[];fontSize=11;fontFamily=Helvetica;fontColor=default;" vertex="1" connectable="0" parent="1">
          <mxGeometry x="-1382.085994417295" y="470.00398761056124" as="geometry" />
        </mxCell>
        <mxCell id="bHxsROqGJ9d036n8B6Q5-23" value="6类网线" style="edgeLabel;html=1;align=center;verticalAlign=middle;resizable=0;points=[];fontSize=11;fontFamily=Helvetica;fontColor=default;" vertex="1" connectable="0" parent="1">
          <mxGeometry x="-1382.085994417295" y="310.00398761056124" as="geometry" />
        </mxCell>
        <mxCell id="bHxsROqGJ9d036n8B6Q5-24" value="6类网线" style="edgeLabel;html=1;align=center;verticalAlign=middle;resizable=0;points=[];fontSize=11;fontFamily=Helvetica;fontColor=default;" vertex="1" connectable="0" parent="1">
          <mxGeometry x="-989.9955150064015" y="309.99903417706287" as="geometry" />
        </mxCell>
        <mxCell id="bHxsROqGJ9d036n8B6Q5-27" value="屏幕2" style="shape=image;verticalLabelPosition=bottom;labelBackgroundColor=default;verticalAlign=top;aspect=fixed;imageAspect=0;image=data:image/png,iVBORw0KGgoAAAANSUhEUgAAASwAAAEsCAYAAAB5fY51AAAXfklEQVR4nO3c4XXcxtnF8bsVCKnASAVCKuBMBfFbQZQKIleQ2QqiVGC5grgDP6wgcAUGO4AqwHsnw41IRpZ2BiAHA97fOX8tyQ/JDLy8R6KVnCAi0ggNlog0Q4MlIs3QYIlIMzRYItIMDZaINEODJSLN0GCJSDM0WCLSDA2WiDRDgyUizdBgiUgzNFgi0gwNlog0Q4MlIs3QYIlIMzRYItIMDZaINEODJSLN0GCJSDM0WCLSDA2WiDRDgyUizdBgiUgzNFgi0gwNlog0Q4MlIs3QYIlIMzRYItIMDZaINEODJSLN0GCJSDM0WCLSDA2WiDRDgyUizdBgiUgzNFgi0gwNlog0Q4MlIs3QYIlIM740WD2Av7Dv2cCimRlSt2xkIiJrDOyGOaSPeyQG4Gf2E5vZf53YQ39nAd8W/0MMqVs2MhGRrxnYDXNIdexrZhYA/JP9x4ld/MjeoZwhNbJbNjMReZ069pY5pAbWsRIfAfyV/XewAtLvrrY04fOAxW6ZiBzTDRuetKUf2IcTf+kB/MZewvikWyYibblhw5Oe28z+dOIvH5F+yF7LyCak19ivbIKI1NYD+I45pFHqkV5r+enEXxa2R4Y0XBPSx3dsgohsrcfnYeqRctif+cRfFtaSkU34/Doh/a5sZiLyZR2LPwSPr8N9PdJrM06stcH6GkMarpFNSN2xCSLH1yP9TqlHamAdcziIE1vYazDhy92xCSL71+PxIPV43OGd2MIkMSQjm9mEVHTLRJ7LDYt6pDo2sMhB/uPEFibXm9nIogmpKH5tZpF+piYdiz8ziuLHA4t6pKL4tY7JlU5Mg/W8JqSimY3sYkLqQkO3Px27DE/UI3UxsI5FPVLyTE5Mg7VfE1IPjWxmD8XPR/bUJ/alrx/ZwN6wp+LXO/ZQ/HxgD/VIyQ6dmAbrdRvZzEqNbGbX6NjASnVsYPJKabBEpBkaLBFphgZLRJqhwRKRZmwxWGf2gQ3MIb3GvmMi8jrdsfE+Q3p9z/7Oip3YwtY4s4D/1bGBOaTX2HdMRI7ljo33GdLrzJ4K2PFgfUnHBuaQXns8/kt5IrJvd2y8z5BeZ3aNgMYG6/cMrEd6jfXQkInU9CubkAYpNjPDOgEHGazfM7Ae6TXWQ0MmsqWnwzQhvT6HgIMP1u8ZWI/02rGB9dDPyES+5I5NSEM0s5FNSK8vKeCVDtbX9HjcwDo2sDdM5Ihu2cxGNrORTUjtRYAGK5tD4pD0SEU3TGRvblk0IRUZEkM7AjRYz6JHKnJIeqSiGyay1i2LJqQiQzIhdSQBGqzqBtaxaGAdi3qkovi1t0yOK/7wembRhFQUvzayC8PrFaDBapLDZx0b2EPx845dxI81eM/rjk14zPDYhNSFQXIEaLBerR6ppwbWsS+JXx/Y19ywPbljE37fhNTvMXyZQV5agAZLRBoRoMESkUYEaLBEpBEBGiwRaUSABktEGhFwwMG6YR3rkf7+yicWX0XkeQ3sDYuvM5vw+S+3biHgIIPVsb+x96xjXzKzkc1sZDMbmQZN5DoDe8Pia8cG1rGBdez3fATwA5vZGgEHGKyB/cI6tsbMRjazkU1I3bEJIsfXI/0/lvRIDaxjA+vYGjP7K/uZlQpofLAG9gvr2HOb8OXu2ASR/evxeJB6PO4leGYoE9D4YP3GeuzDzEYWTUhF8Wszi26ZyNZuWNSxgUU9UlH8Wsf2YGZ/ZPE1V0DDg/We/YO1aGYjiyakovi1mUW3TF6vGxZ1bGBRj1QUv9axFp1ZQL6Ahgfr32xgRzezkUUTUhcTUg/9ymYm9fVIfwR7aGAduxhYxyKH12FC+l1WroCGB2vtf+9rMbORPRQ/n9lDhsfu2ITX6YY91LGBPRQ/79hDDnKtP7IJeQIaHawe6edXsi8zG9ledGxgsj+eGfIENDpYDunfDopImzwz5AnQYIlIBZ4Z8gRosESkAs8MeQI0WCJSgWeGPAEaLBGpwDNDngANlohU4JkhT4AGS0Qq8MyQJ0CDJSIVeGbIE6DBEpEKPDPkCdBgiUgFnhnyBGiwRKQCzwx5AjRYIlKBZ4Y8ARosEanAM0OeAA2WiFTgmSFPgAZLRCrwzJAnQIMlIhV4ZsgToMESkQo8M+QJ0GCJSAWeGfIEaLBEpALPDHkCNFgiUoFnhjwBGiwRqcAzQ54ADZaIVOCZIU+ABktEKvDMkCdAgyUiFXhmyBOgwRKRCjwz5AnQYIlIBZ4Z8gRosESkAs8MeQI0WEU8M+RxqHvmLZXcf+8Wdq093n9gPdL77Hv2Hdszzwx5AjRYRTwz5HGoe+Ytldx/7xZ2rRbu7wC8Z39me1TyDAM0WEU8M+RxqHvmLZXcf+8Wdq2W7u8AfGBv2Z6UPMMADVYRzwx5HOqeeUsl99+7hV2rxfvH0fob24uSZxigwSrimSGPQ90zb6nk/nu3sGu1ev93AH5ke1DyDAM0WEU8M+RxqHvmLZXcf+8Wdq2W7/8O+xitkmcYoMEq4pkhj0PdM2+p5P57t7BrtX7/9+wfrKaSZxigwSrimSGPQ90zb6nk/nu3sGsd4f4/sz+zWkqeYYAGq4hnhjwOdc+8pZL7793CrnWE+3dsAvCG1VDyDAM0WEU8M+RxqHvmLZXcf+8Wdq2j3P8d6v08q+QZBmiwinhmyONQ98xbKrn/3i3sWke6/4Q6fyu+5BkGaLCKeGbI41D3zFsquf/eLexaR7r/O9T5XVbJMwzQYBXxzJDHoe6Zt1Ry/71b2LWOdv+ZvfTPskqeYYAGq4hnhjwOdc+8pZL7Rw7HeAal99+rjwD+wl5SyTMM0GAV8cyQx6HumbdUcv/I4RjPoPT+BuCGrTUBGNnP7Ce21vfsX+wleWbIE6DBKuKZIY9D3TNvqeT+kcMxnkHp/Q3bDNZDE4D/YyMr1QP4jb0kzwx5AjRYRTwz5HGoe+Ytldw/cjjGMyi9v2H7wYpmFs80slIze8NeSjyvIU+ABquIZ4Y8DnXPvKWS+0cOx3gGpfc3PM9gRROAP7E4PCUMz3e2Lyl5hgEarCKeGfI41D3zlkruHzkc4xmU3t/wvKNwZgFlDM97tqc8M+QJ0GAV8cyQx6HumbdUcv/I4RjPoPT+hucdhfi7qz+wEh/xsv+msOQZBmiwinhmyONQ98xbKrl/5HCMZ1B6f8PzDlb0JzayXAErxyBTyTMMWHnGE1vYGmcWkMeh7hvfM0Meh7pn3lLJ/SOHYzyD0vsbnn+w/so+Il/AyjHI5JkhT8DKM57YwtY4s4A8DnXf+J4Z8jjUPfOWSu4fORzjGZTe3/D8g3VmAfkCVo5BJs8MeQJWnvHEFrbGmQXkcaj7xvfMkMeh7pm3VHL/yOEYz6D0/gYN1oVnhjwBK894Ygtb48wC8jjUfeN7ZsjjUPfMWyq5f+RwjGdQen+DBuvCM0OegJVnPLGFrXFmAXkc6r7xPTPkcah75i2V3D9yOMYzKL2/QYN14ZkhT8DKM57YwtY4s4A8DnXf+J4Z8jjUPfOWSu4fORzjGZTe36DBuvDMkCdg5RlPbGFrnFlAHoe6b3zPDHkc6p55SyX3jxyO8QxK72/QYF14ZsgTsPKMJ7awNc4sII9D3Te+Z4Y8DnXPvKWS+0cOx3gGpfc3aLAuPDPkCVh5xhNb2BpnFpDHoe4b3zNDHoe6Z95Syf0jh2M8g9L7GzRYF54Z8gSsPOOJLWyNMwvI41D3je+ZIY9D3TNvqeT+kcMxnkHp/Q0arAvPDHkCVp7xxBa2xpkF5HGo+8b3zJDHoe6Zt1Ry/2hgH9ge3bBrld7fkPffU+LMAvIFrByDTJ4Z8gSsPOOJLWyNMwvI41D3m98zQx6HumfeUsn9925h1yq9v0GDdeGZIU/AyjOe2MLWOLOAPA51v/k9M+RxqHvmLZXcf+8Wdq3S+xs0WBeeGfIErDzjiS1sjTMLyONQ95vfM0Meh7pn3lLJ/fduYdcqvb9Bg3XhmSFPwMozntjC1jizgDwOdb/5PTPkcah75i2V3H/vFnat0vsbNFgXnhnyBKw844ktbI0zC8jjUPeb3zNDHoe6Z95Syf33bmHXKr2/QYN14ZkhT8DKM57YwtY4s4A8DnW/+T0z5HGoe+Ytldx/7xZ2rdL7GzRYF54Z8gSsPOOJLWyNMwvI41D3m98zQx6HumfeUsn9925h1yq9v0GDdeGZIU/AyjOe2MLWOLOAPA51v/k9M+RxqHvmLZXcf+8Wdq3S+xs0WBeeGfIErDzjiS1sjTMLyONQ95vfM0Meh7pn3lLJ/fduYdcqvb9Bg3XhmSFPwMozntjC1jizgDwOdb/5PTPkcah75i2V3H/vFnat0vsbNFgXnhnyBKw844ktbI0zC8jjUPeb3zNDHoe6Z95Syf33bmHXKr2/QYN14ZkhT8DKM57YwtY4s4A8DnW/+T0z5HGoe+Ytldx/7xZ2rdL7GzRYF54Z8gSsPOOJLWyNMwvI41D3m98zQx6HumfeUsn9o469ZXtkuF7p/Q0arAvPDHkCVp7xxBa2xpkF5HGo+83vmSGPQ90zb6nk/pHDMZ5B6f0NGqwLzwx5Alae8cQWtsaZBeRxqPvG98yQx6HumbdUcv/I4RjPoPT+Bg3WhWeGPAErz3hiC1vjzALyONR943tmyONQ98xbKrl/5HCMZ1B6f4MG68IzQ56AlWc8sYWtcWYBeRzqvvE9M+RxqHvmLZXcP3I4xjMovb9Bg3XhmSFPwMozntjC1jizgDwOdd/4nhnyONQ985ZK7h85HOMZlN7foMG68MyQJ2DlGU9sYWucWUAeh7pvfM8MeRzqnnlLJfePHI7xDErvb9BgXXhmyBOw8owntrA1ziwgj0PdN75nhjwOdc+8pZL7Rw7HeAal9zdosC48M+QJWHnGE1vYGmcWkMeh7hvfM0Meh7pn3lLJ/SOHYzyD0vsbNFgXnhnyBKw844ktbI0zC8jjUPeN75khj0PdM2+p5P6RwzGeQen9DRqsC88MeQJWnvHEFrbGmQXkcaj7xvfMkMeh7pm3VHL/yOEYz6D0/gYN1oVnhjwBK894Ygtb48wC8jjUfeN7ZsjjUPfMWyq5f+RwjGdQen/D8w9W6dkCVo5BppJzBqw844ktbI0zC8jjUPeN75khj0PdM2+p5P6RwzGeQen9Dc8/WH9gM8sVsHIMMpU8w4CVZzyxha1xZgF5HOq+8T0z5HGoe+Ytldw/cjjGMyi9v+F5B+uWOZQxPO/ZnvLMkCdAg1XEM0Meh7pn3lLJ/SOHYzyD0vsbnncUSs8VGZ73bE+VnDVAg1XEM0Meh7pn3lLJ/SOHYzyD0vsbnm8U/snes1L/ZgN7KSXPMECDVcQzQx6HumfeUsn9I4djPIPS+xueZ7B+Yu+wzsJekmeGPAEarCKeGfI41D3zlkruHzkc4xmU3t+w7WDdsQDgI9ZxePl/Lp4Z8gRosIp4ZsjjUPfMWyq5f+RwjGdQev93AHqsNwEY79vCe/YP9pI8M+QJ0GAV8cyQZ2Af2N4N7A37mpL7R/E/+wPboxt2rdL779W/2cBeUskzDNBgFfHMcEyGb3/zHvH+C7vWke7fA/iNvTTPDHkCNFhFPDMck0GD9S1Huv9HAH9hL63kGQZosIp4ZjgmgwbrW45y/x7pj4Mde2meGfIEaLCKeGY4JoMG61uOcv+PqPO7q6jkGQZosIp4ZjgmgwbrW45wf4f2vocCNFhFPDMck0GD9S2t3z/+ETD+UbBHPZ4Z8gRosIp4ZjgmgwbrW1q+fxyrX9jAaip5hgEarCKeGY7JoMH6lpbv/wtzqK/kGQZosIp4ZjgmgwbrW1q8f8d+YQPbg5JnGKDBKuKZ4ZgMGqxvae3+DsCPrMd+eGbIE6DBKuKZ4ZgMGqxvaeX+PdI3+Dvsj2eGPAHpPsVObGFrnFlAHgcN1nMxaLC+Ze/3/zN7B+B7tlclzzBAg1XkI9L/Yv6I3gHo8XUfcbz7B1zvI/Z3/44NzKENnhnyBGiwRKQCzwx5AjRYIlKBZ4Y8ARosEanAM0OeAA2WiFTgmSFPgAZLRCrwzJAnQIMlIhV4ZsgToMESkQo8M+QJ0GCJSAWeGfIEaLBEpALPDHkCNFgiUoFnhjwBGiwRqcAzQ54ADZaIVOCZIU+ABktEKvDMkCdAgyUiFXhmyBOgwRKRCjwz5AnQYIlIBZ4Z8gRosESkAs8MeQI0WCJSgWeGPAEaLBGpwDNDngANlohU4JkhT4AGS0Qq8MyQJ0CDJSIVeGbIE6DBEpEKPDPkCdBgiUgFnhnyBGiwRKQCzwx5AjRYIlKBZ4Y8ARosEanAM0OeAA2WiFTgmSFPQKOD1QP4jck+fGIjyzUhlaNHKtfA3jDZB88MeQIaHaxo7X/va3HLHprZyB6Kn8/sIcPr5vBYxwb2UPy8Yw/dMPm2E8sV0PBgjewtO7pf2cyikc3swvDYhJTsR4/UQwPr2IVDEr/2Wt7TA8sV0PBgvQPwI2tR/Ac2s8iQxM9HFk1IyevVIxUNrGORQxI/b3XcfmAfWK6AhgcrGtle/qH9ymYWGZL4+ciiCSmRrfVIRQPrWOSQxM/38n1yxwY2s1wBjQ/WwAwv88PUyyCNbGYjm9nIZibSAoc0YAPr2MA69pY9t0/MIX3PlAhofLCigf3MvmNr3LEJ6WHObGQzG9nMRI6uYwPr2MA6NrCOrR20tWMVBRxgsKKOvb/vDfuSOzbh9xORr+vYwHr8b9+xL4lD9eG+ma0RcJDBemhgHbuYkBKR59UjdTGzkW0l4ICDJSLHFKDBEpFGBGiwRKQRARosEWlEgAZLRBoRoMF6lW7YUz1SXzKwjn2Nw74Zvs3wZRNST90yeTkBGqzm3LCLOCIDu+jYwB5ykJdkeGxkM7sY2cwubplcJ0CDVdXALn/RNX7csWhgHYt6pOT4JqSimY0smtnIovgXMS8fvzYBGqxnccOigXUsckji5wMTWWtCKjIkMxtZdMuOJECDle2GRQPr2MC6+wYmsjcTUjMbWWRIblkrAjRY/+OGRQ6JQ+IgclyGJA7azAzJLduLgFc6WDesYwPrkYofd0xEHpvZyGY23jezW/aSAg48WD3S/4LcIQ3RcF/HRGQbMxvZhJTh8/8zytYCDjBYPT4PU4+Ug4jUZkjDNSF9fMcmlAtobLAG9pbF10sdE5E2zGx80K8svl4jYMeDdcOG+3rod00iRzY+6ZY9FbCTwfqIxwPlICKvnSGNV+yWvcMOBktE5EVosESkGRosEWmGBktEmqHBEpFmaLD2645NeCz+25aZPWSQa3RsYA91bGAPdSz+XUHZoRPTYD2fT2xkF4bPJqQuDLJXA+tYFF8HdhE/7lgUXzV2z0iDle9XNt83smhCKopfm5nIwLr7Bhb1SEXxa2+YXOnENFjJZYgmpOLHI4smpESei0PSI9WxgUU3TOjEFnZ0n9jIIkNiSOLXZyaydwPrWI/Hxa+9ZYd3YkcZrF/ZzAyJIX0+MpHXoGMD69jAeqTix29Y805sZq1cJo7ShDRCEx4nIl83sI45pNfhvla+/z/FwTLs78/Id2xCOtuElEFEnkPHhvt6pNfY3obs9sRf3rN/sFpu2XjfBA2TyF50bGAOn4fsLavlhxN/6diEl1nTWzY+SUTa4pDG69Jb9tw+sf7EX6Lv2b/Ylm7Z+CQROSaHNF6X3rIt/cA+nPjLxTsAP7JSt8zwORF5vTrmkMbLYd3PyX9i70An9tD37CO+/cfDT8zwuZGJiHyNw+cGds3OBPB3Vuw/ng5W1LHv7+uRfmt3yyZ8HqeYiMgaA3NIxY+/Y3GkRvYz+4j0167+68RERJqgwRKRZmiwRKQZGiwRaYYGS0SaocESkWZosESkGRosEWmGBktEmqHBEpFmaLBEpBkaLBFphgZLRJqhwRKRZmiwRKQZGiwRaYYGS0SaocESkWZosESkGRosEWmGBktEmqHBEpFmaLBEpBkaLBFphgZLRJqhwRKRZmiwRKQZGiwRaYYGS0SaocESkWZosESkGRosEWmGBktEmqHBEpFmaLBEpBkaLBFphgZLRJqhwRKRZvw/tft/phtjChgAAAAASUVORK5CYII=;" vertex="1" parent="1">
          <mxGeometry x="-820" y="442.75" width="90" height="90" as="geometry" />
        </mxCell>
        <mxCell id="bHxsROqGJ9d036n8B6Q5-28" style="edgeStyle=orthogonalEdgeStyle;shape=connector;rounded=0;orthogonalLoop=1;jettySize=auto;html=1;exitX=0.949;exitY=0.478;exitDx=0;exitDy=0;entryX=0;entryY=0.5;entryDx=0;entryDy=0;labelBackgroundColor=default;strokeColor=#0000CC;strokeWidth=2;align=center;verticalAlign=middle;fontFamily=Helvetica;fontSize=11;fontColor=default;endArrow=none;endFill=0;exitPerimeter=0;" edge="1" parent="1">
          <mxGeometry relative="1" as="geometry">
            <mxPoint x="-1184.5" y="487" as="sourcePoint" />
            <mxPoint x="-816.5" y="488" as="targetPoint" />
          </mxGeometry>
        </mxCell>
        <mxCell id="bHxsROqGJ9d036n8B6Q5-29" value="6类网线" style="edgeLabel;html=1;align=center;verticalAlign=middle;resizable=0;points=[];fontSize=11;fontFamily=Helvetica;fontColor=default;" vertex="1" connectable="0" parent="1">
          <mxGeometry x="-989.9955150064015" y="479.99903417706287" as="geometry" />
        </mxCell>
        <mxCell id="bHxsROqGJ9d036n8B6Q5-35" value="" style="edgeStyle=orthogonalEdgeStyle;rounded=0;orthogonalLoop=1;jettySize=auto;html=1;fillColor=#e51400;strokeColor=#B20000;exitX=1;exitY=0.5;exitDx=0;exitDy=0;endArrow=none;startFill=0;entryX=0;entryY=0.25;entryDx=0;entryDy=0;strokeWidth=2;" edge="1" parent="1" source="749JlQ45wNmBAUl5USfy-73" target="h75pCEdkkC_XDxHb6yKX-110">
          <mxGeometry relative="1" as="geometry">
            <mxPoint x="-1720" y="800" as="sourcePoint" />
            <mxPoint x="-1500" y="400" as="targetPoint" />
            <Array as="points">
              <mxPoint x="-1590" y="801" />
              <mxPoint x="-1590" y="303" />
            </Array>
          </mxGeometry>
        </mxCell>
        <mxCell id="bHxsROqGJ9d036n8B6Q5-36" value="电源线" style="edgeLabel;html=1;align=center;verticalAlign=middle;resizable=0;points=[];" vertex="1" connectable="0" parent="bHxsROqGJ9d036n8B6Q5-35">
          <mxGeometry x="-0.3436" y="1" relative="1" as="geometry">
            <mxPoint y="-132" as="offset" />
          </mxGeometry>
        </mxCell>
        <mxCell id="bHxsROqGJ9d036n8B6Q5-37" value="" style="edgeStyle=orthogonalEdgeStyle;rounded=0;orthogonalLoop=1;jettySize=auto;html=1;fillColor=#e51400;strokeColor=#B20000;exitX=1;exitY=0.5;exitDx=0;exitDy=0;endArrow=none;startFill=0;entryX=0;entryY=0.25;entryDx=0;entryDy=0;strokeWidth=2;" edge="1" parent="1" source="749JlQ45wNmBAUl5USfy-73" target="bHxsROqGJ9d036n8B6Q5-21">
          <mxGeometry relative="1" as="geometry">
            <mxPoint x="-1450" y="800.75" as="sourcePoint" />
            <mxPoint x="-1223" y="560" as="targetPoint" />
            <Array as="points">
              <mxPoint x="-1340" y="801" />
              <mxPoint x="-1340" y="469" />
              <mxPoint x="-1260" y="469" />
            </Array>
          </mxGeometry>
        </mxCell>
        <mxCell id="bHxsROqGJ9d036n8B6Q5-39" value="" style="edgeStyle=orthogonalEdgeStyle;rounded=0;orthogonalLoop=1;jettySize=auto;html=1;fillColor=#e51400;strokeColor=#B20000;exitX=1;exitY=0.5;exitDx=0;exitDy=0;endArrow=none;startFill=0;entryX=0;entryY=0.25;entryDx=0;entryDy=0;strokeWidth=2;" edge="1" parent="1" source="749JlQ45wNmBAUl5USfy-73" target="bHxsROqGJ9d036n8B6Q5-20">
          <mxGeometry relative="1" as="geometry">
            <mxPoint x="-1450" y="800" as="sourcePoint" />
            <mxPoint x="-1223" y="400" as="targetPoint" />
            <Array as="points">
              <mxPoint x="-1374" y="801" />
              <mxPoint x="-1340" y="800" />
              <mxPoint x="-1340" y="303" />
            </Array>
          </mxGeometry>
        </mxCell>
        <mxCell id="bHxsROqGJ9d036n8B6Q5-45" value="五合一" style="shape=image;verticalLabelPosition=bottom;labelBackgroundColor=default;verticalAlign=top;aspect=fixed;imageAspect=0;image=data:image/png,iVBORw0KGgoAAAANSUhEUgAAASwAAAEsCAYAAAB5fY51AAAXfklEQVR4nO3c4XXcxtnF8bsVCKnASAVCKuBMBfFbQZQKIleQ2QqiVGC5grgDP6wgcAUGO4AqwHsnw41IRpZ2BiAHA97fOX8tyQ/JDLy8R6KVnCAi0ggNlog0Q4MlIs3QYIlIMzRYItIMDZaINEODJSLN0GCJSDM0WCLSDA2WiDRDgyUizdBgiUgzNFgi0gwNlog0Q4MlIs3QYIlIMzRYItIMDZaINEODJSLN0GCJSDM0WCLSDA2WiDRDgyUizdBgiUgzNFgi0gwNlog0Q4MlIs3QYIlIMzRYItIMDZaINEODJSLN0GCJSDM0WCLSDA2WiDRDgyUizdBgiUgzNFgi0gwNlog0Q4MlIs3QYIlIM740WD2Av7Dv2cCimRlSt2xkIiJrDOyGOaSPeyQG4Gf2E5vZf53YQ39nAd8W/0MMqVs2MhGRrxnYDXNIdexrZhYA/JP9x4ld/MjeoZwhNbJbNjMReZ069pY5pAbWsRIfAfyV/XewAtLvrrY04fOAxW6ZiBzTDRuetKUf2IcTf+kB/MZewvikWyYibblhw5Oe28z+dOIvH5F+yF7LyCak19ivbIKI1NYD+I45pFHqkV5r+enEXxa2R4Y0XBPSx3dsgohsrcfnYeqRctif+cRfFtaSkU34/Doh/a5sZiLyZR2LPwSPr8N9PdJrM06stcH6GkMarpFNSN2xCSLH1yP9TqlHamAdcziIE1vYazDhy92xCSL71+PxIPV43OGd2MIkMSQjm9mEVHTLRJ7LDYt6pDo2sMhB/uPEFibXm9nIogmpKH5tZpF+piYdiz8ziuLHA4t6pKL4tY7JlU5Mg/W8JqSimY3sYkLqQkO3Px27DE/UI3UxsI5FPVLyTE5Mg7VfE1IPjWxmD8XPR/bUJ/alrx/ZwN6wp+LXO/ZQ/HxgD/VIyQ6dmAbrdRvZzEqNbGbX6NjASnVsYPJKabBEpBkaLBFphgZLRJqhwRKRZmwxWGf2gQ3MIb3GvmMi8jrdsfE+Q3p9z/7Oip3YwtY4s4D/1bGBOaTX2HdMRI7ljo33GdLrzJ4K2PFgfUnHBuaQXns8/kt5IrJvd2y8z5BeZ3aNgMYG6/cMrEd6jfXQkInU9CubkAYpNjPDOgEHGazfM7Ae6TXWQ0MmsqWnwzQhvT6HgIMP1u8ZWI/02rGB9dDPyES+5I5NSEM0s5FNSK8vKeCVDtbX9HjcwDo2sDdM5Ihu2cxGNrORTUjtRYAGK5tD4pD0SEU3TGRvblk0IRUZEkM7AjRYz6JHKnJIeqSiGyay1i2LJqQiQzIhdSQBGqzqBtaxaGAdi3qkovi1t0yOK/7wembRhFQUvzayC8PrFaDBapLDZx0b2EPx845dxI81eM/rjk14zPDYhNSFQXIEaLBerR6ppwbWsS+JXx/Y19ywPbljE37fhNTvMXyZQV5agAZLRBoRoMESkUYEaLBEpBEBGiwRaUSABktEGhFwwMG6YR3rkf7+yicWX0XkeQ3sDYuvM5vw+S+3biHgIIPVsb+x96xjXzKzkc1sZDMbmQZN5DoDe8Pia8cG1rGBdez3fATwA5vZGgEHGKyB/cI6tsbMRjazkU1I3bEJIsfXI/0/lvRIDaxjA+vYGjP7K/uZlQpofLAG9gvr2HOb8OXu2ASR/evxeJB6PO4leGYoE9D4YP3GeuzDzEYWTUhF8Wszi26ZyNZuWNSxgUU9UlH8Wsf2YGZ/ZPE1V0DDg/We/YO1aGYjiyakovi1mUW3TF6vGxZ1bGBRj1QUv9axFp1ZQL6Ahgfr32xgRzezkUUTUhcTUg/9ymYm9fVIfwR7aGAduxhYxyKH12FC+l1WroCGB2vtf+9rMbORPRQ/n9lDhsfu2ITX6YY91LGBPRQ/79hDDnKtP7IJeQIaHawe6edXsi8zG9ledGxgsj+eGfIENDpYDunfDopImzwz5AnQYIlIBZ4Z8gRosESkAs8MeQI0WCJSgWeGPAEaLBGpwDNDngANlohU4JkhT4AGS0Qq8MyQJ0CDJSIVeGbIE6DBEpEKPDPkCdBgiUgFnhnyBGiwRKQCzwx5AjRYIlKBZ4Y8ARosEanAM0OeAA2WiFTgmSFPgAZLRCrwzJAnQIMlIhV4ZsgToMESkQo8M+QJ0GCJSAWeGfIEaLBEpALPDHkCNFgiUoFnhjwBGiwRqcAzQ54ADZaIVOCZIU+ABktEKvDMkCdAgyUiFXhmyBOgwRKRCjwz5AnQYIlIBZ4Z8gRosESkAs8MeQI0WEU8M+RxqHvmLZXcf+8Wdq093n9gPdL77Hv2Hdszzwx5AjRYRTwz5HGoe+Ytldx/7xZ2rRbu7wC8Z39me1TyDAM0WEU8M+RxqHvmLZXcf+8Wdq2W7u8AfGBv2Z6UPMMADVYRzwx5HOqeeUsl99+7hV2rxfvH0fob24uSZxigwSrimSGPQ90zb6nk/nu3sGu1ev93AH5ke1DyDAM0WEU8M+RxqHvmLZXcf+8Wdq2W7/8O+xitkmcYoMEq4pkhj0PdM2+p5P57t7BrtX7/9+wfrKaSZxigwSrimSGPQ90zb6nk/nu3sGsd4f4/sz+zWkqeYYAGq4hnhjwOdc+8pZL7793CrnWE+3dsAvCG1VDyDAM0WEU8M+RxqHvmLZXcf+8Wdq2j3P8d6v08q+QZBmiwinhmyONQ98xbKrn/3i3sWke6/4Q6fyu+5BkGaLCKeGbI41D3zFsquf/eLexaR7r/O9T5XVbJMwzQYBXxzJDHoe6Zt1Ry/71b2LWOdv+ZvfTPskqeYYAGq4hnhjwOdc+8pZL7Rw7HeAal99+rjwD+wl5SyTMM0GAV8cyQx6HumbdUcv/I4RjPoPT+BuCGrTUBGNnP7Ce21vfsX+wleWbIE6DBKuKZIY9D3TNvqeT+kcMxnkHp/Q3bDNZDE4D/YyMr1QP4jb0kzwx5AjRYRTwz5HGoe+Ytldw/cjjGMyi9v2H7wYpmFs80slIze8NeSjyvIU+ABquIZ4Y8DnXPvKWS+0cOx3gGpfc3PM9gRROAP7E4PCUMz3e2Lyl5hgEarCKeGfI41D3zlkruHzkc4xmU3t/wvKNwZgFlDM97tqc8M+QJ0GAV8cyQx6HumbdUcv/I4RjPoPT+hucdhfi7qz+wEh/xsv+msOQZBmiwinhmyONQ98xbKrl/5HCMZ1B6f8PzDlb0JzayXAErxyBTyTMMWHnGE1vYGmcWkMeh7hvfM0Meh7pn3lLJ/SOHYzyD0vsbnn+w/so+Il/AyjHI5JkhT8DKM57YwtY4s4A8DnXf+J4Z8jjUPfOWSu4fORzjGZTe3/D8g3VmAfkCVo5BJs8MeQJWnvHEFrbGmQXkcaj7xvfMkMeh7pm3VHL/yOEYz6D0/gYN1oVnhjwBK894Ygtb48wC8jjUfeN7ZsjjUPfMWyq5f+RwjGdQen+DBuvCM0OegJVnPLGFrXFmAXkc6r7xPTPkcah75i2V3D9yOMYzKL2/QYN14ZkhT8DKM57YwtY4s4A8DnXf+J4Z8jjUPfOWSu4fORzjGZTe36DBuvDMkCdg5RlPbGFrnFlAHoe6b3zPDHkc6p55SyX3jxyO8QxK72/QYF14ZsgTsPKMJ7awNc4sII9D3Te+Z4Y8DnXPvKWS+0cOx3gGpfc3aLAuPDPkCVh5xhNb2BpnFpDHoe4b3zNDHoe6Z95Syf0jh2M8g9L7GzRYF54Z8gSsPOOJLWyNMwvI41D3je+ZIY9D3TNvqeT+kcMxnkHp/Q0arAvPDHkCVp7xxBa2xpkF5HGo+8b3zJDHoe6Zt1Ry/2hgH9ge3bBrld7fkPffU+LMAvIFrByDTJ4Z8gSsPOOJLWyNMwvI41D3m98zQx6HumfeUsn9925h1yq9v0GDdeGZIU/AyjOe2MLWOLOAPA51v/k9M+RxqHvmLZXcf+8Wdq3S+xs0WBeeGfIErDzjiS1sjTMLyONQ95vfM0Meh7pn3lLJ/fduYdcqvb9Bg3XhmSFPwMozntjC1jizgDwOdb/5PTPkcah75i2V3H/vFnat0vsbNFgXnhnyBKw844ktbI0zC8jjUPeb3zNDHoe6Z95Syf33bmHXKr2/QYN14ZkhT8DKM57YwtY4s4A8DnW/+T0z5HGoe+Ytldx/7xZ2rdL7GzRYF54Z8gSsPOOJLWyNMwvI41D3m98zQx6HumfeUsn9925h1yq9v0GDdeGZIU/AyjOe2MLWOLOAPA51v/k9M+RxqHvmLZXcf+8Wdq3S+xs0WBeeGfIErDzjiS1sjTMLyONQ95vfM0Meh7pn3lLJ/fduYdcqvb9Bg3XhmSFPwMozntjC1jizgDwOdb/5PTPkcah75i2V3H/vFnat0vsbNFgXnhnyBKw844ktbI0zC8jjUPeb3zNDHoe6Z95Syf33bmHXKr2/QYN14ZkhT8DKM57YwtY4s4A8DnW/+T0z5HGoe+Ytldx/7xZ2rdL7GzRYF54Z8gSsPOOJLWyNMwvI41D3m98zQx6HumfeUsn9o469ZXtkuF7p/Q0arAvPDHkCVp7xxBa2xpkF5HGo+83vmSGPQ90zb6nk/pHDMZ5B6f0NGqwLzwx5Alae8cQWtsaZBeRxqPvG98yQx6HumbdUcv/I4RjPoPT+Bg3WhWeGPAErz3hiC1vjzALyONR943tmyONQ98xbKrl/5HCMZ1B6f4MG68IzQ56AlWc8sYWtcWYBeRzqvvE9M+RxqHvmLZXcP3I4xjMovb9Bg3XhmSFPwMozntjC1jizgDwOdd/4nhnyONQ985ZK7h85HOMZlN7foMG68MyQJ2DlGU9sYWucWUAeh7pvfM8MeRzqnnlLJfePHI7xDErvb9BgXXhmyBOw8owntrA1ziwgj0PdN75nhjwOdc+8pZL7Rw7HeAal9zdosC48M+QJWHnGE1vYGmcWkMeh7hvfM0Meh7pn3lLJ/SOHYzyD0vsbNFgXnhnyBKw844ktbI0zC8jjUPeN75khj0PdM2+p5P6RwzGeQen9DRqsC88MeQJWnvHEFrbGmQXkcaj7xvfMkMeh7pm3VHL/yOEYz6D0/gYN1oVnhjwBK894Ygtb48wC8jjUfeN7ZsjjUPfMWyq5f+RwjGdQen/D8w9W6dkCVo5BppJzBqw844ktbI0zC8jjUPeN75khj0PdM2+p5P6RwzGeQen9Dc8/WH9gM8sVsHIMMpU8w4CVZzyxha1xZgF5HOq+8T0z5HGoe+Ytldw/cjjGMyi9v+F5B+uWOZQxPO/ZnvLMkCdAg1XEM0Meh7pn3lLJ/SOHYzyD0vsbnncUSs8VGZ73bE+VnDVAg1XEM0Meh7pn3lLJ/SOHYzyD0vsbnm8U/snes1L/ZgN7KSXPMECDVcQzQx6HumfeUsn9I4djPIPS+xueZ7B+Yu+wzsJekmeGPAEarCKeGfI41D3zlkruHzkc4xmU3t+w7WDdsQDgI9ZxePl/Lp4Z8gRosIp4ZsjjUPfMWyq5f+RwjGdQev93AHqsNwEY79vCe/YP9pI8M+QJ0GAV8cyQZ2Af2N4N7A37mpL7R/E/+wPboxt2rdL779W/2cBeUskzDNBgFfHMcEyGb3/zHvH+C7vWke7fA/iNvTTPDHkCNFhFPDMck0GD9S1Huv9HAH9hL63kGQZosIp4ZjgmgwbrW45y/x7pj4Mde2meGfIEaLCKeGY4JoMG61uOcv+PqPO7q6jkGQZosIp4ZjgmgwbrW45wf4f2vocCNFhFPDMck0GD9S2t3z/+ETD+UbBHPZ4Z8gRosIp4ZjgmgwbrW1q+fxyrX9jAaip5hgEarCKeGY7JoMH6lpbv/wtzqK/kGQZosIp4ZjgmgwbrW1q8f8d+YQPbg5JnGKDBKuKZ4ZgMGqxvae3+DsCPrMd+eGbIE6DBKuKZ4ZgMGqxvaeX+PdI3+Dvsj2eGPAHpPsVObGFrnFlAHgcN1nMxaLC+Ze/3/zN7B+B7tlclzzBAg1XkI9L/Yv6I3gHo8XUfcbz7B1zvI/Z3/44NzKENnhnyBGiwRKQCzwx5AjRYIlKBZ4Y8ARosEanAM0OeAA2WiFTgmSFPgAZLRCrwzJAnQIMlIhV4ZsgToMESkQo8M+QJ0GCJSAWeGfIEaLBEpALPDHkCNFgiUoFnhjwBGiwRqcAzQ54ADZaIVOCZIU+ABktEKvDMkCdAgyUiFXhmyBOgwRKRCjwz5AnQYIlIBZ4Z8gRosESkAs8MeQI0WCJSgWeGPAEaLBGpwDNDngANlohU4JkhT4AGS0Qq8MyQJ0CDJSIVeGbIE6DBEpEKPDPkCdBgiUgFnhnyBGiwRKQCzwx5AjRYIlKBZ4Y8ARosEanAM0OeAA2WiFTgmSFPQKOD1QP4jck+fGIjyzUhlaNHKtfA3jDZB88MeQIaHaxo7X/va3HLHprZyB6Kn8/sIcPr5vBYxwb2UPy8Yw/dMPm2E8sV0PBgjewtO7pf2cyikc3swvDYhJTsR4/UQwPr2IVDEr/2Wt7TA8sV0PBgvQPwI2tR/Ac2s8iQxM9HFk1IyevVIxUNrGORQxI/b3XcfmAfWK6AhgcrGtle/qH9ymYWGZL4+ciiCSmRrfVIRQPrWOSQxM/38n1yxwY2s1wBjQ/WwAwv88PUyyCNbGYjm9nIZibSAoc0YAPr2MA69pY9t0/MIX3PlAhofLCigf3MvmNr3LEJ6WHObGQzG9nMRI6uYwPr2MA6NrCOrR20tWMVBRxgsKKOvb/vDfuSOzbh9xORr+vYwHr8b9+xL4lD9eG+ma0RcJDBemhgHbuYkBKR59UjdTGzkW0l4ICDJSLHFKDBEpFGBGiwRKQRARosEWlEgAZLRBoRoMF6lW7YUz1SXzKwjn2Nw74Zvs3wZRNST90yeTkBGqzm3LCLOCIDu+jYwB5ykJdkeGxkM7sY2cwubplcJ0CDVdXALn/RNX7csWhgHYt6pOT4JqSimY0smtnIovgXMS8fvzYBGqxnccOigXUsckji5wMTWWtCKjIkMxtZdMuOJECDle2GRQPr2MC6+wYmsjcTUjMbWWRIblkrAjRY/+OGRQ6JQ+IgclyGJA7azAzJLduLgFc6WDesYwPrkYofd0xEHpvZyGY23jezW/aSAg48WD3S/4LcIQ3RcF/HRGQbMxvZhJTh8/8zytYCDjBYPT4PU4+Ug4jUZkjDNSF9fMcmlAtobLAG9pbF10sdE5E2zGx80K8svl4jYMeDdcOG+3rod00iRzY+6ZY9FbCTwfqIxwPlICKvnSGNV+yWvcMOBktE5EVosESkGRosEWmGBktEmqHBEpFmaLD2645NeCz+25aZPWSQa3RsYA91bGAPdSz+XUHZoRPTYD2fT2xkF4bPJqQuDLJXA+tYFF8HdhE/7lgUXzV2z0iDle9XNt83smhCKopfm5nIwLr7Bhb1SEXxa2+YXOnENFjJZYgmpOLHI4smpESei0PSI9WxgUU3TOjEFnZ0n9jIIkNiSOLXZyaydwPrWI/Hxa+9ZYd3YkcZrF/ZzAyJIX0+MpHXoGMD69jAeqTix29Y805sZq1cJo7ShDRCEx4nIl83sI45pNfhvla+/z/FwTLs78/Id2xCOtuElEFEnkPHhvt6pNfY3obs9sRf3rN/sFpu2XjfBA2TyF50bGAOn4fsLavlhxN/6diEl1nTWzY+SUTa4pDG69Jb9tw+sf7EX6Lv2b/Ylm7Z+CQROSaHNF6X3rIt/cA+nPjLxTsAP7JSt8zwORF5vTrmkMbLYd3PyX9i70An9tD37CO+/cfDT8zwuZGJiHyNw+cGds3OBPB3Vuw/ng5W1LHv7+uRfmt3yyZ8HqeYiMgaA3NIxY+/Y3GkRvYz+4j0167+68RERJqgwRKRZmiwRKQZGiwRaYYGS0SaocESkWZosESkGRosEWmGBktEmqHBEpFmaLBEpBkaLBFphgZLRJqhwRKRZmiwRKQZGiwRaYYGS0SaocESkWZosESkGRosEWmGBktEmqHBEpFmaLBEpBkaLBFphgZLRJqhwRKRZmiwRKQZGiwRaYYGS0SaocESkWZosESkGRosEWmGBktEmqHBEpFmaLBEpBkaLBFphgZLRJqhwRKRZvw/tft/phtjChgAAAAASUVORK5CYII=;" vertex="1" parent="1">
          <mxGeometry x="-820" y="600" width="90" height="90" as="geometry" />
        </mxCell>
        <mxCell id="bHxsROqGJ9d036n8B6Q5-46" value="" style="edgeStyle=orthogonalEdgeStyle;rounded=0;orthogonalLoop=1;jettySize=auto;html=1;fillColor=#e51400;strokeColor=#B20000;exitX=1;exitY=0.5;exitDx=0;exitDy=0;endArrow=none;startFill=0;entryX=0;entryY=0.5;entryDx=0;entryDy=0;strokeWidth=2;" edge="1" parent="1" source="749JlQ45wNmBAUl5USfy-73" target="bHxsROqGJ9d036n8B6Q5-45">
          <mxGeometry relative="1" as="geometry">
            <mxPoint x="-1716" y="811" as="sourcePoint" />
            <mxPoint x="-1250" y="313" as="targetPoint" />
            <Array as="points">
              <mxPoint x="-1364" y="801" />
              <mxPoint x="-1340" y="800" />
              <mxPoint x="-1340" y="645" />
            </Array>
          </mxGeometry>
        </mxCell>
        <mxCell id="bHxsROqGJ9d036n8B6Q5-48" value="电源线" style="edgeLabel;html=1;align=center;verticalAlign=middle;resizable=0;points=[];" vertex="1" connectable="0" parent="bHxsROqGJ9d036n8B6Q5-46">
          <mxGeometry x="-0.1301" relative="1" as="geometry">
            <mxPoint as="offset" />
          </mxGeometry>
        </mxCell>
        <mxCell id="bHxsROqGJ9d036n8B6Q5-50" style="edgeStyle=orthogonalEdgeStyle;shape=connector;rounded=0;orthogonalLoop=1;jettySize=auto;html=1;labelBackgroundColor=default;strokeColor=#0000CC;align=center;verticalAlign=middle;fontFamily=Helvetica;fontSize=11;fontColor=default;endArrow=none;endFill=0;strokeWidth=2;entryX=-0.011;entryY=0.66;entryDx=0;entryDy=0;entryPerimeter=0;" edge="1" parent="1" target="bHxsROqGJ9d036n8B6Q5-45">
          <mxGeometry relative="1" as="geometry">
            <mxPoint x="-1710" y="1019" as="sourcePoint" />
            <mxPoint x="-830" y="660" as="targetPoint" />
            <Array as="points">
              <mxPoint x="-1620" y="1019" />
              <mxPoint x="-1620" y="660" />
              <mxPoint x="-820" y="660" />
            </Array>
          </mxGeometry>
        </mxCell>
        <mxCell id="bHxsROqGJ9d036n8B6Q5-52" value="" style="endArrow=classic;html=1;rounded=0;edgeStyle=orthogonalEdgeStyle;strokeWidth=2;entryX=0.011;entryY=0.352;entryDx=0;entryDy=0;entryPerimeter=0;" edge="1" parent="1" target="bHxsROqGJ9d036n8B6Q5-45">
          <mxGeometry width="50" height="50" relative="1" as="geometry">
            <mxPoint x="-1722" y="670" as="sourcePoint" />
            <mxPoint x="-1535" y="631" as="targetPoint" />
            <Array as="points">
              <mxPoint x="-1630" y="670" />
              <mxPoint x="-1630" y="632" />
            </Array>
          </mxGeometry>
        </mxCell>
        <mxCell id="bHxsROqGJ9d036n8B6Q5-54" value="HDMI线" style="edgeLabel;html=1;align=center;verticalAlign=middle;resizable=0;points=[];" vertex="1" connectable="0" parent="bHxsROqGJ9d036n8B6Q5-52">
          <mxGeometry x="0.1577" y="1" relative="1" as="geometry">
            <mxPoint as="offset" />
          </mxGeometry>
        </mxCell>
        <mxCell id="bHxsROqGJ9d036n8B6Q5-55" value="HDMI线" style="edgeLabel;html=1;align=center;verticalAlign=middle;resizable=0;points=[];" vertex="1" connectable="0" parent="bHxsROqGJ9d036n8B6Q5-52">
          <mxGeometry x="-0.9084" y="-1" relative="1" as="geometry">
            <mxPoint as="offset" />
          </mxGeometry>
        </mxCell>
      </root>
    </mxGraphModel>
  </diagram>
</mxfile>
